<svg width="57" height="56" viewBox="0 0 57 56" fill="none" xmlns="http://www.w3.org/2000/svg">
<g clip-path="url(#clip0_151_8111)">
<path d="M47.0474 20.013C47.0466 19.7384 47.0402 19.4639 47.028 19.1896V3.62234L42.7771 7.92608C39.2976 3.61467 34.0048 0.86084 28.0762 0.86084C21.9066 0.86084 16.4255 3.84211 12.9609 8.4594L19.929 15.5878C20.6112 14.3117 21.5776 13.214 22.7516 12.3815C23.9682 11.4206 25.6918 10.6346 28.0762 10.6346C28.3643 10.6346 28.5867 10.6689 28.7499 10.7329C31.7044 10.9691 34.2651 12.6196 35.7727 15.0152L30.8402 20.0085C37.0877 19.9837 44.1453 19.9693 47.0469 20.0119" fill="#1C3AA9"/>
<path d="M27.9651 0.861511C27.6939 0.862283 27.4227 0.868821 27.1517 0.881122H11.7746L16.0258 5.18487C11.7671 8.70713 9.04688 14.0656 9.04688 20.0673C9.04688 26.3134 11.9917 31.8624 16.5526 35.37L23.5939 28.3158C22.3334 27.625 21.2491 26.6466 20.4268 25.458C19.4777 24.2266 18.7013 22.4815 18.7013 20.0676C18.7013 19.7761 18.7351 19.5509 18.7983 19.3855C19.0317 16.3947 20.662 13.8023 23.0284 12.276L27.9606 17.2693C27.9361 10.9443 27.9217 3.7995 27.964 0.861962" fill="#4285F4"/>
<path d="M9.04785 20.0669C9.04859 20.3426 9.05505 20.6171 9.06722 20.8903V36.4576L13.3184 32.1538C16.7976 36.4652 22.0906 39.2191 28.0191 39.2191C34.1889 39.2191 39.67 36.2378 43.1347 31.6205L36.1667 24.4921C35.4844 25.7682 34.5179 26.866 33.3439 27.6984C32.1275 28.6593 30.4037 29.4453 28.0193 29.4453C27.7314 29.4453 27.509 29.411 27.3455 29.3468C24.3913 29.1108 21.8305 27.4601 20.3229 25.0647L25.2552 20.0712C19.0075 20.096 11.95 20.1106 9.0483 20.068" fill="#ABABAB"/>
<path d="M12.249 46.6569C11.7869 46.6569 11.3726 46.7456 11.0061 46.9229C10.6425 47.0943 10.3233 47.3492 10.0739 47.6672C9.823 47.9898 9.62981 48.381 9.49428 48.8407C9.36277 49.2965 9.29701 49.8066 9.29701 50.3712V51.9987C9.29701 52.5672 9.36277 53.0793 9.49428 53.5351C9.62966 53.9907 9.82092 54.3799 10.0681 54.7027C10.3149 55.0252 10.6137 55.2731 10.9643 55.4465C11.3147 55.6201 11.7091 55.7069 12.1475 55.7069C12.5977 55.7069 12.9921 55.6403 13.3307 55.5072C13.6732 55.3742 13.96 55.1826 14.191 54.9324C14.4221 54.6784 14.5994 54.3719 14.7229 54.0129C14.8504 53.6539 14.9261 53.2466 14.95 52.791H13.8445C13.8166 53.1419 13.7688 53.4424 13.7012 53.6924C13.6333 53.9384 13.5337 54.142 13.4023 54.3033C13.2748 54.4606 13.1075 54.5776 12.9003 54.6542C12.697 54.7268 12.4461 54.7631 12.1475 54.7631C11.8288 54.7631 11.5579 54.6925 11.3348 54.5512C11.1117 54.4062 10.9304 54.2086 10.791 53.9584C10.6557 53.7083 10.5561 53.416 10.4922 53.0813C10.4324 52.7467 10.4025 52.3857 10.4025 51.9985V50.359C10.4025 49.9437 10.4383 49.5666 10.51 49.2277C10.5857 48.889 10.6993 48.6007 10.8507 48.3628C11.0021 48.1249 11.1934 47.9414 11.4245 47.8121C11.6555 47.6791 11.9303 47.6127 12.249 47.6127C12.516 47.6127 12.7451 47.653 12.9361 47.7337C13.1276 47.8103 13.2869 47.9313 13.4141 48.0966C13.5418 48.2578 13.6394 48.4635 13.7069 48.7136C13.7748 48.9636 13.8206 49.2621 13.8445 49.6089H14.95C14.9301 49.1331 14.8564 48.7117 14.7289 48.3446C14.6013 47.9776 14.424 47.6691 14.197 47.419C13.9699 47.169 13.6931 46.9794 13.3665 46.8503C13.0438 46.7214 12.6713 46.6571 12.249 46.6569ZM39.2349 46.6567C38.7727 46.6567 38.3583 46.7454 37.9918 46.9227C37.6282 47.0941 37.309 47.349 37.0596 47.667C36.8087 47.9896 36.6155 48.3808 36.48 48.8405C36.3486 49.2962 36.283 49.8064 36.283 50.371V51.9985C36.283 52.5669 36.3486 53.0791 36.48 53.5348C36.6154 53.9905 36.8066 54.3797 37.0538 54.7025C37.3006 55.025 37.5994 55.2729 37.95 55.4463C38.3006 55.6199 38.695 55.7067 39.1332 55.7067C39.5834 55.7067 39.9778 55.6401 40.3164 55.507C40.659 55.374 40.9458 55.1824 41.1769 54.9322C41.4078 54.6782 41.585 54.3717 41.7086 54.0127C41.8363 53.6537 41.912 53.2464 41.9357 52.7908H40.8303C40.8024 53.1417 40.7546 53.4421 40.6869 53.6922C40.6192 53.9382 40.5196 54.1418 40.3881 54.303C40.2606 54.4604 40.0933 54.5774 39.8862 54.654C39.6828 54.7266 39.4318 54.7629 39.1332 54.7629C38.8145 54.7629 38.5436 54.6922 38.3205 54.551C38.0974 54.406 37.9161 54.2084 37.7767 53.9582C37.6414 53.7081 37.5418 53.4158 37.4779 53.0811C37.4183 52.7464 37.3884 52.3855 37.3884 51.9982V50.3588C37.3884 49.9435 37.4243 49.5664 37.496 49.2275C37.5717 48.8888 37.6852 48.6005 37.8366 48.3626C37.9881 48.1247 38.1792 47.9412 38.4102 47.8119C38.6413 47.6789 38.9162 47.6124 39.2347 47.6124C39.5019 47.6124 39.731 47.6528 39.922 47.7335C40.1131 47.8101 40.2724 47.9311 40.4001 48.0964C40.5274 48.2576 40.625 48.4633 40.6929 48.7133C40.7607 48.9634 40.8065 49.2618 40.8303 49.6087H41.9357C41.9159 49.1329 41.8422 48.7115 41.7146 48.3443C41.587 47.9774 41.4097 47.6689 41.1827 47.4188C40.9556 47.1687 40.6788 46.9792 40.3522 46.8501C40.0295 46.7212 39.657 46.6566 39.2347 46.6565M18.5475 46.7775L15.7451 55.5858H16.8684L17.5438 53.2869H20.4837L21.1708 55.5858H22.2943L19.4858 46.778L18.5475 46.7775ZM23.4771 46.7775V55.5854H24.5706V52.1371H26.2496C26.6679 52.1371 27.0384 52.0786 27.3611 51.9617C27.6838 51.8407 27.9547 51.6673 28.1738 51.4415C28.3969 51.2156 28.5642 50.9373 28.6757 50.6065C28.7915 50.2719 28.8493 49.8928 28.8491 49.4694C28.8491 49.078 28.7913 48.7191 28.6757 48.3926C28.5643 48.0618 28.3991 47.7775 28.1798 47.5396C27.9607 47.2975 27.6878 47.11 27.3611 46.977C27.0384 46.8439 26.6679 46.7773 26.2496 46.7773L23.4771 46.7775ZM29.6856 46.7775V47.7332H31.9683V55.5854H33.0616V47.7332H35.3505V46.7775H29.6856ZM43.4115 46.7775V55.5854H44.5048V51.514H48.0067V55.5854H49.1062V46.7775H48.0067V50.5644H44.505V46.7775H43.4115ZM53.2529 46.7775L50.4506 55.5854H51.5741L52.2492 53.2864H55.1891L55.8765 55.5854H57L54.1914 46.7775H53.2529ZM24.5703 47.7332H26.2496C26.5165 47.7332 26.7436 47.7816 26.9309 47.8784C27.122 47.9753 27.2773 48.1044 27.397 48.2657C27.5232 48.4328 27.6146 48.6241 27.6657 48.8281C27.7255 49.0377 27.7554 49.2555 27.7554 49.4815C27.7554 49.7316 27.7255 49.9615 27.6657 50.1713C27.6146 50.3679 27.523 50.5513 27.397 50.7096C27.2773 50.8588 27.1219 50.9757 26.9307 51.0603C26.7437 51.1451 26.5166 51.1874 26.2494 51.1874H24.5706L24.5703 47.7332ZM19.0133 48.3261L20.2025 52.3307H17.8305L19.0133 48.3261ZM53.7192 48.3261L54.9081 52.3307H52.536L53.7192 48.3261ZM2.2466 48.9189C1.97155 48.9189 1.73449 48.9895 1.53544 49.1308C1.34024 49.272 1.17696 49.4636 1.04559 49.7054L1.02756 49.0399H0V55.5854H1.05762V50.903C1.15737 50.6247 1.29883 50.4049 1.482 50.2436C1.66903 50.0822 1.90601 50.0015 2.19294 50.0015C2.28468 50.0015 2.36632 50.0056 2.43786 50.0137C2.50986 50.0176 2.58756 50.0277 2.67098 50.0439L2.6652 49.0034C2.64022 48.9923 2.61408 48.9842 2.58727 48.9791C2.55239 48.966 2.51649 48.9559 2.47995 48.9489C2.43846 48.9405 2.39653 48.9344 2.35437 48.9308C2.319 48.9233 2.28298 48.9192 2.24682 48.9187L2.2466 48.9189ZM5.80198 48.9189C5.49531 48.9189 5.1985 48.9734 4.91157 49.0823C4.62479 49.1913 4.36985 49.3707 4.14675 49.6206C3.92766 49.8667 3.75042 50.1894 3.61505 50.5885C3.47952 50.9839 3.41176 51.4699 3.41176 52.0465V52.7845C3.41176 53.2846 3.46958 53.7181 3.58521 54.0851C3.70055 54.4522 3.86583 54.7567 4.08107 54.9987C4.30099 55.2369 4.57332 55.4193 4.87595 55.5311C5.18648 55.648 5.53501 55.7064 5.92154 55.7064C6.20031 55.7064 6.44931 55.6782 6.66855 55.6217C6.89151 55.5653 7.08871 55.4928 7.26015 55.4039C7.42049 55.3191 7.56915 55.2134 7.70235 55.0895C7.81964 54.9796 7.92572 54.858 8.01896 54.7266L7.46923 54.049C7.38165 54.158 7.28806 54.2587 7.18846 54.3513C7.08871 54.4401 6.97916 54.5188 6.85982 54.5873C6.73495 54.654 6.60243 54.7048 6.46527 54.7385C6.30678 54.7766 6.14431 54.7949 5.98144 54.7931C5.4913 54.7931 5.11479 54.6338 4.8519 54.3152C4.59303 53.9966 4.46359 53.4865 4.46359 52.7847V52.6332H8.07285V52.0102C8.07285 51.5101 8.03099 51.0685 7.94727 50.6854C7.86355 50.3024 7.73011 49.9798 7.54693 49.7175C7.36856 49.4596 7.12503 49.2548 6.84178 49.1247C6.555 48.9875 6.2084 48.9189 5.80198 48.9189ZM5.80198 49.8386C6.03309 49.8386 6.22436 49.8809 6.37576 49.9655C6.52553 50.0486 6.64962 50.1721 6.73424 50.3223C6.82582 50.4756 6.89158 50.6591 6.93151 50.873C6.9753 51.0826 7.00313 51.3145 7.01501 51.5686V51.7138H4.4696C4.48563 51.3468 4.52942 51.0423 4.60097 50.8002C4.67281 50.5582 4.76648 50.3667 4.88196 50.2256C5.00145 50.0804 5.13891 49.9796 5.29432 49.9231C5.45748 49.8653 5.62933 49.8366 5.8022 49.8383" fill="#A6A6A6"/>
</g>
<defs>
<clipPath id="clip0_151_8111">
<rect width="57" height="55" fill="white" transform="translate(0 0.86084)"/>
</clipPath>
</defs>
</svg>
