<svg width="175" height="49" viewBox="0 0 175 49" fill="none" xmlns="http://www.w3.org/2000/svg">
<g clip-path="url(#clip0_321_5072)">
<path d="M0 47.4524V42.4697H0.6656V47.4524H0ZM0.528748 45.7293V45.1446H1.63601C1.87239 45.1446 2.06523 45.0979 2.22074 45.0046C2.37626 44.9113 2.49134 44.7869 2.56909 44.6283C2.64685 44.4696 2.68728 44.2923 2.68728 44.0995C2.68728 43.9067 2.64685 43.7232 2.56909 43.5645C2.49134 43.4059 2.37314 43.2815 2.22074 43.1913C2.06834 43.1011 1.87239 43.0545 1.63601 43.0545H0.528748V42.4697H1.51471C1.92215 42.4697 2.26117 42.535 2.53799 42.6626C2.81169 42.7932 3.02008 42.9736 3.16005 43.21C3.30001 43.4464 3.37155 43.7232 3.37155 44.0435V44.1524C3.37155 44.4696 3.30001 44.7465 3.16005 44.9828C3.02008 45.2192 2.81169 45.4027 2.53799 45.5334C2.26428 45.6609 1.92215 45.7262 1.51471 45.7262H0.528748V45.7293Z" fill="white"/>
<path d="M5.50521 47.562C5.07599 47.562 4.7463 47.422 4.51303 47.1421C4.27976 46.8622 4.16779 46.4547 4.16779 45.926V43.8203H4.82094V46.0535C4.82094 46.3396 4.8987 46.5605 5.05111 46.7222C5.20351 46.8839 5.4119 46.9648 5.67627 46.9648C5.94065 46.9648 6.17081 46.8777 6.34187 46.7035C6.51294 46.5294 6.60003 46.2899 6.60003 45.9882V43.8234H7.25318V47.4562H6.73688V45.9011H6.81775C6.81775 46.2588 6.77109 46.5605 6.67467 46.8062C6.57825 47.0519 6.43829 47.2416 6.25167 47.3691C6.06506 47.4967 5.82557 47.562 5.53631 47.562H5.50832H5.50521Z" fill="white"/>
<path d="M9.70099 47.5625C9.22512 47.5625 8.8581 47.4599 8.59684 47.2577C8.33558 47.0524 8.20184 46.7756 8.1925 46.4242H8.80212C8.81145 46.5641 8.88299 46.6979 9.01673 46.8223C9.15047 46.9467 9.37752 47.0089 9.69788 47.0089C9.98714 47.0089 10.208 46.9498 10.3635 46.8347C10.519 46.7196 10.5936 46.5766 10.5936 46.4117C10.5936 46.2624 10.5377 46.1473 10.4257 46.0634C10.3137 45.9794 10.1302 45.9234 9.87517 45.8954L9.48016 45.855C9.13492 45.8176 8.85499 45.715 8.63728 45.5471C8.41956 45.3791 8.3107 45.1396 8.3107 44.8317C8.3107 44.6015 8.36979 44.4025 8.48798 44.2376C8.60617 44.0728 8.76791 43.9453 8.9763 43.8582C9.18468 43.7711 9.42418 43.7275 9.69477 43.7275C10.1022 43.7275 10.4319 43.8177 10.687 43.9981C10.942 44.1785 11.0726 44.4491 11.082 44.8068H10.4723C10.4692 44.6637 10.4008 44.5393 10.2733 44.4367C10.1427 44.334 9.95292 44.2843 9.70099 44.2843C9.44906 44.2843 9.25622 44.3372 9.12248 44.4398C8.99185 44.5424 8.92653 44.6762 8.92653 44.8348C8.92653 44.9717 8.97319 45.0805 9.06649 45.1614C9.1598 45.2422 9.31221 45.2951 9.52371 45.3169L9.91871 45.3573C10.3075 45.3978 10.6216 45.5066 10.8549 45.6808C11.0913 45.855 11.2064 46.1007 11.2064 46.4179C11.2064 46.645 11.1411 46.844 11.0135 47.0182C10.886 47.1924 10.7056 47.3292 10.4817 47.4257C10.2577 47.5221 9.99647 47.5718 9.70099 47.5718V47.5625Z" fill="white"/>
<path d="M13.1565 47.5494C12.8859 47.5494 12.6495 47.5027 12.4535 47.4094C12.2576 47.3161 12.1052 47.1824 11.9994 47.0051C11.8937 46.8278 11.8408 46.6163 11.8408 46.3675C11.8408 46.1187 11.8999 45.8947 12.015 45.7237C12.1301 45.5526 12.298 45.422 12.522 45.3349C12.7459 45.2478 13.0103 45.2011 13.3244 45.2011H14.3104V45.6894H13.2995C13.0383 45.6894 12.8361 45.7517 12.6961 45.8792C12.5562 46.0067 12.4846 46.1684 12.4846 46.3675C12.4846 46.5665 12.5562 46.7283 12.6961 46.8496C12.8361 46.9709 13.0383 47.0331 13.2995 47.0331C13.4551 47.0331 13.6012 47.0051 13.7412 46.9491C13.8812 46.8931 13.9994 46.7967 14.0896 46.663C14.1829 46.5292 14.2326 46.3457 14.242 46.1093L14.4192 46.3675C14.3975 46.6256 14.3353 46.8403 14.2326 47.0144C14.13 47.1886 13.99 47.3223 13.8127 47.4125C13.6355 47.5027 13.4177 47.5494 13.1658 47.5494H13.1565ZM14.3446 47.453V46.3675H14.2357V45.1109C14.2357 44.8621 14.1704 44.6755 14.0429 44.548C13.9154 44.4205 13.7257 44.3582 13.4768 44.3582C13.3369 44.3582 13.1907 44.3582 13.0414 44.3645C12.8921 44.3676 12.749 44.3738 12.6122 44.3769C12.4753 44.38 12.3602 44.3893 12.2607 44.3987V43.8295C12.3602 43.8202 12.466 43.8139 12.5748 43.8046C12.6837 43.7953 12.7988 43.7922 12.917 43.7922C13.0352 43.7922 13.1471 43.7891 13.256 43.7891C13.6261 43.7891 13.9309 43.8326 14.1642 43.9228C14.4006 44.0099 14.5748 44.1561 14.6867 44.3551C14.7987 44.5542 14.8578 44.8248 14.8578 45.1638V47.4592H14.3415L14.3446 47.453Z" fill="white"/>
<path d="M15.5266 44.3179V43.8296H18.0241V44.3179H15.5266ZM17.4674 47.4966C17.1968 47.4966 16.9604 47.4593 16.7644 47.3815C16.5685 47.3037 16.4161 47.1731 16.3103 46.9834C16.2046 46.7968 16.1517 46.5417 16.1517 46.2183V42.7285H16.7769V46.2991C16.7769 46.4951 16.8298 46.6444 16.9355 46.7501C17.0413 46.8559 17.1937 46.9087 17.3865 46.9087H18.0241V47.4935H17.4674V47.4966Z" fill="white"/>
<path d="M20.5901 47.4527V42.498H21.2557V47.4527H20.5901ZM23.7128 47.4527L21.6973 45.1387H20.9695L23.2712 42.498H24.0332L21.9431 44.8867L21.8809 44.4171L24.5433 47.4527H23.7159H23.7128Z" fill="white"/>
<path d="M26.2726 47.562C25.8434 47.562 25.5137 47.422 25.2804 47.1421C25.0472 46.8622 24.9352 46.4547 24.9352 45.926V43.8203H25.5883V46.0535C25.5883 46.3396 25.6661 46.5605 25.8185 46.7222C25.9709 46.8839 26.1793 46.9648 26.4437 46.9648C26.708 46.9648 26.9382 46.8777 27.1093 46.7035C27.2803 46.5294 27.3674 46.2899 27.3674 45.9882V43.8234H28.0206V47.4562H27.5043V45.9011H27.5851C27.5851 46.2588 27.5385 46.5605 27.4421 46.8062C27.3457 47.0519 27.2057 47.2416 27.0191 47.3691C26.8325 47.4967 26.593 47.562 26.3037 47.562H26.2757H26.2726Z" fill="white"/>
<path d="M29.2802 47.4532V43.8266H29.7965V45.3195H29.7685C29.7685 44.7908 29.8836 44.402 30.1169 44.1563C30.3501 43.9105 30.6985 43.7861 31.165 43.7861H31.2863V44.3709H31.0562C30.6923 44.3709 30.4155 44.4673 30.2195 44.6601C30.0236 44.853 29.9271 45.1298 29.9271 45.4906V47.4532H29.274H29.2802Z" fill="white"/>
<path d="M31.6844 44.3427V43.8264H32.8912V44.3427H31.6844ZM32.4247 43.2417C32.2785 43.2417 32.1728 43.2043 32.1012 43.1266C32.0297 43.0488 31.9955 42.9524 31.9955 42.8342C31.9955 42.716 32.0297 42.6196 32.1012 42.5418C32.1728 42.4641 32.2785 42.4268 32.4247 42.4268C32.5709 42.4268 32.6766 42.4641 32.7482 42.5418C32.8197 42.6196 32.8539 42.716 32.8539 42.8342C32.8539 42.9524 32.8197 43.0488 32.7482 43.1266C32.6766 43.2043 32.5709 43.2417 32.4247 43.2417ZM32.2412 47.4499V43.8233H32.8912V47.4499H32.2412Z" fill="white"/>
<path d="M34.1571 47.4527V42.498H34.8103V47.4527H34.1571ZM36.6547 47.4527L35.2892 45.7607H34.6921L36.3561 43.8261H37.0434L35.535 45.571L35.5816 45.2258L37.4073 47.4527H36.6547Z" fill="white"/>
<path d="M39.2611 47.562C38.8319 47.562 38.5022 47.422 38.2689 47.1421C38.0357 46.8622 37.9237 46.4547 37.9237 45.926V43.8203H38.5769V46.0535C38.5769 46.3396 38.6546 46.5605 38.807 46.7222C38.9594 46.8839 39.1678 46.9648 39.4322 46.9648C39.6966 46.9648 39.9267 46.8777 40.0978 46.7035C40.2689 46.5294 40.3559 46.2899 40.3559 45.9882V43.8234H41.0091V47.4562H40.4928V45.9011H40.5737C40.5737 46.2588 40.527 46.5605 40.4306 46.8062C40.3342 47.0519 40.1942 47.2416 40.0076 47.3691C39.821 47.4967 39.5815 47.562 39.2922 47.562H39.2642H39.2611Z" fill="white"/>
<path d="M41.8084 43.0144V42.498H42.9623V43.0144H41.8084ZM42.3123 47.4558V42.5012H42.9654V47.4558H42.3123Z" fill="white"/>
<path d="M45.4661 47.562C45.0369 47.562 44.7072 47.422 44.4739 47.1421C44.2406 46.8622 44.1287 46.4547 44.1287 45.926V43.8203H44.7818V46.0535C44.7818 46.3396 44.8596 46.5605 45.012 46.7222C45.1644 46.8839 45.3728 46.9648 45.6371 46.9648C45.9015 46.9648 46.1317 46.8777 46.3027 46.7035C46.4738 46.5294 46.5609 46.2899 46.5609 45.9882V43.8234H47.2141V47.4562H46.6978V45.9011H46.7786C46.7786 46.2588 46.732 46.5605 46.6355 46.8062C46.5391 47.0519 46.3992 47.2416 46.2125 47.3691C46.0259 47.4967 45.7864 47.562 45.4972 47.562H45.4692H45.4661Z" fill="white"/>
<path d="M48.4738 47.453V43.8265H48.9901V45.3816H48.9092C48.9092 45.027 48.9558 44.7284 49.0492 44.4827C49.1425 44.237 49.2824 44.0473 49.4659 43.9166C49.6494 43.786 49.8858 43.7207 50.172 43.7207H50.2C50.4861 43.7207 50.7225 43.786 50.9091 43.9166C51.0957 44.0473 51.2357 44.237 51.3259 44.4827C51.4161 44.7284 51.4627 45.0301 51.4627 45.3816H51.273C51.273 45.027 51.3197 44.7284 51.4161 44.4827C51.5125 44.237 51.6525 44.0473 51.8391 43.9166C52.0257 43.786 52.2621 43.7207 52.5482 43.7207H52.5762C52.8624 43.7207 53.0987 43.786 53.2885 43.9166C53.4782 44.0473 53.6213 44.237 53.7115 44.4827C53.8048 44.7284 53.8514 45.0301 53.8514 45.3816V47.453H53.1983V45.2385C53.1983 44.943 53.1267 44.716 52.9806 44.5574C52.8344 44.3987 52.6353 44.3148 52.3772 44.3148C52.119 44.3148 51.8951 44.3987 51.7333 44.5698C51.5716 44.7378 51.4876 44.9773 51.4876 45.279V47.453H50.8345V45.2385C50.8345 44.943 50.7629 44.716 50.6167 44.5574C50.4706 44.3956 50.2715 44.3148 50.0133 44.3148C49.7552 44.3148 49.5312 44.3987 49.3695 44.5698C49.2078 44.7378 49.1238 44.9773 49.1238 45.279V47.453H48.4706H48.4738Z" fill="white"/>
<path d="M58.1063 47.5742C57.8481 47.5742 57.6117 47.5276 57.394 47.4311C57.1763 47.3347 56.9866 47.2041 56.828 47.0299C56.6662 46.8588 56.5418 46.6598 56.4547 46.4327C56.3676 46.2057 56.321 45.9631 56.321 45.6987V45.5774C56.321 45.3192 56.3645 45.0766 56.4516 44.8496C56.5387 44.6225 56.66 44.4235 56.8155 44.2524C56.971 44.0814 57.1577 43.9445 57.3723 43.8481C57.5869 43.7517 57.8264 43.7019 58.0876 43.7019C58.3644 43.7019 58.6164 43.761 58.8403 43.8761C59.0642 43.9912 59.2509 44.1716 59.3971 44.4173C59.5401 44.663 59.6241 44.9771 59.6428 45.369L59.3722 44.9336V42.4951H60.0253V47.4498H59.509V45.8418H59.6988C59.6801 46.2523 59.5961 46.5882 59.4406 46.8433C59.2851 47.0983 59.0922 47.2849 58.859 47.4C58.6257 47.5151 58.3769 47.5742 58.1094 47.5742H58.1063ZM58.1934 47.005C58.4142 47.005 58.6164 46.9553 58.7968 46.8557C58.9772 46.7562 59.1233 46.6131 59.2322 46.4234C59.3411 46.2368 59.3939 46.016 59.3939 45.7609V45.4499C59.3939 45.2011 59.338 44.9896 59.226 44.8154C59.114 44.6412 58.9678 44.5075 58.7843 44.4142C58.6008 44.3209 58.4018 44.2742 58.184 44.2742C57.9446 44.2742 57.7331 44.3302 57.5495 44.4453C57.366 44.5572 57.223 44.7159 57.1203 44.9211C57.0177 45.1233 56.9679 45.3659 56.9679 45.6396C56.9679 45.9133 57.0208 46.1559 57.1234 46.3643C57.2261 46.5727 57.3723 46.7282 57.5589 46.8402C57.7455 46.9522 57.9539 47.0081 58.1903 47.0081L58.1934 47.005Z" fill="white"/>
<path d="M62.2772 47.5494C62.0066 47.5494 61.7702 47.5027 61.5743 47.4094C61.3783 47.3161 61.2259 47.1824 61.1202 47.0051C61.0144 46.8278 60.9615 46.6163 60.9615 46.3675C60.9615 46.1187 61.0206 45.8947 61.1357 45.7237C61.2508 45.5526 61.4188 45.422 61.6427 45.3349C61.8666 45.2478 62.131 45.2011 62.4452 45.2011H63.4311V45.6894H62.4203C62.159 45.6894 61.9568 45.7517 61.8169 45.8792C61.6769 46.0067 61.6054 46.1684 61.6054 46.3675C61.6054 46.5665 61.6769 46.7283 61.8169 46.8496C61.9568 46.9709 62.159 47.0331 62.4203 47.0331C62.5758 47.0331 62.722 47.0051 62.8619 46.9491C63.0019 46.8931 63.1201 46.7967 63.2103 46.663C63.3036 46.5292 63.3534 46.3457 63.3627 46.1093L63.54 46.3675C63.5182 46.6256 63.456 46.8403 63.3534 47.0144C63.2507 47.1886 63.1108 47.3223 62.9335 47.4125C62.7562 47.5027 62.5385 47.5494 62.2865 47.5494H62.2772ZM63.4653 47.453V46.3675H63.3565V45.1109C63.3565 44.8621 63.2911 44.6755 63.1636 44.548C63.0361 44.4205 62.8464 44.3582 62.5976 44.3582C62.4576 44.3582 62.3114 44.3582 62.1621 44.3645C62.0128 44.3676 61.8697 44.3738 61.7329 44.3769C61.596 44.38 61.481 44.3893 61.3814 44.3987V43.8295C61.481 43.8202 61.5867 43.8139 61.6956 43.8046C61.8044 43.7953 61.9195 43.7922 62.0377 43.7922C62.1559 43.7922 62.2679 43.7891 62.3767 43.7891C62.7469 43.7891 63.0517 43.8326 63.2849 43.9228C63.5213 44.0099 63.6955 44.1561 63.8075 44.3551C63.9194 44.5542 63.9785 44.8248 63.9785 45.1638V47.4592H63.4622L63.4653 47.453Z" fill="white"/>
<path d="M65.176 47.453V43.8265H65.6923V45.3816H65.6114C65.6114 45.0239 65.6612 44.7222 65.7576 44.4765C65.854 44.2308 66.0033 44.0411 66.2024 43.9135C66.4014 43.7829 66.6533 43.7207 66.955 43.7207H66.983C67.4402 43.7207 67.7793 43.8638 67.997 44.1499C68.2178 44.4361 68.3267 44.8466 68.3267 45.3847V47.4561H67.6735V45.251C67.6735 44.971 67.5958 44.744 67.4371 44.576C67.2785 44.405 67.0608 44.321 66.784 44.321C66.5072 44.321 66.2677 44.4081 66.0904 44.5854C65.9131 44.7626 65.826 44.9959 65.826 45.2914V47.4561H65.1729L65.176 47.453Z" fill="white"/>
<path d="M71.1633 47.4524V42.4697H71.8289V47.4524H71.1633ZM71.692 45.7293V45.1446H72.7993C73.0357 45.1446 73.2285 45.0979 73.384 45.0046C73.5395 44.9113 73.6546 44.7869 73.7324 44.6283C73.8101 44.4696 73.8506 44.2923 73.8506 44.0995C73.8506 43.9067 73.8101 43.7232 73.7324 43.5645C73.6546 43.4059 73.5364 43.2815 73.384 43.1913C73.2316 43.1011 73.0357 43.0545 72.7993 43.0545H71.692V42.4697H72.678C73.0854 42.4697 73.4244 42.535 73.7013 42.6626C73.975 42.7932 74.1834 42.9736 74.3233 43.21C74.4633 43.4464 74.5348 43.7232 74.5348 44.0435V44.1524C74.5348 44.4696 74.4633 44.7465 74.3233 44.9828C74.1834 45.2192 73.975 45.4027 73.7013 45.5334C73.4276 45.6609 73.0854 45.7262 72.678 45.7262H71.692V45.7293Z" fill="white"/>
<path d="M76.8862 47.5743C76.5689 47.5743 76.2952 47.5214 76.0651 47.4125C75.8349 47.3037 75.6452 47.1606 75.5021 46.9802C75.3559 46.7998 75.2502 46.6007 75.1786 46.3799C75.1071 46.1591 75.0729 45.932 75.0729 45.7019V45.5806C75.0729 45.3442 75.1071 45.1171 75.1786 44.8932C75.2502 44.6724 75.3559 44.4702 75.5021 44.2929C75.6483 44.1156 75.8318 43.9726 76.0557 43.8637C76.2797 43.758 76.544 43.7051 76.8457 43.7051C77.2407 43.7051 77.5642 43.7891 77.8193 43.9601C78.0743 44.1312 78.264 44.3489 78.3884 44.6164C78.5128 44.8839 78.5751 45.17 78.5751 45.4717V45.7641H75.3559V45.2758H78.0992L77.9499 45.5401C77.9499 45.282 77.9095 45.0581 77.8286 44.8714C77.7477 44.6848 77.6264 44.5386 77.4616 44.4329C77.2998 44.3302 77.0914 44.2774 76.8426 44.2774C76.5938 44.2774 76.3699 44.3365 76.2019 44.4547C76.0308 44.5728 75.9064 44.7315 75.8225 44.9367C75.7385 45.142 75.698 45.3753 75.698 45.6428C75.698 45.9103 75.7385 46.1342 75.8225 46.3395C75.9064 46.5448 76.0371 46.7096 76.2112 46.8278C76.3885 46.9491 76.6125 47.0082 76.8831 47.0082C77.1692 47.0082 77.3994 46.946 77.5798 46.8185C77.7602 46.6909 77.8659 46.5448 77.9032 46.3768H78.5128C78.4631 46.6256 78.3636 46.8402 78.2143 47.0206C78.065 47.201 77.8784 47.341 77.6513 47.4343C77.4243 47.5276 77.1692 47.5774 76.8831 47.5774L76.8862 47.5743Z" fill="white"/>
<path d="M79.4988 47.453V43.8265H80.0151V45.3816H79.9342C79.9342 45.027 79.9809 44.7284 80.0742 44.4827C80.1675 44.237 80.3075 44.0473 80.491 43.9166C80.6745 43.786 80.9108 43.7207 81.197 43.7207H81.225C81.5111 43.7207 81.7475 43.786 81.9341 43.9166C82.1207 44.0473 82.2607 44.237 82.3509 44.4827C82.4411 44.7284 82.4878 45.0301 82.4878 45.3816H82.298C82.298 45.027 82.3447 44.7284 82.4411 44.4827C82.5375 44.237 82.6775 44.0473 82.8641 43.9166C83.0507 43.786 83.2871 43.7207 83.5733 43.7207H83.6012C83.8874 43.7207 84.1238 43.786 84.3135 43.9166C84.5032 44.0473 84.6463 44.237 84.7365 44.4827C84.8298 44.7284 84.8765 45.0301 84.8765 45.3816V47.453H84.2233V45.2385C84.2233 44.943 84.1518 44.716 84.0056 44.5574C83.8594 44.3987 83.6603 44.3148 83.4022 44.3148C83.144 44.3148 82.9201 44.3987 82.7583 44.5698C82.5966 44.7378 82.5126 44.9773 82.5126 45.279V47.453H81.8595V45.2385C81.8595 44.943 81.7879 44.716 81.6418 44.5574C81.4956 44.3956 81.2965 44.3148 81.0384 44.3148C80.7802 44.3148 80.5563 44.3987 80.3945 44.5698C80.2328 44.7378 80.1488 44.9773 80.1488 45.279V47.453H79.4957H79.4988Z" fill="white"/>
<path d="M87.9867 47.5738C87.6882 47.5738 87.4238 47.5085 87.1905 47.3779C86.9572 47.2473 86.7737 47.0544 86.6369 46.8056C86.5 46.5568 86.4254 46.252 86.4129 45.9005H86.5902V47.4557H86.0739V42.501H86.7271V44.9114L86.4969 45.406C86.5156 45.011 86.5933 44.6906 86.7333 44.4418C86.8733 44.193 87.0568 44.0095 87.2869 43.8882C87.514 43.7669 87.769 43.7078 88.0427 43.7078C88.3009 43.7078 88.5373 43.7575 88.7488 43.854C88.9603 43.9504 89.1438 44.0841 89.2993 44.2552C89.4548 44.4262 89.5699 44.6222 89.6507 44.8461C89.7316 45.0701 89.772 45.3127 89.772 45.5677V45.689C89.772 45.9472 89.7316 46.1898 89.6476 46.4137C89.5637 46.6408 89.4424 46.8398 89.2837 47.014C89.1251 47.1882 88.9354 47.325 88.7177 47.4246C88.4968 47.5241 88.2542 47.5738 87.9867 47.5738ZM87.9121 47.0047C88.1578 47.0047 88.3693 46.9456 88.5497 46.8274C88.7301 46.7092 88.8701 46.5475 88.9696 46.3422C89.0691 46.1369 89.1189 45.8974 89.1189 45.6268C89.1189 45.3562 89.0691 45.1167 88.9665 44.9146C88.8638 44.7124 88.7239 44.5538 88.5404 44.4418C88.3569 44.3298 88.1485 44.2738 87.909 44.2738C87.6913 44.2738 87.4891 44.3236 87.3056 44.42C87.119 44.5164 86.9728 44.6564 86.8608 44.8399C86.7488 45.0234 86.696 45.2442 86.696 45.5024V45.8134C86.696 46.0623 86.752 46.2738 86.867 46.451C86.979 46.6283 87.1283 46.7621 87.3149 46.8585C87.5015 46.9549 87.7006 47.0016 87.9121 47.0016V47.0047Z" fill="white"/>
<path d="M92.2914 47.5743C91.9741 47.5743 91.7004 47.5214 91.4703 47.4125C91.2401 47.3037 91.0504 47.1606 90.9073 46.9802C90.7611 46.7998 90.6554 46.6007 90.5838 46.3799C90.5154 46.1591 90.4781 45.932 90.4781 45.7019V45.5806C90.4781 45.3442 90.5123 45.1171 90.5838 44.8932C90.6554 44.6724 90.7611 44.4702 90.9073 44.2929C91.0504 44.1156 91.237 43.9726 91.4609 43.8637C91.6849 43.7548 91.9493 43.7051 92.251 43.7051C92.646 43.7051 92.9694 43.7891 93.2245 43.9601C93.4795 44.1312 93.6692 44.3489 93.7936 44.6164C93.9181 44.8839 93.9803 45.17 93.9803 45.4717V45.7641H90.7611V45.2758H93.5044L93.3551 45.5401C93.3551 45.282 93.3147 45.0581 93.2338 44.8714C93.1529 44.6848 93.0316 44.5386 92.8668 44.4329C92.705 44.3302 92.4967 44.2774 92.2478 44.2774C91.999 44.2774 91.7751 44.3365 91.6071 44.4547C91.4361 44.5728 91.3116 44.7315 91.2277 44.9367C91.1437 45.142 91.1033 45.3753 91.1033 45.6428C91.1033 45.9103 91.1437 46.1342 91.2277 46.3395C91.3116 46.5448 91.4423 46.7096 91.6165 46.8278C91.7937 46.9491 92.0177 47.0082 92.2883 47.0082C92.5744 47.0082 92.8046 46.946 92.985 46.8185C93.1654 46.6909 93.2711 46.5448 93.3084 46.3768H93.9181C93.8683 46.6256 93.7688 46.8402 93.6195 47.0206C93.4702 47.201 93.2836 47.341 93.0565 47.4343C92.8295 47.5307 92.5744 47.5774 92.2883 47.5774L92.2914 47.5743Z" fill="white"/>
<path d="M94.4437 43.0144V42.498H95.5976V43.0144H94.4437ZM94.9476 47.4558V42.5012H95.6008V47.4558H94.9476Z" fill="white"/>
<path d="M97.8495 47.5494C97.5789 47.5494 97.3456 47.5027 97.1465 47.4094C96.9506 47.3161 96.7982 47.1824 96.6924 47.0051C96.5867 46.8278 96.5338 46.6163 96.5338 46.3675C96.5338 46.1187 96.5929 45.8947 96.708 45.7237C96.8231 45.5526 96.991 45.422 97.215 45.3349C97.4389 45.2478 97.7033 45.2011 98.0174 45.2011H99.0003V45.6894H97.9894C97.7282 45.6894 97.526 45.7517 97.386 45.8792C97.2461 46.0067 97.1745 46.1684 97.1745 46.3675C97.1745 46.5665 97.243 46.7283 97.386 46.8496C97.526 46.9709 97.7282 47.0331 97.9894 47.0331C98.1418 47.0331 98.2911 47.0051 98.4311 46.9491C98.571 46.8931 98.6892 46.7967 98.7794 46.663C98.8727 46.5292 98.9225 46.3457 98.9318 46.1093L99.1091 46.3675C99.0874 46.6256 99.0251 46.8403 98.9225 47.0144C98.8199 47.1886 98.6799 47.3223 98.5026 47.4125C98.3222 47.5027 98.1076 47.5494 97.8526 47.5494H97.8495ZM99.0376 47.453V46.3675H98.9287V45.1109C98.9287 44.8621 98.8634 44.6755 98.7359 44.548C98.6084 44.4205 98.4186 44.3582 98.1698 44.3582C98.0299 44.3582 97.8837 44.3582 97.7344 44.3645C97.5851 44.3676 97.442 44.3738 97.3052 44.3769C97.1683 44.38 97.0532 44.3893 96.9537 44.3987V43.8295C97.0532 43.8202 97.159 43.8139 97.2709 43.8046C97.3829 43.7984 97.4949 43.7922 97.6131 43.7922C97.7313 43.7922 97.8432 43.7891 97.9521 43.7891C98.3222 43.7891 98.627 43.8326 98.8634 43.9228C99.0998 44.0099 99.274 44.1561 99.3859 44.3551C99.4979 44.5542 99.557 44.8248 99.557 45.1638V47.4592H99.0407L99.0376 47.453Z" fill="white"/>
<path d="M100.111 48.8372V48.2525H100.49C100.661 48.2525 100.795 48.2058 100.888 48.1094C100.981 48.013 101.028 47.8823 101.028 47.7144V43.8234H101.653V47.618C101.653 47.9197 101.613 48.1623 101.529 48.3364C101.445 48.5106 101.311 48.6381 101.128 48.7159C100.944 48.7936 100.702 48.831 100.397 48.831H100.111V48.8372ZM100.456 44.3428V43.8265H101.65V44.3428H100.456ZM101.184 43.1889C101.037 43.1889 100.932 43.1516 100.86 43.0738C100.789 42.9961 100.754 42.8997 100.754 42.7815C100.754 42.6633 100.789 42.5669 100.86 42.4891C100.929 42.4113 101.037 42.374 101.184 42.374C101.33 42.374 101.436 42.4113 101.507 42.4891C101.576 42.5669 101.613 42.6633 101.613 42.7815C101.613 42.8997 101.579 42.9961 101.507 43.0738C101.436 43.1516 101.33 43.1889 101.184 43.1889Z" fill="white"/>
<path d="M103.905 47.5494C103.635 47.5494 103.401 47.5027 103.202 47.4094C103.006 47.3161 102.854 47.1824 102.748 47.0051C102.642 46.8278 102.59 46.6163 102.59 46.3675C102.59 46.1187 102.649 45.8947 102.764 45.7237C102.879 45.5526 103.047 45.422 103.271 45.3349C103.492 45.2478 103.759 45.2011 104.073 45.2011H105.056V45.6894H104.045C103.784 45.6894 103.582 45.7517 103.442 45.8792C103.302 46.0067 103.23 46.1684 103.23 46.3675C103.23 46.5665 103.299 46.7283 103.442 46.8496C103.582 46.9709 103.784 47.0331 104.045 47.0331C104.198 47.0331 104.347 47.0051 104.487 46.9491C104.627 46.8931 104.745 46.7967 104.835 46.663C104.928 46.5292 104.978 46.3457 104.988 46.1093L105.165 46.3675C105.143 46.6256 105.081 46.8403 104.978 47.0144C104.876 47.1886 104.736 47.3223 104.558 47.4125C104.378 47.5027 104.163 47.5494 103.908 47.5494H103.905ZM105.093 47.453V46.3675H104.984V45.1109C104.984 44.8621 104.919 44.6755 104.792 44.548C104.664 44.4205 104.474 44.3582 104.226 44.3582C104.086 44.3582 103.939 44.3582 103.79 44.3645C103.641 44.3676 103.498 44.3738 103.361 44.3769C103.224 44.38 103.109 44.3893 103.009 44.3987V43.8295C103.109 43.8202 103.215 43.8139 103.327 43.8046C103.439 43.7984 103.551 43.7922 103.669 43.7922C103.787 43.7922 103.899 43.7891 104.008 43.7891C104.378 43.7891 104.683 43.8326 104.919 43.9228C105.156 44.0099 105.33 44.1561 105.442 44.3551C105.554 44.5542 105.613 44.8248 105.613 45.1638V47.4592H105.096L105.093 47.453Z" fill="white"/>
<path d="M106.804 47.4532V43.8266H107.32V45.3195H107.292C107.292 44.7908 107.41 44.402 107.641 44.1563C107.874 43.9105 108.222 43.7861 108.689 43.7861H108.81V44.3709H108.58C108.216 44.3709 107.939 44.4673 107.743 44.6601C107.547 44.853 107.451 45.1298 107.451 45.4906V47.4532H106.798H106.804Z" fill="white"/>
<path d="M110.58 47.5494C110.309 47.5494 110.073 47.5027 109.877 47.4094C109.681 47.3161 109.529 47.1824 109.423 47.0051C109.317 46.8278 109.264 46.6163 109.264 46.3675C109.264 46.1187 109.323 45.8947 109.438 45.7237C109.553 45.5526 109.721 45.422 109.942 45.3349C110.163 45.2478 110.431 45.2011 110.745 45.2011H111.731V45.6894H110.72C110.459 45.6894 110.256 45.7517 110.116 45.8792C109.976 46.0067 109.905 46.1684 109.905 46.3675C109.905 46.5665 109.976 46.7283 110.116 46.8496C110.256 46.9709 110.459 47.0331 110.72 47.0331C110.875 47.0331 111.022 47.0051 111.161 46.9491C111.301 46.8931 111.42 46.7967 111.51 46.663C111.603 46.5292 111.653 46.3457 111.662 46.1093L111.84 46.3675C111.818 46.6256 111.756 46.8403 111.653 47.0144C111.55 47.1886 111.41 47.3223 111.233 47.4125C111.056 47.5027 110.838 47.5494 110.586 47.5494H110.58ZM111.768 47.453V46.3675H111.659V45.1109C111.659 44.8621 111.594 44.6755 111.466 44.548C111.339 44.4205 111.149 44.3582 110.9 44.3582C110.76 44.3582 110.614 44.3582 110.465 44.3645C110.316 44.3707 110.172 44.3738 110.036 44.3769C109.899 44.38 109.784 44.3893 109.684 44.3987V43.8295C109.784 43.8202 109.889 43.8139 109.998 43.8046C110.11 43.7984 110.222 43.7922 110.34 43.7922C110.459 43.7922 110.571 43.7891 110.679 43.7891C111.05 43.7891 111.354 43.8326 111.588 43.9228C111.824 44.0099 111.998 44.1561 112.11 44.3551C112.222 44.5542 112.278 44.8248 112.278 45.1638V47.4592H111.762L111.768 47.453Z" fill="white"/>
<path d="M113.479 47.453V43.8265H113.995V45.3816H113.914C113.914 45.0239 113.964 44.7222 114.06 44.4765C114.157 44.2308 114.306 44.0411 114.505 43.9135C114.704 43.7829 114.956 43.7207 115.258 43.7207H115.286C115.743 43.7207 116.082 43.8638 116.3 44.1499C116.52 44.4361 116.629 44.8466 116.629 45.3847V47.4561H115.976V45.251C115.976 44.971 115.895 44.744 115.74 44.576C115.581 44.405 115.363 44.321 115.087 44.321C114.81 44.321 114.57 44.4081 114.393 44.5854C114.216 44.7626 114.129 44.9959 114.129 45.2914V47.4561H113.476L113.479 47.453Z" fill="white"/>
<path d="M3.241 34.0482C2.26126 34.0482 1.53967 33.7745 1.07935 33.224C0.619028 32.6766 0.441742 31.9052 0.544381 30.9099L2.80245 9.1535C3.01706 7.08828 4.14298 6.05566 6.18332 6.05566H15.5919C18.6369 6.05566 20.9074 6.83323 22.3972 8.38838C23.887 9.94352 24.4904 12.1083 24.2012 14.8764C23.915 17.6477 22.8607 19.8155 21.0474 21.3831C19.231 22.9507 16.8018 23.7345 13.7569 23.7345H7.29058L6.54722 30.9099C6.44459 31.9021 6.11179 32.6735 5.55193 33.224C4.99208 33.7745 4.22073 34.0482 3.241 34.0482ZM7.78201 19.0318H13.2406C16.4161 19.0318 18.1486 17.6477 18.4347 14.8764C18.7178 12.158 17.2715 10.7988 14.0959 10.7988H8.63733L7.78201 19.0318Z" fill="white"/>
<path d="M31.7685 34.045C29.2336 34.045 27.4421 33.3358 26.3908 31.9175C25.3395 30.4993 24.9601 28.3718 25.2556 25.5321L26.2166 16.2822C26.4312 14.2076 27.5509 13.1719 29.5726 13.1719C31.5943 13.1719 32.5367 14.2107 32.3221 16.2822L31.3455 25.697C31.0998 28.0701 31.9862 29.2583 34.0079 29.2583C35.168 29.2583 36.1602 28.8415 36.9875 28.011C37.8149 27.1775 38.3001 26.0795 38.44 24.7141L39.314 16.2822C39.5286 14.2076 40.6483 13.1719 42.67 13.1719C44.6917 13.1719 45.6341 14.2107 45.4195 16.2822L43.911 30.8134C43.6933 32.9159 42.5985 33.9641 40.6328 33.9641C39.6624 33.9641 38.9501 33.6904 38.4929 33.1461C38.0388 32.6018 37.8615 31.8367 37.9642 30.8538C36.4215 32.9813 34.3594 34.045 31.7716 34.045H31.7685Z" fill="white"/>
<path d="M54.6042 33.9216C53.4191 33.9216 52.2093 33.8127 50.9807 33.595C49.749 33.3773 48.648 33.0071 47.6807 32.4908C47.0431 32.1363 46.6512 31.6853 46.5081 31.141C46.3619 30.5967 46.4117 30.0617 46.6543 29.5454C46.8969 29.026 47.2732 28.6372 47.7864 28.379C48.2996 28.1209 48.8626 28.1271 49.4815 28.4008C50.539 28.8642 51.5219 29.1939 52.4332 29.3837C53.3445 29.5734 54.2278 29.6698 55.0925 29.6698C56.2246 29.6698 57.0799 29.4863 57.6554 29.1162C58.2339 28.7492 58.5511 28.264 58.6133 27.6637C58.7128 26.7088 58.0877 26.1085 56.7378 25.8628L52.5732 25.0853C50.906 24.7836 49.6775 24.1708 48.8844 23.244C48.0912 22.3171 47.774 21.101 47.9295 19.6018C48.0726 18.2364 48.5702 17.0638 49.4255 16.081C50.2809 15.0981 51.3975 14.3361 52.7753 13.7887C54.1532 13.2444 55.7021 12.9707 57.4283 12.9707C59.7983 12.9707 61.8542 13.4341 63.5898 14.3641C64.1776 14.6658 64.5197 15.0888 64.6099 15.6331C64.7001 16.1774 64.6099 16.7124 64.3425 17.2287C64.0719 17.7481 63.6831 18.1369 63.1699 18.395C62.6567 18.6532 62.0813 18.6345 61.4375 18.3328C60.5915 17.9223 59.8139 17.6299 59.1047 17.4526C58.3956 17.2753 57.7176 17.1851 57.0706 17.1851C55.8576 17.1851 54.9618 17.3842 54.3802 17.7792C53.7986 18.1742 53.4782 18.675 53.416 19.2721C53.3165 20.227 53.8888 20.8273 55.1298 21.073L59.2945 21.8506C61.0145 22.1523 62.2866 22.7432 63.1108 23.6296C63.935 24.5161 64.2678 25.7229 64.1092 27.2531C63.8915 29.3557 62.9117 30.9917 61.1731 32.1643C59.4344 33.3368 57.2448 33.9247 54.6042 33.9247V33.9216Z" fill="white"/>
<path d="M86.4316 13.5019C86.018 13.0789 85.3928 12.8674 84.5561 12.8674C83.7195 12.8674 83.001 13.0384 82.4816 13.3775C81.9622 13.7196 81.3681 14.2297 80.7056 14.9139L74.1585 21.5046H74.0776L75.2377 10.3356C75.2471 10.2765 75.2595 10.2205 75.2657 10.1583L75.3373 9.53004L75.3715 9.14437C75.3932 8.89866 76.0993 1.35933 76.0993 1.35933C76.1864 0.444911 75.7883 -0.00918994 74.9112 0.000140905C74.0185 0.00947175 73.5302 0.469793 73.4462 1.38422L73.3 2.89581C73.2378 3.55208 72.7651 4.08394 72.1337 4.24567C71.0731 4.51938 69.577 5.25652 69.4557 7.21599L67.039 30.5058C66.8213 32.6083 67.7357 33.6565 69.7854 33.6565C71.8351 33.6565 72.9268 32.6052 73.1445 30.5058L73.7572 24.6118H73.8381L79.2282 31.4886C79.7445 32.2258 80.2484 32.7701 80.7367 33.1246C81.225 33.4792 81.9404 33.6565 82.8859 33.6565C83.6386 33.6565 84.2824 33.4574 84.8081 33.0624C85.3337 32.6674 85.6634 32.1636 85.794 31.5477C85.9247 30.935 85.7691 30.3005 85.3244 29.6442L80.1706 22.8078L85.9527 16.9543C86.5529 16.354 86.8888 15.7319 86.9542 15.0912C87.0195 14.4505 86.8453 13.9186 86.4316 13.4957V13.5019Z" fill="white"/>
<path d="M114.474 34.0045C112.371 34.0045 111.429 32.9533 111.647 30.8538L113.155 16.3226C113.37 14.248 114.474 13.2123 116.471 13.2123C118.468 13.2123 119.354 14.2511 119.139 16.3226L119.062 17.0597C120.284 14.6306 122.427 13.3212 125.494 13.1314C126.172 13.0786 126.673 13.2496 126.996 13.6446C127.319 14.0396 127.447 14.6897 127.382 15.5886C127.347 16.4346 127.108 17.1033 126.669 17.5947C126.228 18.0861 125.543 18.3878 124.613 18.4967L123.674 18.5775C120.623 18.8792 118.953 20.4344 118.66 23.243L117.87 30.8569C117.653 32.9595 116.517 34.0076 114.471 34.0076L114.474 34.0045Z" fill="white"/>
<path d="M124.996 41.1153C124.1 41.1682 123.447 40.9847 123.033 40.5617C122.62 40.1387 122.415 39.6411 122.421 39.0688C122.427 38.4965 122.607 37.9771 122.965 37.5136C123.323 37.0502 123.817 36.7765 124.446 36.6956C125.506 36.6148 126.296 36.3193 126.822 35.8154C127.344 35.3116 127.662 34.5402 127.77 33.5014L129.577 16.1056C129.792 14.031 130.924 12.9953 132.974 12.9953C135.024 12.9953 135.898 14.0341 135.683 16.1056L133.938 32.9291C133.658 35.6319 132.797 37.638 131.353 38.9475C129.91 40.2569 127.792 40.9785 125.005 41.1185L124.996 41.1153ZM133.276 9.63618C132.171 9.63618 131.341 9.37181 130.79 8.83684C130.24 8.30498 130.016 7.54608 130.116 6.56634C130.221 5.5555 130.604 4.78726 131.266 4.2554C131.929 3.72354 132.812 3.45605 133.916 3.45605C136.233 3.45605 137.285 4.49489 137.07 6.56634C136.859 8.6129 135.593 9.63618 133.276 9.63618Z" fill="white"/>
<path d="M144.435 34.3155C142.952 34.3155 141.676 34.0293 140.603 33.457C139.53 32.8847 138.716 32.1072 138.156 31.1243C137.596 30.1415 137.381 29.0373 137.509 27.8088C137.658 26.3625 138.156 25.2024 139.002 24.3284C139.848 23.4544 141.138 22.8354 142.874 22.4653C144.609 22.0983 146.88 21.9117 149.682 21.9117H151.138L151.21 21.215C151.334 20.0144 151.154 19.1622 150.665 18.6583C150.177 18.1545 149.287 17.9025 147.993 17.9025C147.266 17.9025 146.46 17.9927 145.58 18.1669C144.7 18.3442 143.739 18.6365 142.7 19.0471C141.91 19.3737 141.275 19.3955 140.793 19.1093C140.311 18.8232 140.019 18.3877 139.919 17.7999C139.82 17.212 139.925 16.618 140.246 16.0208C140.563 15.4205 141.114 14.9851 141.897 14.7114C143.216 14.2199 144.445 13.8716 145.583 13.6663C146.721 13.461 147.763 13.3584 148.709 13.3584C151.782 13.3584 153.999 14.0613 155.362 15.4672C156.724 16.873 157.253 19.0502 156.948 21.9957L156.006 31.0839C155.788 33.1864 154.737 34.2346 152.849 34.2346C150.961 34.2346 150.087 33.1833 150.304 31.0839L150.329 30.8382C149.813 31.9019 149.045 32.7479 148.025 33.3762C147.001 34.0044 145.804 34.3186 144.429 34.3186L144.435 34.3155ZM146.239 30.1819C147.371 30.1819 148.37 29.7869 149.234 28.9938C150.096 28.2038 150.594 27.1774 150.724 25.9239L150.808 25.1059H149.393C147.319 25.1059 145.829 25.2894 144.93 25.6596C144.028 26.0266 143.533 26.6611 143.44 27.5631C143.359 28.3282 143.558 28.9565 144.034 29.4448C144.51 29.9362 145.244 30.1819 146.242 30.1819H146.239Z" fill="white"/>
<path d="M162.074 34.1207C159.971 34.1207 159.029 33.0695 159.246 30.97L160.755 16.4388C160.97 14.3642 162.074 13.3285 164.071 13.3285C166.067 13.3285 166.954 14.3673 166.739 16.4388L166.661 17.1759C167.884 14.7468 170.027 13.4374 173.093 13.2476C173.771 13.1948 174.272 13.3658 174.596 13.7608C174.919 14.1558 175.047 14.8059 174.981 15.7048C174.947 16.5508 174.708 17.2195 174.269 17.7109C173.827 18.2023 173.143 18.504 172.213 18.6129L171.274 18.6937C168.223 18.9954 166.553 20.5506 166.26 23.3592L165.47 30.9731C165.252 33.0757 164.117 34.1239 162.071 34.1239L162.074 34.1207Z" fill="white"/>
<path d="M97.7811 34.1674C92.0862 34.1674 87.9153 29.7073 88.4845 24.227L88.6151 22.9673C88.7924 21.2722 90.2915 19.8975 91.9649 19.8975C93.6382 19.8975 94.8543 21.2722 94.677 22.9673L94.5464 24.227C94.3287 26.3233 96.0642 28.0277 98.4156 28.0277C100.767 28.0277 102.857 26.3233 103.075 24.227L103.205 22.9673C103.383 21.2722 104.882 19.8975 106.555 19.8975C108.229 19.8975 109.445 21.2722 109.267 22.9673L109.137 24.227C108.568 29.7073 103.47 34.1674 97.778 34.1674H97.7811Z" fill="white"/>
<path d="M103.737 16.9392C102.932 16.9392 102.328 16.7464 101.927 16.3576C101.526 15.9688 101.361 15.4183 101.436 14.7029C101.513 13.9689 101.79 13.406 102.272 13.0172C102.754 12.6284 103.398 12.4355 104.204 12.4355C105.893 12.4355 106.658 13.1913 106.502 14.7029C106.347 16.1928 105.426 16.9392 103.737 16.9392Z" fill="white"/>
<path d="M94.8636 17.0222C94.0581 17.0222 93.4547 16.8294 93.0534 16.4406C92.6522 16.0518 92.4874 15.5013 92.562 14.786C92.6367 14.0706 92.9166 13.489 93.3987 13.1002C93.8808 12.7114 94.5246 12.5186 95.3302 12.5186C97.019 12.5186 97.7842 13.2744 97.6287 14.786C97.4732 16.2758 96.5525 17.0222 94.8636 17.0222Z" fill="white"/>
</g>
<defs>
<clipPath id="clip0_321_5072">
<rect width="175" height="48.8376" fill="white"/>
</clipPath>
</defs>
</svg>
