<svg width="153" height="144" viewBox="0 0 153 144" fill="none" xmlns="http://www.w3.org/2000/svg">
<g clip-path="url(#clip0_496_832)">
<path d="M109.226 37.4404C109.592 37.1229 110.023 36.8881 110.488 36.7521C110.953 36.616 111.442 36.5819 111.921 36.652C112.391 36.7185 112.841 36.8895 113.237 37.1526C113.632 37.4156 113.964 37.7639 114.207 38.172C114.489 38.735 114.65 39.351 114.678 39.98C114.883 42.4414 114.408 44.9119 113.304 47.1215C112.784 48.2382 112.029 49.2295 111.09 50.0278C110.328 50.6459 109.418 51.0559 108.45 51.2177L107.998 51.2875C107.782 52.0981 107.538 52.7814 107.419 53.1438C106.649 55.2319 102.343 62.4605 96.9236 65.09C96.9101 66.914 96.8744 69.0025 97.5101 70.5809C98.5979 73.2651 104.457 76.6477 104.861 76.8231C104.861 76.8231 101.678 89.0653 86.5411 89.0653C67.2931 89.0653 68.0781 76.3513 68.0781 76.3513C68.4818 76.176 73.4251 73.2651 74.5112 70.5809C75.2348 68.7897 75.0877 66.3371 75.0999 64.3614C73.1798 63.1496 71.4694 61.634 70.0354 59.8738C67.9959 57.3721 66.5079 54.4677 65.6689 51.351L64.8099 51.2181C63.8418 51.0563 62.9322 50.6463 62.1698 50.0282C61.2313 49.2299 60.4761 48.2386 59.9556 47.122C58.8517 44.9124 58.3765 42.4418 58.582 39.9804C58.6104 39.3514 58.7707 38.7355 59.0524 38.1724C59.2958 37.7643 59.6275 37.416 60.0232 37.153C60.4189 36.8899 60.8685 36.7189 61.3389 36.6524C61.8184 36.5823 62.3073 36.6164 62.7723 36.7525C63.2374 36.8885 63.6676 37.1233 64.0337 37.4408C64.0337 37.4408 66.1734 17.3691 86.7294 17.3691C107.285 17.3691 109.226 37.4404 109.226 37.4404Z" fill="white"/>
<path d="M112.677 22.2273C112.486 21.4025 112.238 20.592 111.935 19.8017C110.817 16.948 109.106 13.6541 105.64 11.7519L101.573 8.69389C97.516 1.97614 90.0376 0.663038 83.6617 1.10873C76.0917 1.63977 70.6963 3.67103 65.7769 9.44946C58.608 17.8697 58.4075 29.0082 61.1161 36.6955C61.1815 36.6766 61.2483 36.6626 61.3158 36.6534C61.7916 36.5838 62.2768 36.6177 62.7383 36.7527C63.1998 36.8878 63.6267 37.1208 63.9899 37.4359L67.5399 33.5735C69.0242 31.4628 73.233 26.231 76.4323 25.5915C78.7196 25.1344 81.1575 25.6297 83.5301 25.5343C87.8315 25.3615 91.3886 23.3243 95.2035 21.838C95.7114 21.6404 96.2239 21.452 96.7432 21.2796C97.0301 21.1639 97.3392 21.1132 97.648 21.1312C98.0029 21.1996 98.3244 21.3856 98.5604 21.6593C102.99 25.9817 107.15 32.1944 107.901 38.675C108.586 38.0515 109.268 37.4359 109.268 37.4359C109.631 37.1208 110.058 36.8878 110.519 36.7527C110.981 36.6177 111.466 36.5838 111.942 36.6534C112.042 36.6679 112.141 36.6888 112.239 36.7161C113.718 32.1326 113.674 26.4471 112.677 22.2273Z" fill="#7A7473"/>
<path d="M95.9132 65.1645C95.842 66.7202 95.9459 68.279 96.2231 69.8115C96.4757 70.9255 97.0165 71.9537 97.7914 72.793C99.1836 74.3739 100.987 75.6307 102.757 76.755C103.266 77.1047 103.799 77.4188 104.351 77.6952C104.584 77.8224 104.857 77.8558 105.113 77.7885C105.37 77.7212 105.591 77.5583 105.732 77.3331C105.865 77.1015 105.901 76.8269 105.834 76.5686C105.766 76.3103 105.599 76.089 105.37 75.9523C104.772 75.6527 104.196 75.3107 103.646 74.9289C102.613 74.2789 101.625 73.561 100.687 72.78C99.8063 72.0328 98.9006 71.2503 98.4558 70.2391C97.791 68.7275 97.9205 66.8022 97.9323 65.1645C97.942 63.8657 95.9237 63.8645 95.9141 65.1645H95.9132Z" fill="#211715"/>
<path d="M74.0916 64.9456C74.1 66.5236 74.1841 68.1689 73.7477 69.7027C73.391 70.7353 72.7583 71.6504 71.9182 72.3487C71.085 73.1271 70.1878 73.834 69.2361 74.4619C68.7089 74.8461 68.1513 75.1868 67.5689 75.4807C67.3393 75.6171 67.1726 75.8384 67.1049 76.0967C67.0371 76.355 67.0738 76.6296 67.2069 76.8611C67.3462 77.0875 67.5674 77.2515 67.8245 77.3189C68.0816 77.3864 68.3548 77.352 68.5873 77.2231C69.2371 76.8947 69.8578 76.5114 70.4424 76.0774C71.5462 75.3414 72.5824 74.5087 73.5387 73.5891C74.5366 72.6792 75.2796 71.5245 75.694 70.2392C76.1796 68.5317 76.1195 66.7023 76.1098 64.9456C76.1031 63.6472 74.0849 63.6443 74.0916 64.9456Z" fill="#211715"/>
<path d="M61.9608 36.0514C59.1567 27.6182 60.3942 17.7091 66.0452 10.7013C68.7845 7.30391 72.2516 4.66298 76.4466 3.36585C78.5812 2.73093 80.7783 2.32956 82.9995 2.16879C85.0405 1.97721 87.0958 1.99834 89.1324 2.23186C91.3765 2.4859 93.5519 3.16408 95.5428 4.23032C97.6662 5.41036 99.4446 7.12454 100.702 9.20314C101.378 10.3098 103.124 9.2969 102.445 8.18436C99.9694 4.13277 95.9384 1.54104 91.3285 0.568505C86.8791 -0.37081 82.0728 -0.0777466 77.6634 0.946922C73.1602 1.98859 69.0743 4.36057 65.9367 7.75464C62.4088 11.5378 60.0214 16.2406 59.0495 21.3213C58.0724 26.4099 58.4052 31.6633 60.0166 36.5879C60.4244 37.8144 62.3741 37.2888 61.9625 36.0514H61.9608Z" fill="#211715"/>
<path d="M68.412 34.081C69.9241 31.8905 71.7186 29.909 73.7489 28.1878C74.769 27.3469 75.8092 26.68 77.0836 26.4954C79.117 26.2011 81.192 26.593 83.2337 26.5505C87.16 26.4664 90.6679 24.8064 94.2179 23.318C95.1631 22.9219 96.1188 22.5258 97.0989 22.2248C97.4694 22.1104 97.5686 22.1087 97.8474 22.3728C98.1703 22.6785 98.478 23.0005 98.7867 23.3222C100.055 24.6451 101.22 26.0638 102.271 27.5655C104.613 30.9313 106.478 34.8034 106.919 38.9231C106.926 39.1883 107.035 39.4406 107.223 39.6283C107.41 39.8159 107.663 39.9247 107.928 39.9322C108.195 39.9304 108.451 39.8235 108.64 39.6347C108.828 39.4458 108.935 39.1901 108.937 38.9231C108.439 34.9249 107.025 31.0957 104.804 27.7337C103.713 26.027 102.487 24.4101 101.138 22.8984C100.526 22.2092 99.8954 21.5256 99.2223 20.8953C98.3427 20.072 97.3937 19.9942 96.279 20.3714C92.4309 21.6748 88.8297 23.9033 84.7424 24.4259C82.5526 24.7059 80.3649 24.3212 78.1709 24.3935C76.5236 24.4027 74.9162 24.9018 73.5534 25.8273C70.8174 27.6946 68.5655 30.3742 66.6671 33.0635C66.5342 33.2951 66.4978 33.5697 66.5655 33.828C66.6332 34.0863 66.7997 34.3076 67.0291 34.4443C67.2615 34.5737 67.5349 34.6084 67.7923 34.5409C68.0496 34.4734 68.2709 34.3091 68.4099 34.0823L68.412 34.081Z" fill="#211715"/>
<path d="M105.132 12.6231C107.921 14.1813 109.669 16.8546 110.839 19.7583C112.089 22.8593 112.466 26.2755 112.373 29.5972C112.327 31.6793 112.026 33.748 111.477 35.757C111.126 37.0095 113.074 37.5444 113.423 36.2935C114.45 32.439 114.683 28.4161 114.108 24.4688C113.7 21.1205 112.523 17.9121 110.669 15.0946C109.51 13.3574 107.963 11.9141 106.149 10.879C105.014 10.2445 103.995 11.9873 105.131 12.6214L105.132 12.6231Z" fill="#211715"/>
<path d="M54.4665 151.007C54.4875 150.439 54.5043 149.939 54.5253 149.523C54.3992 142.144 54.0952 132.153 53.6487 121.947L53.4363 122.224L52.7367 123.139C50.8286 125.548 46.8451 130.254 44.3013 132.48C41.7651 134.699 37.7976 136.058 34.4583 135.525C29.2588 134.684 26.985 129.738 24.8621 124.912C21.8091 117.971 19.6386 110.505 17.4682 103.572C21.8171 102.626 28.7421 99.4517 33.0909 97.1644C34.809 101.389 36.3239 105.153 38.0566 109.212C41.176 101.127 41.9787 96.7065 45.0393 88.7131C45.6073 87.2297 46.0332 85.896 47.1172 84.733C48.1347 83.6423 49.481 82.9616 50.8404 82.3473C55.0177 80.4594 65.0251 76.629 70.0888 74.3585C71.0171 72.1077 72.3982 70.0717 74.1462 68.377C76.9706 71.2019 80.2732 73.5039 83.901 75.1763C84.1028 75.2679 84.3282 75.3802 84.3934 75.5921C84.4252 75.7834 84.3849 75.9797 84.2803 76.1429C84.1199 76.4073 83.9414 76.6602 83.7458 76.8997L88.1607 76.8943C87.9661 76.6568 87.7884 76.406 87.6288 76.1438C87.5245 75.9804 87.4843 75.7842 87.5161 75.5929C87.5813 75.3827 87.8067 75.2688 88.0085 75.1771C91.6362 73.5048 94.9389 71.2027 97.7632 68.3778C99.412 69.9693 100.732 71.8694 101.648 73.97C106.089 75.7477 117.415 80.1033 121.682 82.1648C123.052 82.827 124.555 83.4215 125.592 84.5345C126.698 85.7198 127.34 87.3134 127.92 88.827C131.003 96.8793 132.299 104.787 133.981 113.57H120.43C119.91 126.444 119.428 140.641 119.23 150.427C119.225 150.625 119.225 150.818 119.221 151.008L54.4665 151.007Z" fill="white"/>
<path d="M87.5569 150.248C89.7678 147.817 91.8404 145.265 93.7651 142.602C94.3335 141.774 94.8192 141.327 94.873 140.707C94.8935 139.897 94.8464 139.088 94.7321 138.286C93.5494 124.996 91.7956 104.22 89.5369 84.8292C89.6023 84.0375 89.7789 83.259 90.0616 82.5166C90.3871 81.5176 91.0674 79.2256 90.7091 80.0409C90.3454 79.6007 89.9864 79.1638 89.6483 78.7505C89.0571 78.0269 88.5311 77.3739 88.162 76.895L83.7471 76.9005C83.3784 77.379 82.8541 78.0298 82.265 78.7505C82.0287 79.0394 81.7823 79.3392 81.5313 79.6444C81.723 80.6733 82.0926 81.7682 82.3339 82.8017C82.376 83.0069 82.429 83.2041 82.4803 83.4093C82.6077 83.8472 82.6814 84.299 82.6997 84.7547C81.0599 102.609 78.9505 124.679 77.4759 139.95C77.3726 140.529 77.4191 141.125 77.6109 141.681C77.8625 142.166 78.1622 142.623 78.5056 143.048C80.3641 145.623 82.4163 148.052 84.6444 150.315C85.0147 150.693 85.4959 150.944 86.018 151.03C86.3068 151.016 86.5895 150.942 86.8485 150.814C87.1075 150.685 87.3372 150.505 87.5233 150.284L87.5569 150.248Z" fill="#65A0D4"/>
<path d="M83.0105 85.702C85.1178 85.702 87.2252 85.6553 89.3325 85.6545C89.6002 85.6545 89.8568 85.5481 90.0461 85.3589C90.2353 85.1696 90.3417 84.913 90.3417 84.6453C90.3417 84.3777 90.2353 84.121 90.0461 83.9318C89.8568 83.7425 89.6002 83.6362 89.3325 83.6362C87.2252 83.6362 85.1178 83.6829 83.0105 83.6837C82.7428 83.6837 82.4862 83.7901 82.2969 83.9793C82.1077 84.1686 82.0013 84.4252 82.0013 84.6929C82.0013 84.9605 82.1077 85.2172 82.2969 85.4064C82.4862 85.5956 82.7428 85.702 83.0105 85.702Z" fill="#211715"/>
<path d="M80.5743 80.0044C80.8417 81.3041 81.247 82.5743 81.5535 83.8655C81.8302 85.0319 81.5477 86.3072 81.4383 87.4891C81.2099 89.9631 80.9802 92.4371 80.7492 94.9111C80.271 100.041 79.7889 105.169 79.3028 110.296C78.3988 119.841 77.4863 129.386 76.5652 138.929C76.4458 140.165 76.254 141.372 76.8994 142.503C77.6257 143.658 78.4353 144.759 79.3217 145.796C80.1627 146.865 81.0392 147.906 81.9513 148.919C82.3819 149.398 82.8191 149.87 83.2631 150.336C83.6912 150.85 84.1974 151.294 84.7634 151.651C85.3289 151.96 85.9842 152.064 86.6176 151.944C87.251 151.825 87.8235 151.49 88.2376 150.996C89.0626 150.122 89.8329 149.185 90.6091 148.267C92.2157 146.368 93.686 144.387 95.1631 142.389C95.4756 142.011 95.7026 141.57 95.8287 141.096C95.9153 140.566 95.9246 140.026 95.8564 139.493C95.7656 138.451 95.6622 137.411 95.5701 136.37C95.3848 134.276 95.2 132.182 95.0155 130.088C94.5917 125.29 94.1593 120.493 93.7184 115.696C93.222 110.342 92.7018 104.99 92.158 99.6392C91.8797 96.9202 91.5922 94.2012 91.2957 91.4822C91.1457 90.1087 90.9927 88.7352 90.8365 87.3617C90.7586 86.6786 90.6803 85.9953 90.6015 85.3119C90.5402 84.6471 90.6253 83.9768 90.8508 83.3484C91.1452 82.3838 91.4735 81.4302 91.7233 80.4522C92.0449 79.1934 90.099 78.656 89.7774 79.9157C89.5272 80.8937 89.1988 81.8473 88.9045 82.8119C88.6765 83.4598 88.5488 84.1389 88.5261 84.8255C88.5379 85.4675 88.6783 86.1369 88.751 86.7752C89.0574 89.4571 89.3529 92.1403 89.6374 94.8245C90.2011 100.127 90.7337 105.433 91.2351 110.743C92.1004 119.829 92.8897 128.923 93.6978 138.014C93.7457 138.555 93.8084 139.095 93.8504 139.636C93.9161 140.015 93.9042 140.403 93.8155 140.777C93.5651 141.213 93.275 141.625 92.9489 142.008C92.618 142.479 92.2871 142.948 91.9424 143.409C90.5039 145.331 88.9352 147.157 87.3488 148.959C87.0545 149.292 86.7143 149.848 86.2615 149.98C85.8969 150.085 85.5467 149.784 85.2915 149.53C84.3593 148.597 83.4725 147.614 82.6089 146.618C81.7453 145.622 80.9199 144.611 80.1315 143.562C79.7657 143.076 79.4067 142.584 79.0497 142.091C78.6507 141.648 78.4343 141.071 78.4442 140.475C78.5228 138.38 78.8395 136.27 79.0404 134.182C79.2566 131.932 79.4724 129.683 79.6879 127.434C80.1535 122.577 80.6168 117.719 81.0776 112.862C81.5541 107.844 82.0273 102.825 82.4971 97.8052C82.7261 95.3541 82.9544 92.9034 83.182 90.4529C83.2896 89.2916 83.3971 88.1304 83.5045 86.9694C83.5572 86.3995 83.6096 85.8298 83.6617 85.2602C83.7141 84.5459 83.643 83.8279 83.4515 83.1377C83.1488 81.9129 82.7733 80.699 82.5189 79.4654C82.2574 78.1939 80.3115 78.7321 80.573 80.0019L80.5743 80.0044Z" fill="#211715"/>
<path d="M88.167 75.8853L83.7631 75.8907C83.4954 75.8907 83.2388 75.997 83.0495 76.1863C82.8603 76.3755 82.754 76.6322 82.754 76.8998C82.754 77.1675 82.8603 77.4241 83.0495 77.6134C83.2388 77.8026 83.4954 77.9089 83.7631 77.9089L88.167 77.9035C88.4346 77.9035 88.6913 77.7972 88.8806 77.6079C89.0698 77.4187 89.1761 77.162 89.1761 76.8944C89.1761 76.6267 89.0698 76.3701 88.8806 76.1808C88.6913 75.9916 88.4346 75.8853 88.167 75.8853Z" fill="#211715"/>
<path d="M94.3794 84.3367C96.7722 81.9401 98.626 79.0977 100.378 76.2167C100.798 75.5209 101.219 74.8221 101.642 74.1266C101.905 73.694 102.288 73.2466 102.138 72.7033C101.984 72.2951 101.781 71.9073 101.533 71.5483C100.708 70.1128 99.6793 68.8044 98.4789 67.6641C98.2875 67.479 98.0316 67.3755 97.7653 67.3755C97.4991 67.3755 97.2432 67.479 97.0518 67.6641C94.6445 70.0777 91.874 72.0994 88.841 73.6557C88.1826 73.9946 87.2298 74.2443 86.7807 74.8654C86.5863 75.1715 86.4934 75.5311 86.5151 75.893C86.5369 76.255 86.6722 76.6009 86.9018 76.8815C87.76 78.137 88.7901 79.2933 89.7564 80.4651C90.821 81.7563 91.8965 83.0387 92.9519 84.3367C93.1419 84.5244 93.3983 84.6297 93.6654 84.6297C93.9325 84.6297 94.1889 84.5244 94.3789 84.3367C94.5627 84.1446 94.6653 83.889 94.6653 83.6232C94.6653 83.3574 94.5627 83.1018 94.3789 82.9097C93.3047 81.5886 92.2098 80.2839 91.1267 78.9695C90.5111 78.2228 89.8964 77.4748 89.2943 76.7171C89.1009 76.4732 88.4887 75.8762 88.5248 75.5928L88.3878 76.1036C88.3411 76.1991 88.2141 76.1848 88.3953 76.1083C88.5164 76.057 88.6346 75.9972 88.754 75.9401C88.9653 75.8417 89.1756 75.7409 89.3847 75.6378C89.8388 75.4135 90.2873 75.1785 90.7302 74.9326C91.6706 74.4113 92.5847 73.8457 93.4724 73.2361C95.2674 72.0145 96.9434 70.6267 98.4785 69.0911H97.0514C98.3734 70.3598 99.4698 71.8442 100.294 73.4808V72.462C98.0651 76.0956 95.988 79.8685 92.9519 82.9097C92.0336 83.8301 93.4602 85.2575 94.3794 84.3367Z" fill="#211715"/>
<path d="M78.9593 82.9098C75.9231 79.8686 73.8465 76.0958 71.6176 72.4622V73.4809C72.4414 71.8444 73.5378 70.36 74.8598 69.0913H73.4327C74.9677 70.627 76.6437 72.0147 78.4388 73.2362C79.3013 73.8271 80.189 74.3779 81.102 74.8886C81.5446 75.1359 81.9931 75.3726 82.4475 75.5988C82.6568 75.7025 82.8671 75.8041 83.0782 75.9036C83.2043 75.9621 83.3283 76.0205 83.454 76.0777C83.4957 76.0958 83.5362 76.1165 83.5751 76.1399C83.6723 76.1963 83.655 76.182 83.523 76.1021L83.3855 75.5929C83.4217 75.8751 82.8095 76.4734 82.6161 76.7172C82.014 77.4741 81.3992 78.2229 80.7837 78.9697C79.7006 80.284 78.6057 81.5887 77.5314 82.9098C77.3492 83.1027 77.2476 83.358 77.2476 83.6234C77.2476 83.8887 77.3492 84.144 77.5314 84.3369C77.7216 84.5244 77.9779 84.6295 78.2449 84.6295C78.512 84.6295 78.7683 84.5244 78.9585 84.3369C80.8926 81.96 82.9276 79.6563 84.7709 77.2075C85.1577 76.7825 85.3846 76.2362 85.4126 75.6623C85.3861 74.6633 84.4569 74.3395 83.7021 73.9725C82.1717 73.2247 80.7009 72.3604 79.3028 71.3875C77.7109 70.2847 76.2234 69.0384 74.8589 67.6642C74.6674 67.4793 74.4116 67.376 74.1454 67.376C73.8792 67.376 73.6234 67.4793 73.4319 67.6642C72.2315 68.8047 71.2028 70.113 70.3776 71.5485C70.1297 71.9074 69.9265 72.2953 69.7726 72.7035C69.6313 73.2165 69.9689 73.634 70.2195 74.046C70.6593 74.7684 71.0941 75.4941 71.5331 76.2169C73.2839 79.0979 75.1385 81.9402 77.5314 84.3369C78.451 85.2573 79.8784 83.8306 78.9593 82.9098Z" fill="#211715"/>
<path d="M50.0045 84.1743C51.0216 92.1454 51.4921 100.194 51.9508 108.214C52.4991 117.798 52.9166 127.389 53.2034 136.987C53.2782 139.383 53.3451 141.78 53.4039 144.177C53.459 146.455 53.5402 148.731 53.4565 151.008C53.4086 152.307 55.4268 152.304 55.4747 151.008C55.6261 146.891 55.3944 142.742 55.2716 138.625C55.1315 133.932 54.9633 129.241 54.7671 124.55C54.3756 115.134 53.9018 105.718 53.1874 96.3202C52.8792 92.2657 52.5365 88.209 52.0219 84.1751C52.0137 83.9101 51.9047 83.6582 51.7172 83.4707C51.5297 83.2832 51.2778 83.1742 51.0128 83.166C50.7456 83.1675 50.4897 83.2742 50.3008 83.4632C50.1119 83.6521 50.0051 83.9079 50.0037 84.1751L50.0045 84.1743Z" fill="#211715"/>
<path d="M120.23 151.007C120.306 146.368 120.448 141.73 120.592 137.093C120.756 131.831 120.938 126.57 121.139 121.31C121.334 116.133 121.544 110.957 121.77 105.782C121.96 101.412 122.167 97.0423 122.39 92.674C122.535 89.9069 122.672 87.1365 122.9 84.3745C122.916 84.1827 122.932 83.9914 122.95 83.8001C122.948 83.5331 122.841 83.2775 122.653 83.0886C122.464 82.8998 122.208 82.7929 121.941 82.791C121.675 82.7966 121.422 82.9047 121.234 83.0927C121.046 83.2808 120.938 83.5342 120.932 83.8001C120.698 86.3103 120.578 88.8331 120.442 91.35C120.214 95.5627 120.01 99.7767 119.83 103.992C119.603 109.107 119.393 114.223 119.199 119.339C118.997 124.633 118.81 129.928 118.638 135.224C118.489 139.905 118.359 144.586 118.25 149.268C118.238 149.847 118.227 150.427 118.218 151.007C118.196 152.307 120.214 152.307 120.236 151.007L120.23 151.007Z" fill="#211715"/>
<path d="M25.2279 76.4754C24.286 72.7484 21.64 63.4486 20.6667 62.2061C19.9679 61.3143 19.1404 60.6277 17.6061 61.2811C16.2909 61.842 16.5041 63.3607 16.753 64.6158C17.0267 65.9979 18.656 72.5205 19.6075 75.9065C19.2461 75.5008 18.7668 75.2182 18.2369 75.0981C17.7069 74.9781 17.1527 75.0267 16.6517 75.2371C15.6081 75.7131 15.2057 76.6028 15.3226 77.2457C15.3226 77.2457 15.4147 77.7502 15.548 78.473C15.1729 78.2691 14.7523 78.1635 14.3254 78.1658C13.8985 78.1682 13.4791 78.2785 13.1063 78.4865C12.2053 78.9692 11.2983 80.2608 11.7411 81.1926L12.3365 82.4418L12.1506 82.2891C11.0061 81.3477 9.01816 81.9271 8.69524 83.1822C8.44717 84.1455 8.86595 85.282 9.40204 86.1629C9.46595 86.2676 9.53407 86.3798 9.60597 86.4992L9.71066 86.8217C10.4376 89.0729 11.855 92.5127 13.9733 94.964C14.9572 96.0993 16.0937 97.2282 16.9859 98.4471C17.8782 99.666 18.1006 101.02 18.5362 102.479L18.73 103.124C21.0358 102.272 27.5257 99.8473 30.979 98.2045L30.8562 97.8589C30.5164 96.2914 30.1414 94.2538 30.3642 92.926C30.7615 91.4287 31.2619 89.9607 31.8619 88.5326C32.3525 87.3727 32.5671 86.1147 32.4888 84.8577C32.332 83.4282 31.962 81.3877 30.8999 79.8988C30.6893 79.6088 30.4263 79.3606 30.1246 79.1672C30.0903 79.1423 30.0538 79.1204 30.0157 79.102C28.7505 78.3263 27.0867 78.3229 25.6534 78.3839L25.5335 77.7742C25.4831 77.5148 25.3767 77.0645 25.2279 76.4754Z" fill="white"/>
<path d="M26.5056 77.5031C26.1621 75.7763 25.6458 74.0717 25.1703 72.3781C24.4883 69.9482 23.7798 67.5217 22.967 65.1318C22.3784 63.3953 21.7931 61.1303 19.9582 60.2931C18.3209 59.546 16.0555 60.3982 15.6505 62.2361C15.3827 63.4504 15.7313 64.729 16.0075 65.9147C16.7697 69.1856 17.5986 72.4418 18.4941 75.6833C18.8377 76.9342 20.7852 76.4028 20.44 75.1464C19.6702 72.3428 18.9541 69.5231 18.2684 66.6976C18.048 65.7882 17.8105 64.877 17.6515 63.9541C17.5674 63.4601 17.4859 62.8037 17.7066 62.4509C17.8769 62.272 18.0935 62.1438 18.3322 62.0805C18.571 62.0171 18.8227 62.0212 19.0592 62.0923C19.2757 62.195 19.4669 62.344 19.6193 62.5287C19.6803 62.5935 19.8901 62.8449 19.843 62.781C19.7736 62.6868 19.8791 62.8352 19.893 62.86C20.0213 63.0871 20.1339 63.3175 20.2412 63.5555C20.3526 63.8023 20.2105 63.4714 20.2714 63.6261C20.3034 63.7064 20.3362 63.7863 20.3681 63.8662C20.448 64.0686 20.5254 64.2717 20.6002 64.4755C20.7684 64.9355 20.9303 65.3984 21.0867 65.863C21.8343 68.0835 22.4957 70.3338 23.1323 72.5879C23.641 74.3896 24.1948 76.2039 24.5618 78.0421C24.633 78.3002 24.8037 78.5194 25.0365 78.6515C25.2693 78.7837 25.545 78.818 25.8031 78.7468C26.0611 78.6757 26.2803 78.5049 26.4125 78.2722C26.5446 78.0394 26.5789 77.7637 26.5078 77.5056L26.5056 77.5031Z" fill="#211715"/>
<path d="M8.73729 87.0891C9.56615 89.8338 10.8435 92.4224 12.5177 94.75C13.5318 96.0904 14.7558 97.2492 15.8078 98.5573C16.814 99.8081 17.1205 101.24 17.5632 102.746C17.9286 103.99 19.8758 103.461 19.5091 102.21C19.0571 100.671 18.7246 99.0959 17.7432 97.7849C16.7227 96.42 15.4878 95.2461 14.4148 93.9271C12.6804 91.795 11.5266 89.149 10.6819 86.5526C10.2817 85.3228 8.33239 85.8492 8.73561 87.0891H8.73729Z" fill="#211715"/>
<path d="M26.7579 86.1194C26.6486 85.3584 26.4018 84.6301 26.2239 83.8842C26.0725 83.1894 25.6634 82.5778 25.079 82.1725C24.4599 81.8163 23.7656 81.6111 23.0524 81.5734C22.8197 81.5444 22.5887 81.5032 22.3603 81.4502C22.3347 81.4466 22.3097 81.4397 22.2859 81.4296C22.4213 81.5439 22.1698 81.2311 22.1349 81.1525C22.0383 80.9503 22.0129 80.7213 22.063 80.5029C22.098 80.3602 22.152 80.2228 22.2237 80.0946C22.2686 80.0076 22.3275 79.9264 22.3712 79.839C22.4743 79.6334 22.4112 79.8108 22.3712 79.8331C22.8714 79.6413 23.3994 79.5323 23.9345 79.5102C25.3641 79.371 26.9762 79.2428 28.2888 79.5278C28.9061 79.616 29.4818 79.8903 29.9392 80.3141C30.3419 80.7961 30.6459 81.3525 30.8339 81.9518C31.2631 83.075 31.4885 84.2658 31.4995 85.4681C31.4575 87.3867 30.5324 89.0265 29.9316 90.8253C29.7832 91.2701 29.6373 91.7162 29.5069 92.167C29.4695 92.2977 29.4304 92.4289 29.4035 92.5622C29.3808 92.6753 29.3707 92.7909 29.3556 92.9053C29.393 92.624 29.3211 93.1681 29.3135 93.2698C29.1693 94.8798 29.5477 96.5591 29.8845 98.1245C30.1574 99.3939 32.1033 98.8565 31.8304 97.588C31.5247 96.166 31.1837 94.6578 31.338 93.1946C31.354 93.0461 31.4709 92.8233 31.3612 93.0112C31.2733 93.1613 31.3507 93.0731 31.3767 92.9877C31.4242 92.8283 31.4642 92.6665 31.5121 92.5071C31.6559 92.0299 31.8123 91.5564 31.9725 91.0847C32.1352 90.6045 32.303 90.1256 32.4817 89.6513C32.549 89.473 32.6171 89.2948 32.6919 89.119C32.6247 89.2788 32.6554 89.1985 32.7045 89.1018C32.7537 89.0051 32.7966 88.9189 32.8387 88.8251C33.3774 87.5918 33.6062 86.2455 33.5051 84.9034C33.3956 83.4021 33.0323 81.9303 32.4308 80.5504C32.131 79.8108 31.6549 79.1556 31.044 78.6421C30.4332 78.1285 29.706 77.7721 28.9258 77.6038C27.2795 77.3005 25.5953 77.2627 23.937 77.4919C23.1634 77.5299 22.3999 77.6845 21.6724 77.9507C21.3249 78.1147 21.0161 78.3507 20.7666 78.6431C20.5171 78.9354 20.3326 79.2774 20.2252 79.6464C20.0556 80.101 19.9956 80.5892 20.0499 81.0713C20.1043 81.5535 20.2715 82.016 20.538 82.4215C20.7396 82.7299 21.0098 82.9875 21.3275 83.1742C21.6451 83.3609 22.0016 83.4717 22.3691 83.4978C22.8985 83.5744 23.8487 83.5399 24.1607 84.0533C24.3151 84.4215 24.423 84.8075 24.482 85.2024C24.6231 85.6788 24.7338 86.1638 24.8133 86.6543C24.8858 86.9115 25.0567 87.1297 25.2891 87.2617C25.5214 87.3937 25.7964 87.4288 26.0545 87.3594C26.3082 87.2821 26.5226 87.1104 26.6535 86.8797C26.7844 86.649 26.8218 86.3769 26.7579 86.1194Z" fill="#211715"/>
<path d="M14.1373 86.9188C14.1848 87.087 14.1533 86.738 14.1487 86.9764C14.144 87.2148 14.1953 86.8877 14.1398 87.0605C14.1247 87.1076 14.0095 87.4137 14.0978 87.2198C14.0485 87.3272 13.9923 87.4313 13.9296 87.5314C13.8981 87.5823 13.8636 87.631 13.8304 87.6802C13.8392 87.6672 13.9258 87.5646 13.8522 87.6521C13.7875 87.7302 13.7186 87.8047 13.6458 87.8753C13.6037 87.9144 13.5617 87.9506 13.5217 87.9876C13.5533 87.9594 13.6853 87.8892 13.5352 87.9733C13.5028 87.9914 13.4696 88.012 13.4385 88.0317C13.3149 88.1108 13.3456 88.057 13.4561 88.0317C13.4002 88.0448 13.1555 88.1083 13.2459 88.0919C13.3721 88.0687 13.1803 88.0965 13.15 88.0986C13.1025 88.1011 13.055 88.1028 13.0075 88.1032C12.96 88.1036 12.6072 88.0805 12.7885 88.1032C12.657 88.0845 12.527 88.0564 12.3995 88.0191C12.3318 88.0006 12.1052 87.9224 12.1472 87.9405C12.1981 87.962 11.9753 87.851 11.9244 87.8203C11.8735 87.7896 11.8189 87.7547 11.7684 87.7185C11.8058 87.745 11.8975 87.8375 11.7659 87.7088C11.6763 87.6214 11.5855 87.5364 11.5006 87.4444C11.4156 87.3523 11.3458 87.2682 11.2718 87.1769C11.1638 87.0445 11.3425 87.2737 11.2382 87.1349C11.2067 87.0929 11.1751 87.0508 11.1444 87.0067C10.98 86.7783 10.8249 86.5441 10.6739 86.3057C10.3904 85.8813 10.1361 85.4379 9.9129 84.9788C9.91038 84.9725 9.84269 84.8039 9.88473 84.9115C9.86455 84.8594 9.84521 84.8072 9.82713 84.7547C9.78508 84.6323 9.74556 84.5087 9.71318 84.3838C9.69468 84.3128 9.68123 84.2413 9.66357 84.1702C9.65894 84.1517 9.63077 83.973 9.64927 84.1181C9.63119 83.9772 9.63834 83.8368 9.63245 83.6976C9.63245 83.6736 9.64717 83.4966 9.62615 83.6556C9.63352 83.6045 9.64363 83.5538 9.65642 83.5038C9.67378 83.4532 9.68783 83.4015 9.69847 83.349C9.70772 83.2515 9.6787 83.4029 9.66567 83.4226C9.70141 83.3692 9.87086 83.1317 9.70351 83.3226C9.7691 83.2477 9.83848 83.18 9.90828 83.1123C9.95705 83.0636 10.0445 83.0413 9.88179 83.1304C9.92594 83.106 9.96588 83.0732 10.0079 83.0463C10.05 83.0194 10.0992 82.998 10.1429 82.9715C10.2985 82.8764 10.0445 82.9866 10.153 82.9631C10.2552 82.9408 10.354 82.8945 10.457 82.8701C10.5087 82.8579 10.5629 82.8521 10.6138 82.8382C10.7425 82.8029 10.3838 82.8436 10.6256 82.8411C10.7336 82.8411 10.8409 82.8411 10.9485 82.8411C11.0137 82.8411 11.1167 82.8861 10.9212 82.8344C10.9729 82.8479 11.0271 82.8546 11.0793 82.8676C11.1314 82.8807 11.1827 82.9 11.2348 82.913C11.4068 82.9551 11.1764 82.8563 11.2567 82.9189C11.3097 82.961 11.6027 83.1388 11.4333 83.0055C11.6265 83.1871 11.8817 83.2882 12.1468 83.2882C12.412 83.2882 12.6671 83.1871 12.8604 83.0055C13.0481 82.8155 13.1533 82.5591 13.1533 82.292C13.1533 82.0249 13.0481 81.7685 12.8604 81.5785C12.33 81.1525 11.6843 80.8949 11.0064 80.8388C10.3284 80.7827 9.6492 80.9306 9.056 81.2635C7.71304 82.009 7.39937 83.5143 7.76349 84.9216C7.97142 85.6387 8.28442 86.3211 8.6923 86.9465C9.06129 87.5704 9.4781 88.1648 9.93897 88.7243C10.4067 89.2735 11.0154 89.6848 11.6996 89.9139C12.3837 90.143 13.1173 90.1811 13.8215 90.0243C15.2658 89.688 16.4919 87.8409 16.0798 86.3835C16.0087 86.1254 15.8379 85.9062 15.6051 85.774C15.3723 85.6418 15.0965 85.6075 14.8384 85.6786C14.5803 85.7498 14.3611 85.9205 14.2289 86.1533C14.0967 86.3862 14.0624 86.6619 14.1335 86.92L14.1373 86.9188Z" fill="#211715"/>
<path d="M16.6168 78.0713C15.3554 76.6838 13.1101 77.0101 11.8332 78.179C11.4784 78.4857 11.1882 78.8599 10.9793 79.2798C10.7704 79.6996 10.647 80.1569 10.6163 80.6248C10.6105 81.5204 11.1861 82.3676 11.6255 83.1144C12.3503 84.3472 13.2165 85.532 14.0414 86.7018C14.3847 87.2423 14.7944 87.7377 15.2608 88.1763C15.9551 88.7163 16.8213 88.9866 17.6995 88.9374C19.9174 88.8424 21.1334 86.6707 20.5754 84.6344C20.2328 83.3831 18.2852 83.9141 18.6291 85.1709C18.712 85.3975 18.7377 85.6411 18.704 85.88C18.6702 86.119 18.5781 86.3459 18.4357 86.5407C18.3562 86.6309 18.2664 86.7114 18.1683 86.7808C17.9876 86.8882 17.7783 86.9374 17.5687 86.9217C17.3301 86.9209 17.0934 86.8796 16.8686 86.7997C16.7847 86.7551 16.6982 86.7153 16.6096 86.6808C16.592 86.6765 16.4835 86.6 16.6096 86.6887C16.7442 86.7833 16.5638 86.6433 16.5491 86.6282C16.2635 86.3388 16.007 86.0223 15.783 85.683C15.2065 84.8656 14.6419 84.036 14.0747 83.2124C13.6678 82.6169 13.2944 81.9993 12.9562 81.3623C12.8344 81.15 12.7268 80.9299 12.6342 80.7034C12.6594 80.7732 12.6342 80.6109 12.6342 80.5924C12.6564 80.4687 12.6982 80.3492 12.7578 80.2384C12.8762 79.9984 13.0428 79.7853 13.2473 79.6126C13.4517 79.4398 13.6896 79.3111 13.946 79.2343C14.156 79.1521 14.3856 79.1331 14.6063 79.1797C14.827 79.2263 15.0292 79.3365 15.188 79.4967C16.0639 80.4596 17.4876 79.0292 16.6151 78.0697L16.6168 78.0713Z" fill="#211715"/>
<path d="M22.1198 82.8468C22.1571 83.0849 22.1344 83.3286 22.0536 83.5556C21.9728 83.7827 21.8366 83.9859 21.6573 84.1469C21.5363 84.2637 21.3841 84.343 21.2191 84.3752C21.0541 84.4075 20.8832 84.3913 20.7272 84.3286C20.269 84.0366 19.9005 83.6234 19.6626 83.1349C19.2106 82.3932 18.746 81.6607 18.2751 80.9299C17.5103 79.7375 16.6353 78.5026 16.3166 77.1008C16.3166 77.0962 16.272 76.8969 16.301 77.0167C16.33 77.1365 16.3473 76.8906 16.3048 76.9894C16.2623 77.0882 16.3788 76.7392 16.3363 76.8447C16.4228 76.6393 16.566 76.4629 16.7492 76.336C16.9755 76.1694 17.2432 76.0682 17.5231 76.0436C17.8029 76.019 18.0842 76.0718 18.336 76.1964C18.9062 76.4659 19.3082 77.0966 19.6815 77.5839C20.1112 78.1473 20.5292 78.725 20.9047 79.3263C21.5909 80.4258 23.3379 79.4138 22.6475 78.3079C22.1793 77.5752 21.6741 76.8668 21.1338 76.1854C20.591 75.4858 20.0486 74.7727 19.2245 74.3896C17.4005 73.5416 14.8828 74.3362 14.3677 76.4335C14.1512 77.3165 14.5018 78.2146 14.8533 79.0122C15.2828 79.9277 15.7814 80.8092 16.3447 81.6489C16.9136 82.5412 17.4665 83.4435 18.0342 84.3357C18.5054 85.1871 19.2408 85.8621 20.1293 86.2589C20.6173 86.4107 21.1361 86.4349 21.6361 86.329C22.136 86.2232 22.6005 85.9908 22.9851 85.6543C23.3845 85.3097 23.6971 84.8758 23.8974 84.3878C24.0977 83.8998 24.1801 83.3714 24.138 82.8456C24.0724 81.5535 22.0538 81.5455 22.1198 82.8456V82.8468Z" fill="#211715"/>
<path d="M70.36 73.1341C64.9225 75.6523 59.2677 77.721 53.7281 80.0213C50.7849 81.2428 47.3198 82.3482 45.5211 85.1615C45.0415 85.9703 44.6463 86.8262 44.3417 87.7158C43.9654 88.7077 43.5878 89.6991 43.2271 90.6969C42.564 92.531 41.9472 94.3814 41.3564 96.2399C40.0353 100.397 38.7588 104.559 37.2014 108.636C37.1324 108.894 37.1676 109.169 37.2995 109.401C37.4313 109.633 37.6492 109.804 37.9061 109.877C38.1639 109.942 38.437 109.906 38.6683 109.774C38.8996 109.643 39.0712 109.427 39.1473 109.172C40.5222 105.575 41.6915 101.912 42.8419 98.2375C43.9797 94.6043 45.1124 90.9097 46.6206 87.4097C46.9543 86.5806 47.4506 85.8267 48.0805 85.1926C48.788 84.5548 49.5897 84.03 50.4573 83.6369C51.5623 83.0903 52.7581 82.5954 53.8101 82.156C56.6802 80.9569 59.5705 79.8069 62.4523 78.6389C65.4431 77.4267 68.4498 76.2325 71.3788 74.8761C71.6082 74.7395 71.7748 74.5182 71.8425 74.2599C71.9102 74.0015 71.8737 73.7269 71.7408 73.4953C71.6016 73.2687 71.3803 73.1046 71.123 73.0372C70.8658 72.9697 70.5924 73.0042 70.36 73.1333V73.1341Z" fill="#211715"/>
<path d="M41.6259 114.846C38.953 108.926 36.5089 102.912 34.0631 96.896C34.0187 96.7492 33.9421 96.6141 33.8388 96.5006C33.7355 96.3872 33.6081 96.2983 33.466 96.2405C33.324 96.1826 33.1707 96.1573 33.0176 96.1663C32.8644 96.1754 32.7152 96.2185 32.5809 96.2927C30.0545 97.6205 27.4765 98.8456 24.8469 99.9679C22.3837 101.078 19.8236 101.958 17.1991 102.599C16.9424 102.672 16.7246 102.843 16.5928 103.076C16.461 103.308 16.4257 103.582 16.4944 103.84C17.9988 108.65 19.4402 113.482 21.141 118.227C22.0113 120.656 22.9527 123.058 23.99 125.421C24.7368 127.223 25.6016 128.974 26.5788 130.662C27.5246 132.304 28.7902 133.74 30.3008 134.884C31.9317 136.035 33.8792 136.652 35.8753 136.65C38.1037 136.635 40.2961 136.087 42.2701 135.053C43.956 134.125 45.4784 132.927 46.7766 131.507C49.4621 128.738 51.9767 125.808 54.3067 122.733C54.4403 122.502 54.4772 122.227 54.4094 121.968C54.3416 121.71 54.1746 121.488 53.9447 121.352C53.7121 121.224 53.439 121.19 53.1821 121.257C52.9251 121.325 52.7039 121.488 52.5643 121.714L52.1833 122.212C52.103 122.317 52.0231 122.422 51.9424 122.527C51.9185 122.558 51.8953 122.589 51.8714 122.62C52.0189 122.432 51.9016 122.577 51.8201 122.679C51.3368 123.284 50.8463 123.883 50.3484 124.477C49.1169 125.952 47.8568 127.405 46.55 128.814C45.3903 130.065 44.1987 131.406 42.7923 132.388C41.1461 133.546 39.2447 134.29 37.2498 134.556C35.4675 134.822 33.6471 134.497 32.0671 133.631C30.6623 132.755 29.4848 131.559 28.6311 130.141C27.6511 128.555 26.7958 126.895 26.073 125.176C25.1275 123.05 24.2551 120.895 23.4556 118.71C21.5921 113.638 20.0499 108.458 18.4391 103.304L17.7344 104.546C20.4716 103.868 23.141 102.941 25.7093 101.777C28.3885 100.64 31.0181 99.3924 33.598 98.0346L32.1159 97.4317C34.6273 103.609 37.1375 109.785 39.8818 115.864C40.0184 116.093 40.2397 116.26 40.4981 116.327C40.7564 116.395 41.0311 116.359 41.2627 116.226C41.4889 116.086 41.6528 115.865 41.7202 115.608C41.7876 115.351 41.7534 115.077 41.6247 114.845L41.6259 114.846Z" fill="#211715"/>
<path d="M100.836 74.7242C106.347 76.9501 111.943 79.055 117.398 81.3578C118.527 81.8342 119.708 82.3421 120.838 82.8744C122.503 83.6594 124.352 84.3461 125.424 85.9287C126.643 87.7304 127.305 89.9504 127.989 91.996C128.708 94.1479 129.327 96.3322 129.877 98.5338C131.138 103.588 132.032 108.724 133.011 113.839C133.084 114.095 133.255 114.313 133.487 114.445C133.719 114.577 133.994 114.612 134.252 114.543C134.507 114.467 134.723 114.296 134.854 114.065C134.985 113.833 135.022 113.56 134.957 113.302C134.061 108.619 133.233 103.919 132.134 99.2788C131.597 97.0146 130.994 94.7656 130.289 92.5476C129.645 90.3493 128.836 88.2031 127.867 86.1276C127.401 85.1275 126.749 84.2251 125.946 83.4686C125.115 82.7746 124.19 82.2023 123.197 81.7686C121.974 81.1875 120.747 80.6174 119.504 80.0805C116.417 78.7489 113.293 77.4997 110.169 76.2585C107.239 75.0946 104.296 73.9602 101.373 72.7795C101.115 72.7101 100.84 72.7451 100.607 72.877C100.375 73.0089 100.204 73.2271 100.131 73.4842C100.067 73.7421 100.104 74.0149 100.235 74.246C100.366 74.4772 100.581 74.6489 100.836 74.7254V74.7242Z" fill="#211715"/>
<path d="M109.94 38.1539C110.181 37.9555 110.46 37.808 110.76 37.7202C111.059 37.6325 111.374 37.6064 111.684 37.6435C111.994 37.6806 112.293 37.7801 112.564 37.9361C112.834 38.092 113.071 38.3011 113.258 38.5508C113.583 39.1629 113.738 39.8511 113.706 40.5434C113.748 41.3936 113.7 42.2458 113.562 43.0859C113.055 46.0557 111.49 49.6767 108.18 50.2447C107.923 50.3177 107.705 50.4888 107.573 50.7211C107.441 50.9534 107.406 51.2283 107.475 51.4864C107.551 51.7411 107.723 51.9566 107.955 52.0878C108.186 52.2191 108.459 52.2561 108.717 52.1911C112.144 51.6024 114.178 48.3648 115.116 45.2744C115.61 43.6521 115.809 41.9546 115.705 40.2621C115.597 38.6008 115.094 37.038 113.563 36.1735C112.766 35.7346 111.853 35.5522 110.949 35.6513C110.044 35.7503 109.193 36.1259 108.509 36.7268C108.322 36.9172 108.218 37.1734 108.218 37.4404C108.218 37.7073 108.322 37.9635 108.509 38.1539C108.701 38.3381 108.957 38.441 109.223 38.441C109.489 38.441 109.745 38.3381 109.936 38.1539H109.94Z" fill="#211715"/>
<path d="M107.406 48.7113C107.351 49.6807 107.171 50.639 106.871 51.5625C106.769 51.906 106.657 52.2466 106.543 52.5863C106.505 52.6986 106.469 52.8117 106.428 52.9227C106.4 52.9983 106.275 53.2771 106.404 52.9891C105.972 53.9322 105.474 54.8443 104.916 55.7187C103.332 58.3422 101.313 60.6768 98.9452 62.6228C97.6427 63.7013 96.1168 64.4769 94.4778 64.8933C93.2126 65.1838 93.7483 67.1305 95.0143 66.8392C98.3658 66.0689 101.174 63.6617 103.389 61.1373C105.286 59.0506 106.868 56.6977 108.084 54.1534C108.875 52.4422 109.33 50.5952 109.426 48.7126C109.468 47.4133 107.449 47.415 107.407 48.7126L107.406 48.7113Z" fill="#211715"/>
<path d="M64.7455 36.727C64.1481 36.1981 63.4182 35.8413 62.6338 35.6949C61.8494 35.5485 61.04 35.6179 60.292 35.8958C58.6421 36.5467 57.8171 37.9346 57.6077 39.6425C57.2124 43.0155 58.0734 46.4158 60.0263 49.1942C61.085 50.741 62.7035 51.8157 64.5399 52.1913C64.7977 52.2547 65.0699 52.217 65.3008 52.0859C65.5316 51.9549 65.7035 51.7404 65.7811 51.4866C65.8503 51.2285 65.8151 50.9537 65.6832 50.7213C65.5514 50.489 65.3334 50.3179 65.0764 50.2449C61.7687 49.6769 60.2037 46.0559 59.6945 43.0861C59.562 42.2772 59.5129 41.4568 59.5478 40.6378C59.5726 39.9457 59.6033 39.1485 59.9981 38.551C60.1854 38.301 60.4215 38.0915 60.6922 37.9353C60.9628 37.7791 61.2623 37.6795 61.5725 37.6424C61.8827 37.6053 62.1973 37.6315 62.4971 37.7195C62.7969 37.8074 63.0758 37.9553 63.3168 38.1541C63.5093 38.3371 63.7647 38.4391 64.0303 38.4391C64.2959 38.4391 64.5514 38.3371 64.7438 38.1541C64.9309 37.9637 65.0358 37.7075 65.0358 37.4406C65.0358 37.1737 64.9309 36.9174 64.7438 36.727H64.7455Z" fill="#211715"/>
<path d="M63.9689 48.3865C65.195 55.4599 69.0284 62.382 75.5821 65.7958C77.353 66.7183 79.2831 67.2957 81.2697 67.497C81.5368 67.4952 81.7925 67.3883 81.9813 67.1995C82.1702 67.0106 82.2771 66.7549 82.2788 66.4879C82.2731 66.222 82.1649 65.9687 81.9769 65.7807C81.7889 65.5927 81.5355 65.4845 81.2697 65.4787C74.5141 64.7787 69.2504 58.7198 67.1291 52.634C66.5944 51.0752 66.1884 49.4752 65.9152 47.85C65.8422 47.5932 65.6711 47.3753 65.4389 47.2435C65.2067 47.1117 64.932 47.0764 64.674 47.1453C64.4193 47.2215 64.2037 47.3931 64.0723 47.6244C63.941 47.8556 63.9039 48.1286 63.9689 48.3865Z" fill="#211715"/>
<path d="M131.588 128.404C133.825 126.411 142.474 118.775 144.37 116.876C142.814 115.265 139.838 113.7 136.266 113.367C133.201 113.011 130.099 113.176 127.089 113.855C124.054 114.612 120.123 116.487 118.018 118.901C115.442 116.443 111.627 115.357 108.171 115.243C104.672 115.142 101.19 115.767 97.9449 117.078C95.3048 118.134 93.1693 119.648 91.7048 122.457C93.7297 124.228 103.249 130.751 105.355 132.422L131.588 128.404Z" fill="#3F88C9"/>
<path d="M91.2398 117.09C90.7205 117.581 90.2392 118.111 89.8001 118.675C90.5758 119.485 91.4006 120.247 92.2699 120.956L92.5117 121.136C93.9114 119.148 95.7547 117.956 97.9462 117.081C101.192 115.769 104.674 115.144 108.173 115.245C111.628 115.359 115.443 116.444 118.019 118.903C120.125 116.488 124.056 114.614 127.091 113.857C130.1 113.179 133.203 113.014 136.267 113.369C138.112 113.538 139.909 114.05 141.565 114.88L141.634 114.811C142.171 114.301 143.245 113.228 144.157 112.261C140.856 109.765 139.004 109.392 135.111 109.014C132.148 108.725 128.782 108.628 125.886 109.35C122.989 110.072 119.274 111.282 117.216 113.571C114.899 111.937 111.656 111.012 108.173 110.897C104.674 110.796 101.192 111.421 97.947 112.733C96.4555 113.292 95.0435 114.045 93.747 114.971C92.8719 115.629 92.0348 116.337 91.2398 117.09Z" fill="white"/>
<path d="M123.329 123.234C123.206 123.135 123.083 123.037 122.959 122.941C121.371 121.715 120.219 121.523 118.586 122.437L117.712 123.196C117.044 122.488 116.478 121.901 116.237 121.691C115.888 121.376 115.465 121.156 115.007 121.053C114.548 120.95 114.071 120.967 113.622 121.103C112.59 121.487 112.159 122.05 112.159 122.914C112.159 122.914 112.117 123.226 112.061 123.648C111.514 123.07 111.021 122.571 110.645 122.234C110.328 121.949 108.777 121.183 107.744 121.96C106.834 122.644 106.693 123.558 107.221 124.362C107.276 124.456 107.326 124.552 107.372 124.65L107.141 124.529C106.848 124.368 106.525 124.27 106.192 124.243C105.858 124.217 105.523 124.262 105.209 124.375C104.894 124.488 104.608 124.667 104.368 124.9C104.128 125.133 103.941 125.415 103.819 125.726C103.656 126.47 103.75 127.247 104.085 127.931C104.753 129.223 107.673 132.464 109.249 134.129C112.86 136.683 118.623 134.904 123.238 133.831C123.887 133.671 124.505 133.405 125.067 133.045C126.794 131.846 127.683 130.373 129.093 128.816C129.692 128.238 130.223 127.594 130.676 126.896C131.135 125.999 131.514 125.023 131.258 124.049C131.154 123.538 130.867 123.083 130.451 122.769C129.765 122.316 128.846 122.532 128.085 122.843C126.947 123.307 125.889 123.948 124.949 124.74C124.447 124.198 123.906 123.694 123.329 123.234Z" fill="white"/>
<path d="M124.561 132.174C123.587 132.847 122.348 133.006 121.221 133.278C119.866 133.605 118.508 133.926 117.132 134.156C114.797 134.547 112.146 134.732 110.043 133.449C108.931 132.771 107.916 134.516 109.025 135.192C111.518 136.713 114.552 136.589 117.332 136.159C118.795 135.931 120.238 135.593 121.676 135.246C122.997 134.927 124.437 134.707 125.579 133.918C125.805 133.779 125.969 133.557 126.036 133.3C126.104 133.043 126.07 132.77 125.941 132.538C125.805 132.309 125.583 132.142 125.325 132.074C125.067 132.007 124.792 132.043 124.561 132.176V132.174Z" fill="#211715"/>
<path d="M126.499 125.049C125.465 123.645 124.172 122.452 122.69 121.534C122.02 121.114 121.25 120.88 120.459 120.856C119.619 120.887 118.8 121.131 118.079 121.563C117.848 121.698 117.68 121.92 117.612 122.179C117.544 122.437 117.581 122.713 117.717 122.944C117.852 123.175 118.073 123.343 118.332 123.411C118.591 123.479 118.866 123.441 119.097 123.306C119.334 123.162 119.588 123.049 119.854 122.97C119.999 122.925 120.146 122.891 120.296 122.869C120.119 122.892 120.445 122.872 120.507 122.873C120.531 122.873 120.782 122.892 120.655 122.878C120.546 122.865 120.737 122.894 120.757 122.898C120.885 122.926 121.011 122.962 121.135 123.005C121.177 123.021 121.345 123.094 121.229 123.04C121.295 123.07 121.36 123.103 121.424 123.136C121.578 123.217 121.727 123.304 121.873 123.4C122.976 124.122 123.95 125.023 124.756 126.066C124.897 126.291 125.118 126.454 125.375 126.521C125.631 126.588 125.904 126.555 126.137 126.428C126.367 126.292 126.533 126.07 126.601 125.812C126.669 125.554 126.632 125.279 126.499 125.048L126.499 125.049Z" fill="#211715"/>
<path d="M121.848 126.115C120.744 125.076 119.753 123.897 118.716 122.791C118.201 122.244 117.691 121.685 117.15 121.163C116.716 120.721 116.184 120.388 115.597 120.191C115.01 119.994 114.385 119.938 113.772 120.028C113.064 120.121 112.412 120.462 111.931 120.991C111.451 121.52 111.174 122.202 111.15 122.916C111.121 124.215 113.139 124.215 113.168 122.916C113.174 122.642 113.149 122.67 113.289 122.459C113.205 122.585 113.427 122.322 113.47 122.291C113.415 122.333 113.706 122.162 113.758 122.137C113.976 122.033 114.215 121.982 114.456 121.988C114.697 121.994 114.933 122.057 115.146 122.171C115.809 122.489 116.33 123.204 116.824 123.727C118.022 124.993 119.154 126.353 120.423 127.548C121.368 128.437 122.798 127.013 121.85 126.12L121.848 126.115Z" fill="#211715"/>
<path d="M106.07 131.711C102.37 128.785 98.3801 126.217 94.5824 123.419C94.1261 123.082 93.6728 122.742 93.2227 122.399C93.1041 122.308 93.3509 122.499 93.2369 122.41L93.0877 122.293C93.0036 122.228 92.9229 122.163 92.8413 122.097C92.6988 121.982 92.5579 121.866 92.4208 121.746L92.5785 122.969C93.3108 121.532 94.3858 120.298 95.7084 119.376C97.1919 118.427 98.8127 117.711 100.514 117.255C104.238 116.151 108.343 115.813 112.122 116.847C114.05 117.333 115.83 118.284 117.307 119.616C117.498 119.802 117.754 119.906 118.02 119.906C118.287 119.906 118.543 119.802 118.734 119.616C120.878 117.196 124.132 115.66 127.221 114.864C129.229 114.373 131.294 114.154 133.36 114.213C135.346 114.183 137.325 114.449 139.232 115.003C140.893 115.5 142.41 116.387 143.658 117.59V116.162C142.205 117.612 140.65 118.967 139.125 120.339C137.143 122.122 135.154 123.896 133.159 125.662C132.397 126.338 131.636 127.014 130.875 127.69C129.903 128.555 131.335 129.978 132.302 129.117C135.868 125.942 139.456 122.791 142.978 119.568C143.688 118.918 144.403 118.27 145.086 117.59C145.271 117.398 145.374 117.142 145.374 116.876C145.374 116.61 145.271 116.354 145.086 116.162C142.308 113.337 138.285 112.413 134.465 112.229C130.301 111.957 126.138 112.753 122.368 114.542C120.461 115.418 118.742 116.656 117.306 118.187H118.733C115.761 115.395 111.596 114.257 107.593 114.221C105.275 114.207 102.965 114.501 100.725 115.097C98.731 115.578 96.8199 116.352 95.0538 117.394C93.2695 118.513 91.8142 120.085 90.8365 121.95C90.7271 122.143 90.6833 122.367 90.7117 122.588C90.7401 122.808 90.8392 123.013 90.9942 123.173C92.5684 124.541 94.3238 125.725 96.0162 126.939C98.1526 128.472 100.305 129.983 102.439 131.517C102.899 131.848 103.358 132.181 103.816 132.516C103.998 132.65 104.18 132.784 104.362 132.92L104.592 133.095C104.699 133.175 104.412 132.953 104.647 133.137C104.84 133.319 105.095 133.42 105.36 133.42C105.625 133.42 105.881 133.319 106.074 133.137C106.261 132.947 106.367 132.691 106.367 132.423C106.367 132.156 106.261 131.9 106.074 131.71L106.07 131.711Z" fill="#211715"/>
<path d="M92.7791 120.084C92.9855 120.241 92.7732 120.075 92.695 120.009C92.5899 119.921 92.4857 119.831 92.3826 119.74C92.1215 119.512 91.8642 119.278 91.6094 119.043C91.2181 118.71 90.8527 118.348 90.5162 117.961V119.388C92.8329 116.394 96.1272 114.353 99.6823 113.169C103.417 111.868 107.424 111.554 111.315 112.257C113.245 112.606 115.081 113.351 116.71 114.443C116.903 114.555 117.127 114.6 117.348 114.571C117.569 114.543 117.775 114.442 117.933 114.285C119.126 113.072 120.576 112.144 122.177 111.567C123.861 110.886 125.611 110.383 127.399 110.066C129.474 109.766 131.576 109.71 133.664 109.9C135.384 109.971 137.094 110.198 138.774 110.576C140.554 111.094 142.212 111.963 143.651 113.132L143.447 111.546C142.625 112.414 141.788 113.27 140.924 114.096C139.982 114.995 141.411 116.421 142.351 115.524C143.216 114.698 144.052 113.842 144.874 112.973C144.98 112.863 145.059 112.73 145.107 112.584C145.155 112.439 145.169 112.284 145.15 112.132C145.13 111.98 145.077 111.835 144.994 111.706C144.911 111.577 144.8 111.469 144.669 111.389C143.236 110.25 141.614 109.371 139.879 108.789C138.086 108.312 136.248 108.026 134.396 107.938C132.191 107.719 129.969 107.736 127.768 107.988C125.799 108.261 123.869 108.761 122.015 109.476C119.997 110.238 117.984 111.245 116.507 112.858L117.73 112.7C114.439 110.415 110.177 109.718 106.245 109.902C102.082 110.097 97.6909 111.261 94.1355 113.485C92.2098 114.677 90.5031 116.192 89.0899 117.962C88.9112 118.156 88.812 118.411 88.812 118.675C88.812 118.94 88.9112 119.194 89.0899 119.389C89.8798 120.306 90.7775 121.125 91.7637 121.828C91.9952 121.961 92.2699 121.998 92.5284 121.93C92.7869 121.862 93.0083 121.695 93.1445 121.466C93.2731 121.233 93.3072 120.96 93.2398 120.703C93.1724 120.446 93.0086 120.224 92.7825 120.085L92.7791 120.084Z" fill="#211715"/>
<path d="M107.652 123.658C107.082 123.345 106.435 123.203 105.786 123.247C105.138 123.292 104.515 123.522 103.994 123.911C103.575 124.213 103.239 124.617 103.019 125.085C102.799 125.553 102.702 126.07 102.737 126.586C102.818 127.654 103.229 128.67 103.915 129.493C104.587 130.398 105.316 131.262 106.059 132.111C106.863 133.032 107.685 133.937 108.526 134.825C109.42 135.771 110.845 134.342 109.953 133.396C108.376 131.791 106.9 130.091 105.534 128.304C105.302 128.012 105.1 127.697 104.932 127.365C104.811 127.074 104.75 126.761 104.754 126.446C104.759 126.366 104.759 126.285 104.754 126.205C104.758 126.171 104.846 125.835 104.789 125.995C104.732 126.154 104.859 125.88 104.879 125.847C105.012 125.629 104.753 125.969 104.943 125.763C105.067 125.612 105.22 125.488 105.392 125.396C105.584 125.295 105.798 125.243 106.014 125.244C106.231 125.244 106.444 125.298 106.635 125.401C106.868 125.529 107.141 125.563 107.398 125.496C107.655 125.428 107.876 125.265 108.016 125.039C108.149 124.807 108.185 124.533 108.117 124.274C108.05 124.016 107.883 123.795 107.654 123.658H107.652Z" fill="#211715"/>
<path d="M116.936 127.502C115.897 126.377 114.885 125.227 113.851 124.097C113.341 123.538 112.827 122.982 112.299 122.439C111.909 121.992 111.469 121.59 110.988 121.243C109.452 120.266 107.312 120.415 106.3 122.056C105.143 123.932 106.853 125.641 107.974 127.012C109.241 128.593 110.592 130.104 112.022 131.539C112.947 132.452 114.377 131.026 113.449 130.112C112.324 129.003 111.265 127.837 110.254 126.622C109.739 126.004 109.234 125.38 108.724 124.758C108.487 124.476 108.276 124.173 108.093 123.853C108.041 123.769 107.996 123.681 107.957 123.59C107.952 123.572 107.909 123.345 107.92 123.438C107.93 123.522 107.949 123.26 107.918 123.384C107.973 123.151 108.113 122.945 108.31 122.808C108.507 122.67 108.748 122.609 108.987 122.638C109.224 122.672 109.457 122.735 109.68 122.824C109.564 122.776 109.818 122.896 109.871 122.926C109.913 122.949 109.955 122.983 110 123.004C110.164 123.083 109.883 122.868 109.96 122.974C110.118 123.148 110.288 123.31 110.47 123.459C110.685 123.672 110.896 123.889 111.105 124.108C111.568 124.59 112.019 125.079 112.468 125.571C113.486 126.686 114.486 127.819 115.509 128.929C116.392 129.886 117.816 128.456 116.936 127.502L116.936 127.502Z" fill="#211715"/>
<path d="M126.21 125.03C126.805 124.609 127.436 124.242 128.096 123.933C128.543 123.725 129.218 123.392 129.726 123.537C130.149 123.656 130.302 124.209 130.332 124.597C130.323 125.278 130.117 125.942 129.741 126.509C129.421 126.992 129.048 127.437 128.628 127.836C128.181 128.314 127.761 128.813 127.346 129.318C126.549 130.39 125.612 131.35 124.561 132.174C124.335 132.314 124.172 132.535 124.104 132.792C124.037 133.049 124.071 133.322 124.199 133.554C124.335 133.784 124.557 133.95 124.815 134.018C125.073 134.086 125.348 134.049 125.579 133.916C127.03 132.888 128.082 131.557 129.216 130.211C129.716 129.618 130.265 129.073 130.768 128.487C131.364 127.796 131.818 126.994 132.105 126.128C132.662 124.473 132.197 122.126 130.285 121.602C128.555 121.127 126.548 122.337 125.191 123.289C124.966 123.429 124.802 123.65 124.735 123.907C124.667 124.164 124.701 124.437 124.829 124.669C124.966 124.899 125.187 125.065 125.446 125.133C125.704 125.201 125.978 125.164 126.21 125.031V125.03Z" fill="#211715"/>
<path d="M82.5749 55.5181C83.8991 56.2018 85.3737 56.5423 86.8636 56.5083C88.3899 56.4986 89.9435 56.2026 91.1674 55.2469C91.3553 55.057 91.4607 54.8006 91.4607 54.5334C91.4607 54.2662 91.3553 54.0098 91.1674 53.8199C90.975 53.6368 90.7195 53.5347 90.4539 53.5347C90.1883 53.5347 89.9328 53.6368 89.7404 53.8199C90.0389 53.5873 89.7824 53.7833 89.7042 53.8325C89.6172 53.8884 89.5272 53.9401 89.4351 53.9885C89.3716 54.0217 89.0567 54.1537 89.309 54.0574C89.1858 54.1045 89.0634 54.152 88.9381 54.1924C88.2236 54.4199 87.4744 54.5195 86.7252 54.4867C86.0107 54.5065 85.2976 54.4105 84.6137 54.2025C84.4779 54.1604 84.3454 54.1133 84.2113 54.0671C84.1692 54.0524 84.1272 54.0297 84.0818 54.0166C84.3303 54.0894 84.1541 54.049 84.0877 54.0166C83.9215 53.9384 83.7572 53.8564 83.5949 53.7707C83.3625 53.6413 83.089 53.6068 82.8317 53.6742C82.5744 53.7417 82.3532 53.9059 82.2141 54.1327C82.0819 54.3645 82.0458 54.6388 82.1135 54.8969C82.1812 55.155 82.3472 55.3764 82.5761 55.5135L82.5749 55.5181Z" fill="#211715"/>
<path d="M86.4057 45.3436C86.6061 46.0668 86.7665 46.8005 86.8863 47.5413L86.8501 47.2731C86.8643 47.3735 86.867 47.4752 86.8581 47.5762L86.8943 47.308C86.8877 47.3545 86.8766 47.4003 86.8611 47.4446L86.9628 47.2033C86.9493 47.2339 86.9331 47.2633 86.9145 47.2912L87.0726 47.0868C87.0513 47.1131 87.0272 47.1369 87.0007 47.1579L87.2046 46.9998C87.1489 47.0346 87.0909 47.0655 87.0309 47.0923L87.2719 46.9905C87.1775 47.0303 87.0787 47.0585 86.9775 47.0746L87.2458 47.0385C87.1543 47.0496 87.0618 47.0496 86.9704 47.0385L87.2386 47.0746C87.1348 47.0603 87.033 47.0351 86.9292 47.0208C86.6661 46.9596 86.3898 46.9958 86.1513 47.1225C86.0369 47.1894 85.9367 47.2782 85.8566 47.3838C85.7764 47.4894 85.7179 47.6097 85.6842 47.7379C85.6506 47.8662 85.6426 47.9998 85.6606 48.1311C85.6786 48.2624 85.7224 48.3889 85.7893 48.5033C85.8534 48.6172 85.9399 48.7169 86.0436 48.7964C86.1473 48.8759 86.2661 48.9335 86.3927 48.9659C86.6185 48.9961 86.8375 49.0542 87.0654 49.0642C87.4062 49.0665 87.7426 48.9871 88.0464 48.8326C88.2369 48.7476 88.4058 48.6209 88.5405 48.4617C88.6752 48.3025 88.7724 48.1149 88.8246 47.913C88.8935 47.5815 88.8899 47.239 88.8141 46.909C88.6947 46.2013 88.5311 45.4996 88.3491 44.8066C88.2779 44.5485 88.1072 44.3293 87.8744 44.1971C87.6416 44.0649 87.3658 44.0306 87.1077 44.1017C86.8496 44.1729 86.6303 44.3436 86.4981 44.5764C86.3659 44.8093 86.3316 45.085 86.4028 45.3431L86.4057 45.3436Z" fill="#211715"/>
<path d="M74.6718 39.1511C74.3048 40.3439 74.5457 43.0874 76.8036 43.3208C79.7889 43.3031 79.9486 39.9861 78.9437 38.4266C78.1205 37.1496 75.6999 36.6186 74.6718 39.1511Z" fill="#211715"/>
<path d="M98.5865 39.1515C98.9536 40.3439 98.7127 43.0874 96.4548 43.3208C93.4695 43.3031 93.3093 39.9861 94.3146 38.4262C95.1379 37.1497 97.5581 36.6186 98.5865 39.1515Z" fill="#211715"/>
</g>
<defs>
<clipPath id="clip0_496_832">
<rect width="152" height="152" fill="white" transform="translate(0.5)"/>
</clipPath>
</defs>
</svg>
