<svg width="48" height="48" viewBox="0 0 48 48" fill="none" xmlns="http://www.w3.org/2000/svg">
<path d="M41.964 2H30.714C29.7498 2 29.1069 2.64286 29.1069 3.60714V22.8929C29.1069 23.5357 28.7855 24.0179 28.1426 24.3393C27.9819 24.5 27.8212 24.5 27.4998 24.5C27.1783 24.5 26.8569 24.3393 26.5355 24.1786L21.0712 20.1607L15.6069 24.1786C15.1248 24.5 14.4819 24.6607 13.9998 24.3393C13.3569 24.0179 13.0355 23.5357 13.0355 22.8929V3.76786C13.0355 2.64286 12.0712 2 10.9462 2.16071C7.57118 3.125 4.99976 6.33929 4.99976 10.0357V40.5714C4.99976 44.1071 7.89261 47 11.4283 47H41.964C42.9283 47 43.5712 46.3571 43.5712 45.3929V3.60714C43.5712 2.64286 42.9283 2 41.964 2ZM40.3569 43.7857H11.4283C9.66047 43.7857 8.21404 42.3393 8.21404 40.5714C8.21404 38.8036 9.66047 37.3571 11.4283 37.3571H40.3569V43.7857Z" fill="url(#paint0_linear_766_4904)"/>
<defs>
<linearGradient id="paint0_linear_766_4904" x1="4.99976" y1="24.5" x2="43.5712" y2="24.5" gradientUnits="userSpaceOnUse">
<stop stop-color="#6B55AE"/>
<stop offset="1" stop-color="#9678F5"/>
</linearGradient>
</defs>
</svg>
