<svg width="48" height="48" viewBox="0 0 48 48" fill="none" xmlns="http://www.w3.org/2000/svg">
<path d="M42.8972 13.8406C42.8972 13.6904 43.0474 13.5402 43.0474 13.39C43.0474 13.39 43.0474 13.39 43.0474 13.2399C43.0474 13.2399 43.0474 13.2399 43.0474 13.0897C43.0474 12.9395 43.0474 12.7893 43.0474 12.6391C43.0474 12.6391 43.0474 12.6391 43.0474 12.489C43.0474 12.3388 42.8972 12.1886 42.8972 12.0384C42.7471 11.8882 42.7471 11.8882 42.5969 11.738L26.0768 1.22527C25.6263 0.924909 24.8754 0.924909 24.4248 1.22527L4.90109 14.7417L4.75091 14.8919C4.75091 14.8919 4.75091 14.8919 4.60073 14.8919C4.45055 15.0421 4.45055 15.1922 4.30036 15.3424C4.30036 15.3424 4.30036 15.3424 4.30036 15.4926C4 15.9431 4 16.0933 4 16.2435V25.2545V34.2654C4 34.716 4.30036 35.3167 4.75091 35.4669L21.271 45.9796C21.5713 46.1298 21.8717 46.28 22.0219 46.28C22.3223 46.28 22.6226 46.1298 22.923 45.9796L42.4467 32.4632C42.7471 32.1628 43.0474 31.8625 43.0474 31.4119C43.0474 30.9614 42.8972 30.5108 42.5969 30.2105C41.2452 28.8588 40.9449 26.9065 41.846 25.1043L42.8972 22.8515C42.8972 22.7014 43.0474 22.5512 43.0474 22.401V22.2508C43.0474 22.1006 43.0474 21.8003 42.8972 21.6501V21.4999C42.8972 21.3497 42.7471 21.1995 42.5969 21.0494C41.2452 19.6977 40.9449 17.7453 41.846 15.9431L42.8972 13.8406ZM39.4431 21.9504L22.0219 33.965L7.00365 24.5035V19.097L21.271 28.1079C21.5713 28.2581 21.8717 28.4083 22.0219 28.4083C22.3223 28.4083 22.6226 28.2581 22.923 28.1079L38.3918 17.445C38.2416 18.9468 38.542 20.4486 39.4431 21.9504ZM22.0219 42.976L7.00365 33.5145V28.1079L21.271 37.1189C21.5713 37.2691 21.8717 37.4192 22.0219 37.4192C22.3223 37.4192 22.6226 37.2691 22.923 37.1189L38.3918 26.4559C38.2416 28.1079 38.542 29.7599 39.4431 31.1116L22.0219 42.976Z" fill="url(#paint0_linear_766_4913)"/>
<defs>
<linearGradient id="paint0_linear_766_4913" x1="4" y1="23.64" x2="43.0474" y2="23.64" gradientUnits="userSpaceOnUse">
<stop stop-color="#6B55AE"/>
<stop offset="1" stop-color="#9678F5"/>
</linearGradient>
</defs>
</svg>
