<svg width="20" height="24" viewBox="0 0 20 24" fill="none" xmlns="http://www.w3.org/2000/svg">
<path fill-rule="evenodd" clip-rule="evenodd" d="M13.633 23.9902H6.05139C5.65852 23.9902 5.65852 23.3813 6.05139 23.3813H7.0841V20.6632H1.19172C0.534654 20.6632 0 20.1287 0 19.4716V9.04651C0 8.38944 0.534654 7.8549 1.19172 7.8549H2.88448C2.40326 3.81506 5.5391 0.00976562 9.84224 0.00976562C14.1456 0.00976562 17.2811 3.81506 16.7999 7.8549H18.4927C19.1498 7.8549 19.6843 8.38944 19.6843 9.04651V19.4716C19.6844 20.1287 19.1499 20.6632 18.4928 20.6632H12.6004V23.3813H13.633C14.0259 23.3813 14.0259 23.9902 13.633 23.9902ZM4.06819 4.26183H4.20471C5.05295 3.50627 6.22601 2.94842 7.5494 2.64757C7.80357 1.85021 8.1248 1.21131 8.49391 0.762079C6.53833 1.18324 4.91194 2.50069 4.06819 4.26183ZM11.1907 0.762079C11.5599 1.21136 11.881 1.85032 12.1352 2.64763C13.4587 2.94848 14.6316 3.50627 15.4797 4.26183H15.6163C14.7725 2.50086 13.1463 1.18329 11.1907 0.762079ZM9.84225 14.0241C6.46773 14.0241 3.64969 11.6279 2.98443 8.4637H1.19174C0.870346 8.4637 0.608914 8.72519 0.608914 9.04647V17.2262H19.0756V9.04647C19.0756 8.72513 18.8141 8.46376 18.4929 8.46376L16.7001 8.4637C16.0419 11.6023 13.2134 14.0241 9.84225 14.0241ZM3.81461 4.87072C3.33134 6.22366 3.33145 7.81019 3.81456 9.16312H15.8699C16.3514 7.81477 16.3515 6.21907 15.8699 4.87078L3.81461 4.87072ZM4.06813 9.77201C4.91188 11.5333 6.53827 12.8507 8.49395 13.2719C8.12478 12.8226 7.8035 12.1836 7.54921 11.3861C6.22606 11.0852 5.05317 10.5275 4.20493 9.77201H4.06813ZM11.1905 13.2719C13.1462 12.8507 14.7726 11.5333 15.6164 9.77201H15.4795C14.6313 10.5275 13.4584 11.0854 12.1351 11.3862C11.8809 12.1836 11.5598 12.8226 11.1905 13.2719ZM5.20188 4.26181H7.16566C7.22185 3.9314 7.28707 3.61698 7.36049 3.31962C6.55161 3.53482 5.81565 3.85439 5.20188 4.26181ZM7.78396 4.26181H9.5378V3.00753C9.02275 3.02298 8.51799 3.07762 8.03277 3.16809C7.93732 3.50764 7.85355 3.87376 7.78396 4.26181ZM10.1467 4.26181H11.9006C11.831 3.87371 11.7473 3.50758 11.6518 3.16809C11.1667 3.07762 10.6618 3.02298 10.1467 3.00753V4.26181ZM12.5189 4.26181H14.4827C13.8689 3.85439 13.133 3.53477 12.3241 3.31957C12.3975 3.61693 12.4627 3.9314 12.5189 4.26181ZM7.36031 10.714C7.28695 10.4167 7.22173 10.1024 7.16554 9.77201H5.2021C5.81581 10.1793 6.55167 10.4988 7.36031 10.714ZM7.7839 9.77201C7.85344 10.1601 7.93721 10.5262 8.0326 10.8657C8.51781 10.9562 9.02268 11.0107 9.53779 11.0262V9.77201L7.7839 9.77201ZM8.2421 11.5179C8.59699 12.4887 9.05612 13.1514 9.53779 13.3515V11.6354C9.09781 11.6228 8.66425 11.583 8.2421 11.5179ZM10.1467 13.3515C10.6283 13.1512 11.0873 12.4887 11.4422 11.518C11.0201 11.583 10.5866 11.6228 10.1467 11.6354V13.3515ZM11.6517 10.8657C11.7471 10.5262 11.8308 10.1601 11.9004 9.77202H10.1467V11.0262C10.6617 11.0107 11.1665 10.9561 11.6517 10.8657ZM12.5188 9.77202C12.4625 10.1024 12.3973 10.4168 12.324 10.7142C13.1328 10.499 13.8688 10.1794 14.4826 9.77202H12.5188ZM11.4423 2.51574C11.0874 1.54515 10.6283 0.882541 10.1467 0.682347V2.39847C10.5866 2.41104 11.0202 2.45069 11.4423 2.51574ZM9.5378 0.682347C9.05624 0.8826 8.59716 1.54509 8.24227 2.51574C8.66437 2.45069 9.09793 2.41104 9.5378 2.39848V0.682347ZM4.61098 8.46094C4.47396 8.46094 4.35227 8.36765 4.31678 8.23521L3.70616 5.9562C3.60446 5.57673 4.1927 5.41911 4.2943 5.79863L4.71473 7.36766L5.23643 6.46406C5.35148 6.26474 5.64868 6.26474 5.76372 6.46406L6.28542 7.36766L6.70586 5.79857C6.80762 5.4191 7.39575 5.57667 7.29405 5.95614L6.68338 8.23516C6.61462 8.49183 6.25846 8.53856 6.12564 8.30863L5.50008 7.22515L4.87462 8.30863C4.8197 8.40369 4.71867 8.46094 4.61098 8.46094ZM10.7313 8.46094C10.6236 8.46094 10.5226 8.40369 10.4677 8.30868L9.84225 7.22526L9.21674 8.30868C9.08387 8.53883 8.72765 8.49172 8.659 8.23527L8.04838 5.95625C7.94668 5.57673 8.53487 5.41916 8.63652 5.79868L9.05701 7.36771L9.57866 6.46406C9.6937 6.2648 9.9909 6.2648 10.106 6.46406L10.6276 7.36771L11.0481 5.79863C11.1498 5.41916 11.738 5.57678 11.6363 5.95625L11.0255 8.23527C10.9901 8.36765 10.8684 8.46094 10.7313 8.46094ZM13.2952 8.46094C13.1582 8.46094 13.0365 8.36765 13.0011 8.23521L12.3904 5.9562C12.2886 5.57667 12.8769 5.41916 12.9785 5.79863L13.399 7.36766L13.9207 6.46406C14.0358 6.26474 14.333 6.26469 14.448 6.46406L14.9698 7.36766L15.3903 5.79857C15.4933 5.4139 16.0815 5.57141 15.9784 5.9562L15.3677 8.23521C15.299 8.49183 14.9427 8.53856 14.8099 8.30863L14.1844 7.22515L13.5589 8.30863C13.5039 8.40369 13.4029 8.46094 13.2952 8.46094ZM0.608906 17.8351V19.4715C0.608906 19.7928 0.870337 20.0542 1.19173 20.0542L18.4929 20.0543C18.8142 20.0543 19.0756 19.7928 19.0756 19.4715V17.8351H0.608906ZM10.4036 19.2491H9.2808C8.88788 19.2491 8.88793 18.6403 9.2808 18.6403H10.4036C10.7965 18.6403 10.7966 19.2491 10.4036 19.2491ZM7.69295 23.3813H11.9915V20.6632H7.69295V23.3813Z" fill="#2F2352"/>
<path fill-rule="evenodd" clip-rule="evenodd" d="M0.608914 17.2262H19.0756V9.04647C19.0756 8.72513 18.8141 8.46376 18.4929 8.46376L16.7001 8.4637C16.0419 11.6023 13.2134 14.0241 9.84225 14.0241C6.46773 14.0241 3.64969 11.6279 2.98443 8.4637H1.19174C0.870346 8.4637 0.608914 8.72519 0.608914 9.04647V17.2262Z" fill="#E6DFFD"/>
<path fill-rule="evenodd" clip-rule="evenodd" d="M4.06813 9.77201C4.91188 11.5333 6.53827 12.8507 8.49395 13.2719C8.12478 12.8226 7.8035 12.1836 7.54921 11.3861C6.22606 11.0852 5.05317 10.5275 4.20493 9.77201H4.06813Z" fill="white"/>
<path fill-rule="evenodd" clip-rule="evenodd" d="M5.2021 9.77201C5.81581 10.1793 6.55167 10.4988 7.36031 10.714C7.28695 10.4167 7.22173 10.1024 7.16554 9.77201H5.2021Z" fill="white"/>
<path fill-rule="evenodd" clip-rule="evenodd" d="M3.81456 9.16312H15.8699C16.3514 7.81477 16.3515 6.21907 15.8699 4.87078L3.81461 4.87072C3.33134 6.22366 3.33145 7.81019 3.81456 9.16312ZM7.29405 5.95614L6.68338 8.23516C6.61462 8.49183 6.25846 8.53856 6.12564 8.30863L5.50008 7.22515L4.87462 8.30863C4.8197 8.40369 4.71867 8.46094 4.61098 8.46094C4.47396 8.46094 4.35227 8.36765 4.31678 8.23521L3.70616 5.9562C3.60446 5.57673 4.1927 5.41911 4.2943 5.79863L4.71473 7.36766L5.23643 6.46406C5.35148 6.26474 5.64868 6.26474 5.76372 6.46406L6.28542 7.36766L6.70586 5.79857C6.80762 5.4191 7.39575 5.57667 7.29405 5.95614ZM8.659 8.23527L8.04838 5.95625C7.94668 5.57673 8.53487 5.41916 8.63652 5.79868L9.05701 7.36771L9.57866 6.46406C9.6937 6.2648 9.9909 6.2648 10.106 6.46406L10.6276 7.36771L11.0481 5.79863C11.1498 5.41916 11.738 5.57678 11.6363 5.95625L11.0255 8.23527C10.9901 8.36765 10.8684 8.46094 10.7313 8.46094C10.6236 8.46094 10.5226 8.40369 10.4677 8.30868L9.84225 7.22526L9.21674 8.30868C9.08387 8.53883 8.72765 8.49172 8.659 8.23527ZM13.2952 8.46094C13.1582 8.46094 13.0365 8.36765 13.0011 8.23521L12.3904 5.9562C12.2886 5.57667 12.8769 5.41916 12.9785 5.79863L13.399 7.36766L13.9207 6.46406C14.0358 6.26474 14.333 6.26469 14.448 6.46406L14.9698 7.36766L15.3903 5.79857C15.4933 5.4139 16.0815 5.57141 15.9784 5.9562L15.3677 8.23521C15.299 8.49183 14.9427 8.53856 14.8099 8.30863L14.1844 7.22515L13.5589 8.30863C13.5039 8.40369 13.4029 8.46094 13.2952 8.46094Z" fill="white"/>
<path fill-rule="evenodd" clip-rule="evenodd" d="M7.78396 4.26181H9.5378V3.00753C9.02275 3.02298 8.51799 3.07762 8.03277 3.16809C7.93732 3.50764 7.85355 3.87376 7.78396 4.26181Z" fill="white"/>
<path fill-rule="evenodd" clip-rule="evenodd" d="M7.5494 2.64757C7.80357 1.85021 8.1248 1.21131 8.49391 0.762079C6.53833 1.18324 4.91194 2.50069 4.06819 4.26183H4.20471C5.05295 3.50627 6.22601 2.94842 7.5494 2.64757Z" fill="white"/>
<path fill-rule="evenodd" clip-rule="evenodd" d="M9.5378 0.682347C9.05624 0.8826 8.59716 1.54509 8.24227 2.51574C8.66437 2.45069 9.09793 2.41104 9.5378 2.39848V0.682347Z" fill="white"/>
<path fill-rule="evenodd" clip-rule="evenodd" d="M10.1467 0.682347V2.39847C10.5866 2.41104 11.0202 2.45069 11.4423 2.51574C11.0874 1.54515 10.6283 0.882541 10.1467 0.682347Z" fill="white"/>
<path fill-rule="evenodd" clip-rule="evenodd" d="M11.1907 0.762079C11.5599 1.21136 11.881 1.85032 12.1352 2.64763C13.4587 2.94848 14.6316 3.50627 15.4797 4.26183H15.6163C14.7725 2.50086 13.1463 1.18329 11.1907 0.762079Z" fill="white"/>
<path fill-rule="evenodd" clip-rule="evenodd" d="M14.4827 4.26181C13.8689 3.85439 13.133 3.53477 12.3241 3.31957C12.3975 3.61693 12.4627 3.9314 12.5189 4.26181H14.4827Z" fill="white"/>
<path fill-rule="evenodd" clip-rule="evenodd" d="M11.9006 4.26181C11.831 3.87371 11.7473 3.50758 11.6518 3.16809C11.1667 3.07762 10.6618 3.02298 10.1467 3.00753V4.26181H11.9006Z" fill="white"/>
<path fill-rule="evenodd" clip-rule="evenodd" d="M7.16566 4.26181C7.22185 3.9314 7.28707 3.61698 7.36049 3.31962C6.55161 3.53482 5.81565 3.85439 5.20188 4.26181H7.16566Z" fill="white"/>
<path fill-rule="evenodd" clip-rule="evenodd" d="M9.53779 9.77201L7.7839 9.77201C7.85344 10.1601 7.93721 10.5262 8.0326 10.8657C8.51781 10.9562 9.02268 11.0107 9.53779 11.0262V9.77201Z" fill="white"/>
<path fill-rule="evenodd" clip-rule="evenodd" d="M10.1467 9.77202V11.0262C10.6617 11.0107 11.1665 10.9561 11.6517 10.8657C11.7471 10.5262 11.8308 10.1601 11.9004 9.77202H10.1467Z" fill="white"/>
<path fill-rule="evenodd" clip-rule="evenodd" d="M12.5188 9.77202C12.4625 10.1024 12.3973 10.4168 12.324 10.7142C13.1328 10.499 13.8688 10.1794 14.4826 9.77202H12.5188Z" fill="white"/>
<path fill-rule="evenodd" clip-rule="evenodd" d="M11.4422 11.518C11.0201 11.583 10.5866 11.6228 10.1467 11.6354V13.3515C10.6283 13.1512 11.0873 12.4887 11.4422 11.518Z" fill="white"/>
<path fill-rule="evenodd" clip-rule="evenodd" d="M9.53779 13.3515V11.6354C9.09781 11.6228 8.66425 11.583 8.2421 11.5179C8.59699 12.4887 9.05612 13.1514 9.53779 13.3515Z" fill="white"/>
<path fill-rule="evenodd" clip-rule="evenodd" d="M12.1351 11.3862C11.8809 12.1836 11.5598 12.8226 11.1905 13.2719C13.1462 12.8507 14.7726 11.5333 15.6164 9.77201H15.4795C14.6313 10.5275 13.4584 11.0854 12.1351 11.3862Z" fill="white"/>
<path fill-rule="evenodd" clip-rule="evenodd" d="M19.0756 17.8351H0.608906V19.4715C0.608906 19.7928 0.870337 20.0542 1.19173 20.0542L18.4929 20.0543C18.8142 20.0543 19.0756 19.7928 19.0756 19.4715V17.8351ZM10.4036 18.6403C10.7965 18.6403 10.7966 19.2491 10.4036 19.2491H9.2808C8.88788 19.2491 8.88793 18.6403 9.2808 18.6403H10.4036Z" fill="#E6DFFD"/>
<path fill-rule="evenodd" clip-rule="evenodd" d="M11.9915 20.6632H7.69295V23.3813H11.9915V20.6632Z" fill="white"/>
</svg>
