<svg width="48" height="48" viewBox="0 0 48 48" fill="none" xmlns="http://www.w3.org/2000/svg">
<path fill-rule="evenodd" clip-rule="evenodd" d="M36.5416 46.9999H3.60112C1.61911 46.9999 0 45.2412 0 43.0638V5.96394C0 3.78652 1.61911 2.02783 3.60112 2.02783H29.5347V10.4025C29.5347 10.7375 29.8418 11.0446 30.2047 11.0446H37.1836V46.3579C37.1836 46.7208 36.9045 46.9999 36.5416 46.9999ZM30.8468 2.39074L36.8207 9.73255H30.8468V2.39074ZM14.3207 19.9218H5.22022C4.85732 19.9218 4.55025 19.6147 4.55025 19.2797V12.4962C4.55025 12.1333 4.85732 11.8262 5.22022 11.8262H14.3207C14.6557 11.8262 14.9628 12.1333 14.9628 12.4962V19.2797C14.9628 19.6147 14.6557 19.9218 14.3207 19.9218ZM5.86228 18.6097H13.6507V13.1383H5.86228V18.6097ZM14.3207 30.083H5.22022C4.85732 30.083 4.55025 29.8039 4.55025 29.441V22.6575C4.55025 22.2946 4.85732 22.0154 5.22022 22.0154H14.3207C14.6557 22.0154 14.9628 22.2946 14.9628 22.6575V29.441C14.9628 29.8039 14.6557 30.083 14.3207 30.083ZM5.86228 28.771H13.6507V23.2995H5.86228V28.771ZM14.3207 40.2443H5.22022C4.85732 40.2443 4.55025 39.9652 4.55025 39.6023V32.8188C4.55025 32.4559 4.85732 32.1767 5.22022 32.1767H14.3207C14.6557 32.1767 14.9628 32.4559 14.9628 32.8188V39.6023C14.9628 39.9652 14.6557 40.2443 14.3207 40.2443ZM5.86228 38.9602H13.6507V33.4608H5.86228V38.9602ZM31.8238 15.3994H15.9957C15.6328 15.3994 15.3536 15.1203 15.3536 14.7574C15.3536 14.3945 15.6328 14.0874 15.9957 14.0874H31.8238C32.1867 14.0874 32.4659 14.3945 32.4659 14.7574C32.4659 15.1203 32.1867 15.3994 31.8238 15.3994ZM28.5298 17.7443H19.2897C18.9268 17.7443 18.6476 17.4652 18.6476 17.1023C18.6476 16.7394 18.9268 16.4602 19.2897 16.4602H28.5298C28.8927 16.4602 29.1718 16.7394 29.1718 17.1023C29.1718 17.4652 28.8927 17.7443 28.5298 17.7443ZM31.8238 25.0861H15.9957C15.6328 25.0861 15.3536 24.807 15.3536 24.4441C15.3536 24.0812 15.6328 23.802 15.9957 23.802H31.8238C32.1867 23.802 32.4659 24.0812 32.4659 24.4441C32.4659 24.807 32.1867 25.0861 31.8238 25.0861ZM28.5298 27.459H19.2897C18.9268 27.459 18.6476 27.1519 18.6476 26.789C18.6476 26.4261 18.9268 26.1469 19.2897 26.1469H28.5298C28.8927 26.1469 29.1718 26.4261 29.1718 26.789C29.1718 27.1519 28.8927 27.459 28.5298 27.459ZM31.8238 34.8008H15.9957C15.6328 34.8008 15.3536 34.4937 15.3536 34.1308C15.3536 33.7679 15.6328 33.4887 15.9957 33.4887H31.8238C32.1867 33.4887 32.4659 33.7958 32.4659 34.1308C32.4659 34.4937 32.1867 34.8008 31.8238 34.8008ZM28.5298 37.1457H19.2897C18.9268 37.1457 18.6476 36.8665 18.6476 36.5036C18.6476 36.1407 18.9268 35.8337 19.2897 35.8337H28.5298C28.8927 35.8337 29.1718 36.1407 29.1718 36.5036C29.1718 36.8665 28.8927 37.1457 28.5298 37.1457Z" fill="url(#paint0_linear_766_4882)"/>
<path fill-rule="evenodd" clip-rule="evenodd" d="M43.6878 46.9998C43.4645 46.9998 43.2691 46.9161 43.1574 46.7486L40.1704 42.7287H47.3168L44.1903 46.7486C44.0786 46.9161 43.8832 46.9998 43.6878 46.9998ZM39.8354 41.4167V9.14624C40.0588 9.22999 40.2542 9.2579 40.5054 9.2579H46.9819C47.2052 9.2579 47.4285 9.22999 47.6518 9.14624V41.4167H39.8354Z" fill="url(#paint1_linear_766_4882)"/>
<path fill-rule="evenodd" clip-rule="evenodd" d="M46.9819 7.97395H40.5054C40.1425 7.97395 39.8354 7.66687 39.8354 7.30397V4.98697C39.8354 3.33995 41.1754 2 42.8224 2H44.6649C46.3119 2 47.6518 3.33995 47.6518 4.98697V7.30397C47.6518 7.66687 47.3448 7.97395 46.9819 7.97395Z" fill="url(#paint2_linear_766_4882)"/>
<defs>
<linearGradient id="paint0_linear_766_4882" x1="0" y1="24.5139" x2="37.1836" y2="24.5139" gradientUnits="userSpaceOnUse">
<stop stop-color="#6B55AE"/>
<stop offset="1" stop-color="#9678F5"/>
</linearGradient>
<linearGradient id="paint1_linear_766_4882" x1="39.8354" y1="28.073" x2="47.6518" y2="28.073" gradientUnits="userSpaceOnUse">
<stop stop-color="#6B55AE"/>
<stop offset="1" stop-color="#9678F5"/>
</linearGradient>
<linearGradient id="paint2_linear_766_4882" x1="39.8354" y1="4.98697" x2="47.6518" y2="4.98697" gradientUnits="userSpaceOnUse">
<stop stop-color="#6B55AE"/>
<stop offset="1" stop-color="#9678F5"/>
</linearGradient>
</defs>
</svg>
