<svg width="64" height="64" viewBox="0 0 64 64" fill="none" xmlns="http://www.w3.org/2000/svg">
<path d="M42.6667 8.00016V12.0002H38.6667V9.3335H25.3333V12.0002H21.3333V8.00016C21.3354 7.29357 21.6171 6.61652 22.1167 6.11688C22.6163 5.61724 23.2934 5.33561 24 5.3335H40C40.7066 5.33561 41.3836 5.61724 41.8833 6.11688C42.3829 6.61652 42.6646 7.29357 42.6667 8.00016Z" fill="url(#paint0_linear_438_5823)"/>
<path d="M58.6667 33.8667V52C58.6667 53.7681 57.9643 55.4638 56.714 56.7141C55.4638 57.9643 53.7681 58.6667 52 58.6667H12C10.2319 58.6667 8.53619 57.9643 7.28595 56.7141C6.03571 55.4638 5.33333 53.7681 5.33333 52V33.8667L26.5067 39.92L26.6667 39.96V41.3334C26.6698 42.3933 27.0923 43.4088 27.8417 44.1583C28.5912 44.9078 29.6068 45.3302 30.6667 45.3334H33.3333C34.3932 45.3302 35.4088 44.9078 36.1583 44.1583C36.9077 43.4088 37.3302 42.3933 37.3333 41.3334V39.96L37.4933 39.92L58.6667 33.8667Z" fill="url(#paint1_linear_438_5823)"/>
<path d="M61.3333 21.3332V27.3198C61.3317 28.1888 61.0471 29.0335 60.5227 29.7263C59.9983 30.4191 59.2625 30.9223 58.4267 31.1598L37.3333 37.1998V35.9998C37.3302 34.9399 36.9077 33.9244 36.1583 33.1749C35.4088 32.4254 34.3932 32.003 33.3333 31.9998H30.6667C29.6068 32.003 28.5912 32.4254 27.8417 33.1749C27.0923 33.9244 26.6698 34.9399 26.6667 35.9998V37.1998L5.56001 31.1598C4.72666 30.9199 3.99386 30.4157 3.472 29.7231C2.95015 29.0305 2.66751 28.187 2.66667 27.3198V21.3332C2.66667 19.5651 3.36905 17.8694 4.61929 16.6191C5.86954 15.3689 7.56523 14.6665 9.33334 14.6665H54.6667C56.4348 14.6665 58.1305 15.3689 59.3807 16.6191C60.631 17.8694 61.3333 19.5651 61.3333 21.3332Z" fill="url(#paint2_linear_438_5823)"/>
<path d="M33.3333 34.6665H30.6667C30.313 34.6665 29.9739 34.807 29.7239 35.057C29.4738 35.3071 29.3333 35.6462 29.3333 35.9998V41.3332C29.3333 41.6868 29.4738 42.0259 29.7239 42.276C29.9739 42.526 30.313 42.6665 30.6667 42.6665H33.3333C33.687 42.6665 34.0261 42.526 34.2761 42.276C34.5262 42.0259 34.6667 41.6868 34.6667 41.3332V35.9998C34.6667 35.6462 34.5262 35.3071 34.2761 35.057C34.0261 34.807 33.687 34.6665 33.3333 34.6665Z" fill="url(#paint3_linear_438_5823)"/>
<defs>
<linearGradient id="paint0_linear_438_5823" x1="21.3333" y1="8.66683" x2="42.6667" y2="8.66683" gradientUnits="userSpaceOnUse">
<stop stop-color="#6B55AE"/>
<stop offset="1" stop-color="#9678F5"/>
</linearGradient>
<linearGradient id="paint1_linear_438_5823" x1="5.33333" y1="46.2667" x2="58.6667" y2="46.2667" gradientUnits="userSpaceOnUse">
<stop stop-color="#6B55AE"/>
<stop offset="1" stop-color="#9678F5"/>
</linearGradient>
<linearGradient id="paint2_linear_438_5823" x1="2.66667" y1="25.9332" x2="61.3333" y2="25.9332" gradientUnits="userSpaceOnUse">
<stop stop-color="#6B55AE"/>
<stop offset="1" stop-color="#9678F5"/>
</linearGradient>
<linearGradient id="paint3_linear_438_5823" x1="29.3333" y1="38.6665" x2="34.6667" y2="38.6665" gradientUnits="userSpaceOnUse">
<stop stop-color="#6B55AE"/>
<stop offset="1" stop-color="#9678F5"/>
</linearGradient>
</defs>
</svg>
