<svg width="64" height="64" viewBox="0 0 64 64" fill="none" xmlns="http://www.w3.org/2000/svg">
<path d="M57.8 18.8002C57.8 18.6002 58 18.4002 58 18.2002C58 18.2002 58 18.2002 58 18.0002C58 18.0002 58 18.0002 58 17.8002C58 17.6002 58 17.4002 58 17.2002C58 17.2002 58 17.2002 58 17.0002C58 16.8002 57.8 16.6002 57.8 16.4002C57.6 16.2002 57.6 16.2002 57.4 16.0002L35.4 2.0002C34.8 1.6002 33.8 1.6002 33.2 2.0002L7.2 20.0002L7 20.2002C7 20.2002 7 20.2002 6.8 20.2002C6.6 20.4002 6.6 20.6002 6.4 20.8002C6.4 20.8002 6.4 20.8002 6.4 21.0002C6 21.6002 6 21.8002 6 22.0002V34.0002V46.0002C6 46.6002 6.4 47.4002 7 47.6002L29 61.6002C29.4 61.8002 29.8 62.0002 30 62.0002C30.4 62.0002 30.8 61.8002 31.2 61.6002L57.2 43.6002C57.6 43.2002 58 42.8002 58 42.2002C58 41.6002 57.8 41.0002 57.4 40.6002C55.6 38.8002 55.2 36.2002 56.4 33.8002L57.8 30.8002C57.8 30.6002 58 30.4002 58 30.2002V30.0002C58 29.8002 58 29.4002 57.8 29.2002V29.0002C57.8 28.8002 57.6 28.6002 57.4 28.4002C55.6 26.6002 55.2 24.0002 56.4 21.6002L57.8 18.8002ZM53.2 29.6002L30 45.6002L10 33.0002V25.8002L29 37.8002C29.4 38.0002 29.8 38.2002 30 38.2002C30.4 38.2002 30.8 38.0002 31.2 37.8002L51.8 23.6002C51.6 25.6002 52 27.6002 53.2 29.6002ZM30 57.6002L10 45.0002V37.8002L29 49.8002C29.4 50.0002 29.8 50.2002 30 50.2002C30.4 50.2002 30.8 50.0002 31.2 49.8002L51.8 35.6002C51.6 37.8002 52 40.0002 53.2 41.8002L30 57.6002Z" fill="url(#paint0_linear_438_5833)"/>
<defs>
<linearGradient id="paint0_linear_438_5833" x1="6" y1="31.8502" x2="58" y2="31.8502" gradientUnits="userSpaceOnUse">
<stop stop-color="#6B55AE"/>
<stop offset="1" stop-color="#9678F5"/>
</linearGradient>
</defs>
</svg>
