<svg width="24" height="24" viewBox="0 0 24 24" fill="none" xmlns="http://www.w3.org/2000/svg">
<g clip-path="url(#clip0_727_4879)">
<path fill-rule="evenodd" clip-rule="evenodd" d="M11.5321 12.312C12.0481 12.42 12.6001 12.42 13.1161 12.312C13.1161 11.892 13.0201 11.4 13.3921 11.4C13.7521 11.4 13.6801 11.844 13.6801 12.156C14.0401 12.024 14.3281 11.868 14.6521 11.652C14.5201 10.596 13.6201 9.79199 12.5401 9.79199H12.0961C11.0281 9.79199 10.1281 10.596 9.99609 11.652C10.2961 11.856 10.6201 12.036 10.9681 12.156C10.9681 11.844 10.8961 11.4 11.2441 11.4C11.6161 11.4 11.5321 11.892 11.5321 12.312Z" fill="#9678F5"/>
<path fill-rule="evenodd" clip-rule="evenodd" d="M12.3125 9.24003C13.1045 9.24003 13.7525 8.59203 13.7525 7.81203C13.7525 7.02003 13.1045 6.38403 12.3245 6.38403C11.5325 6.38403 10.8965 7.02003 10.8965 7.81203C10.8965 8.59203 11.5325 9.22803 12.3125 9.24003Z" fill="white"/>
<path fill-rule="evenodd" clip-rule="evenodd" d="M12.3237 5.81996C14.2317 5.81996 15.0357 8.27996 13.4997 9.40796C14.2917 9.71996 14.9157 10.392 15.1317 11.244C17.6877 8.72396 15.9117 4.35596 12.3237 4.35596C8.73571 4.35596 6.94771 8.72396 9.50371 11.244C9.71971 10.392 10.3437 9.71996 11.1477 9.40796C9.59971 8.27996 10.4157 5.81996 12.3237 5.81996Z" fill="white"/>
<path fill-rule="evenodd" clip-rule="evenodd" d="M12.3238 3.79189C14.8438 3.79189 16.8958 5.84389 16.8958 8.37589C16.8958 10.9679 14.7718 13.0079 12.2038 12.9479C9.73178 12.8879 7.73978 10.8599 7.73978 8.37589C7.73978 5.84389 9.79178 3.79189 12.3238 3.79189ZM16.5478 13.8599H18.0718C18.4438 13.8599 18.4438 14.4239 18.0718 14.4239H16.5478C16.1758 14.4239 16.1758 13.8599 16.5478 13.8599ZM11.3398 16.0079H18.0718C18.4438 16.0079 18.4438 16.5599 18.0718 16.5599H11.3398C10.9798 16.5599 10.9798 16.0079 11.3398 16.0079ZM16.2958 18.7079C15.9238 18.7079 15.9238 18.1439 16.2958 18.1439H18.0718C18.4438 18.1439 18.4438 18.7079 18.0718 18.7079H16.2958ZM11.5438 20.2919H18.0718C18.4438 20.2919 18.4438 20.8439 18.0718 20.8439H11.5438C11.1718 20.8439 11.1718 20.2919 11.5438 20.2919ZM4.53578 21.9959H20.0998C20.3038 21.9959 20.4718 21.8399 20.4718 21.6359V3.01189C20.4718 2.80789 20.3038 2.63989 20.0998 2.63989H4.53578C4.33178 2.63989 4.17578 2.80789 4.17578 3.01189V21.6359C4.17578 21.8399 4.33178 21.9959 4.53578 21.9959ZM6.56378 13.8599H13.8958C14.2678 13.8599 14.2558 14.4239 13.8958 14.4239H6.56378C6.19178 14.4239 6.19178 13.8599 6.56378 13.8599ZM6.56378 16.0079H9.44378C9.81578 16.0079 9.81578 16.5599 9.44378 16.5599H6.56378C6.19178 16.5599 6.19178 16.0079 6.56378 16.0079ZM6.56378 18.1439H14.1958C14.5678 18.1439 14.5558 18.7079 14.1958 18.7079H6.56378C6.19178 18.7079 6.19178 18.1439 6.56378 18.1439ZM6.56378 20.2919H9.34778C9.70778 20.2919 9.70778 20.8439 9.34778 20.8439H6.56378C6.19178 20.8439 6.19178 20.2919 6.56378 20.2919Z" fill="white"/>
<path fill-rule="evenodd" clip-rule="evenodd" d="M17.7601 20.5319H11.2201C10.8601 20.5319 10.8601 19.9679 11.2201 19.9679H17.7601C18.1321 19.9679 18.1201 20.5319 17.7601 20.5319ZM19.7881 22.2359H4.21209C3.70809 22.2359 3.28809 21.8279 3.28809 21.3119V2.68792C3.28809 2.17192 3.70809 1.76392 4.21209 1.76392H19.7881C20.2921 1.76392 20.7121 2.17192 20.7121 2.68792V21.3119C20.7121 21.8279 20.2921 22.2359 19.7881 22.2359ZM4.21209 2.31592C4.02009 2.31592 3.85209 2.48392 3.85209 2.68792V21.3119C3.85209 21.5159 4.02009 21.6839 4.21209 21.6839H19.7881C19.9801 21.6839 20.1481 21.5159 20.1481 21.3119V2.68792C20.1481 2.48392 19.9801 2.31592 19.7881 2.31592H4.21209ZM7.41609 8.05192C7.41609 5.53192 9.48009 3.46792 12.0001 3.46792C14.5201 3.46792 16.5841 5.53192 16.5841 8.05192C16.5841 10.6439 14.4481 12.6839 11.8801 12.6359C9.40809 12.5639 7.41609 10.5359 7.41609 8.05192ZM12.0001 4.03192C8.41209 4.03192 6.63609 8.41192 9.18009 10.9199C9.40809 10.0679 10.0201 9.39592 10.8241 9.08392C9.28809 7.95592 10.0921 5.49592 12.0001 5.49592C13.9081 5.49592 14.7121 7.95592 13.1761 9.08392C13.9801 9.39592 14.5921 10.0799 14.8201 10.9199C17.3761 8.41192 15.5881 4.03192 12.0001 4.03192ZM9.67209 11.3279C9.97209 11.5439 10.2961 11.7119 10.6441 11.8439C10.6441 11.5199 10.5721 11.0759 10.9321 11.0759C11.3041 11.0759 11.2081 11.5799 11.2081 11.9999C11.7241 12.0959 12.2761 12.0959 12.7921 11.9879C12.7921 11.5799 12.6961 11.0759 13.0801 11.0759C13.4281 11.0759 13.3561 11.5199 13.3561 11.8439C13.7281 11.7119 14.0041 11.5439 14.3281 11.3279C14.1961 10.2839 13.2961 9.47992 12.2161 9.47992H11.7841C10.7041 9.47992 9.80409 10.2839 9.67209 11.3279ZM12.0001 8.91592C12.7801 8.91592 13.4281 8.27992 13.4281 7.48792C13.4281 6.69592 12.7921 6.05992 12.0001 6.05992C11.2201 6.05992 10.5721 6.69592 10.5721 7.48792C10.5721 8.26792 11.2081 8.91592 12.0001 8.91592ZM17.7601 14.0999H16.2241C15.8521 14.0999 15.8521 13.5359 16.2241 13.5359H17.7601C18.1321 13.5359 18.1201 14.0999 17.7601 14.0999ZM13.5721 14.0999H6.24009C5.88009 14.0999 5.88009 13.5359 6.24009 13.5359H13.5721C13.9441 13.5359 13.9441 14.0999 13.5721 14.0999ZM17.7601 16.2479H11.0281C10.6561 16.2479 10.6561 15.6839 11.0281 15.6839H17.7601C18.1321 15.6839 18.1201 16.2479 17.7601 16.2479ZM9.12009 16.2479H6.24009C5.88009 16.2479 5.88009 15.6839 6.24009 15.6839H9.12009C9.49209 15.6839 9.49209 16.2479 9.12009 16.2479ZM17.7601 18.3839H15.9721C15.6121 18.3839 15.6121 17.8199 15.9721 17.8199H17.7601C18.1321 17.8199 18.1201 18.3839 17.7601 18.3839ZM13.8721 18.3839H6.24009C5.88009 18.3839 5.88009 17.8199 6.24009 17.8199H13.8721C14.2441 17.8199 14.2441 18.3839 13.8721 18.3839ZM9.02409 20.5319H6.24009C5.88009 20.5319 5.88009 19.9679 6.24009 19.9679H9.02409C9.39609 19.9679 9.39609 20.5319 9.02409 20.5319Z" fill="#2F2352"/>
</g>
<defs>
<clipPath id="clip0_727_4879">
<rect width="24" height="24" fill="white"/>
</clipPath>
</defs>
</svg>
