<svg width="170" height="54" viewBox="0 0 170 54" fill="none" xmlns="http://www.w3.org/2000/svg">
<path d="M169.109 28.3398C169.658 28.3999 170.054 28.8937 169.994 29.4427L169.014 38.3892C168.954 38.9382 168.46 39.3346 167.911 39.2744C167.362 39.2143 166.966 38.7205 167.026 38.1715L167.897 30.2191L159.945 29.3482C159.396 29.2881 158.999 28.7943 159.059 28.2453C159.12 27.6963 159.613 27.3 160.162 27.3601L169.109 28.3398ZM52.8 20.628L53.7343 20.9845L52.8 20.628ZM129.8 48.921L130.074 49.8828L130.074 49.8828L129.8 48.921ZM50.5 52.5L50.5621 51.5019L50.5 52.5ZM114.4 19.903L113.415 20.076L114.4 19.903ZM166.624 32.3302C166.172 32.6479 165.548 32.5392 165.231 32.0874C164.913 31.6357 165.022 31.0119 165.473 30.6942L166.624 32.3302ZM159.389 34.6787C159.86 34.3903 160.476 34.5384 160.764 35.0094C161.053 35.4804 160.905 36.096 160.434 36.3844L159.389 34.6787ZM154.012 40.0693C153.525 40.3306 152.919 40.1479 152.658 39.6614C152.397 39.1748 152.579 38.5685 153.066 38.3073L154.012 40.0693ZM146.552 41.5706C147.053 41.3374 147.648 41.5543 147.881 42.055C148.114 42.5557 147.897 43.1505 147.396 43.3837L146.552 41.5706ZM140.594 46.3086C140.08 46.5113 139.5 46.2592 139.297 45.7455C139.094 45.2317 139.346 44.6509 139.86 44.4482L140.594 46.3086ZM133.01 46.9026C133.536 46.7334 134.099 47.0224 134.269 47.5481C134.438 48.0738 134.149 48.6372 133.623 48.8064L133.01 46.9026ZM126.079 50.926C125.542 51.0543 125.003 50.7228 124.874 50.1856C124.746 49.6484 125.078 49.109 125.615 48.9807L126.079 50.926ZM117.668 50.5518C118.214 50.4651 118.726 50.837 118.813 51.3824C118.9 51.9278 118.528 52.4403 117.982 52.527L117.668 50.5518ZM109.794 53.5339C109.244 53.5823 108.759 53.1756 108.71 52.6254C108.662 52.0752 109.069 51.59 109.619 51.5416L109.794 53.5339ZM101.52 51.9773C102.072 51.9664 102.528 52.4052 102.539 52.9574C102.55 53.5096 102.111 53.966 101.559 53.9769L101.52 51.9773ZM93.3101 53.8505C92.7585 53.8222 92.3343 53.3522 92.3625 52.8006C92.3908 52.2491 92.8608 51.8249 93.4124 51.8531L93.3101 53.8505ZM85.3413 51.1268C85.8889 51.1985 86.2747 51.7006 86.2029 52.2482C86.1312 52.7958 85.6291 53.1816 85.0815 53.1098L85.3413 51.1268ZM76.9415 51.6603C76.4032 51.5367 76.0671 51.0001 76.1908 50.4618C76.3144 49.9236 76.851 49.5874 77.3893 49.7111L76.9415 51.6603ZM69.66 47.4413C70.1783 47.632 70.4438 48.2068 70.2531 48.7251C70.0624 49.2434 69.4876 49.509 68.9693 49.3182L69.66 47.4413ZM61.409 45.7627C60.9354 45.4787 60.7817 44.8644 61.0658 44.3908C61.3499 43.9172 61.9641 43.7635 62.4377 44.0476L61.409 45.7627ZM56.3444 39.1158C56.7096 39.5301 56.6698 40.162 56.2555 40.5272C55.8412 40.8924 55.2093 40.8526 54.8441 40.4383L56.3444 39.1158ZM50.7624 32.9126C50.6249 32.3777 50.9471 31.8326 51.4821 31.6952C52.017 31.5577 52.562 31.8799 52.6995 32.4149L50.7624 32.9126ZM52.615 24.7713C52.5039 25.3123 51.9753 25.6608 51.4343 25.5498C50.8933 25.4387 50.5448 24.9101 50.6558 24.3691L52.615 24.7713ZM53.525 16.6019C53.7833 16.1137 54.3884 15.9273 54.8766 16.1856C55.3648 16.4439 55.5511 17.049 55.2929 17.5372L53.525 16.6019ZM59.6397 11.4334C59.2612 11.8356 58.6284 11.855 58.2261 11.4765C57.8239 11.0981 57.8045 10.4652 58.183 10.063L59.6397 11.4334ZM64.4352 5.01525C64.9074 4.72882 65.5224 4.87943 65.8088 5.35164C66.0952 5.82385 65.9446 6.43884 65.4724 6.72526L64.4352 5.01525ZM72.3447 3.64846C71.8175 3.81315 71.2567 3.51931 71.092 2.99215C70.9273 2.46499 71.2211 1.90414 71.7483 1.73945L72.3447 3.64846ZM79.581 0.184037C80.1309 0.132159 80.6187 0.53584 80.6706 1.08568C80.7224 1.63553 80.3187 2.12332 79.7689 2.17519L79.581 0.184037ZM87.3633 2.17933C86.8134 2.12809 86.4092 1.64077 86.4604 1.09087C86.5117 0.540965 86.999 0.136716 87.5489 0.187953L87.3633 2.17933ZM95.38 1.64784C95.9113 1.7989 96.2194 2.352 96.0684 2.88322C95.9173 3.41445 95.3642 3.72263 94.833 3.57157L95.38 1.64784ZM101.872 6.35984C101.383 6.10284 101.195 5.49821 101.452 5.00937C101.709 4.52052 102.314 4.33259 102.803 4.58959L101.872 6.35984ZM109.381 9.20871C109.783 9.5873 109.802 10.2202 109.424 10.6223C109.045 11.0244 108.412 11.0434 108.01 10.6649L109.381 9.20871ZM112.343 16.5958C112.118 16.0916 112.344 15.5002 112.848 15.2749C113.352 15.0495 113.944 15.2756 114.169 15.7798L112.343 16.5958ZM115.753 23.9636C115.75 24.5159 115.3 24.9611 114.748 24.9581C114.195 24.955 113.75 24.5049 113.753 23.9526L115.753 23.9636ZM112.138 31.4455C112.365 30.9421 112.957 30.7183 113.461 30.9457C113.964 31.173 114.188 31.7653 113.961 32.2686L112.138 31.4455ZM109.078 39.1752C108.686 39.5649 108.053 39.5635 107.663 39.1721C107.274 38.7807 107.275 38.1475 107.666 37.7579L109.078 39.1752ZM101.407 42.534C101.881 42.2508 102.495 42.4056 102.778 42.8797C103.062 43.3538 102.907 43.9678 102.433 44.251L101.407 42.534ZM94.9666 47.876C94.4527 48.0785 93.872 47.8261 93.6695 47.3123C93.467 46.7985 93.7193 46.2178 94.2331 46.0153L94.9666 47.876ZM86.6062 48.4943C87.1401 48.353 87.6875 48.6712 87.8288 49.2051C87.9702 49.739 87.6519 50.2864 87.118 50.4277L86.6062 48.4943ZM79.0708 52.1595C78.5263 52.2521 78.0099 51.8858 77.9173 51.3413C77.8248 50.7968 78.1911 50.2804 78.7356 50.1878L79.0708 52.1595ZM70.743 51.2325C71.2929 51.1809 71.7804 51.5849 71.832 52.1347C71.8836 52.6846 71.4796 53.1722 70.9297 53.2237L70.743 51.2325ZM62.7367 53.7164C62.1846 53.7317 61.7246 53.2965 61.7093 52.7445C61.694 52.1924 62.1291 51.7324 62.6812 51.7171L62.7367 53.7164ZM54.6009 51.694C55.1529 51.7122 55.5856 52.1743 55.5675 52.7263C55.5493 53.2783 55.0872 53.7111 54.5352 53.6929L54.6009 51.694ZM45.8298 53.0157C45.2833 52.9361 44.9048 52.4285 44.9844 51.882C45.064 51.3355 45.5716 50.957 46.1181 51.0366L45.8298 53.0157ZM37.363 49.1205C37.8937 49.2732 38.2001 49.8273 38.0474 50.3581C37.8946 50.8888 37.3406 51.1952 36.8098 51.0425L37.363 49.1205ZM28.1146 48.0153C27.6029 47.8075 27.3565 47.2242 27.5643 46.7125C27.7721 46.2008 28.3554 45.9544 28.8671 46.1622L28.1146 48.0153ZM20.6709 42.4061C21.163 42.6567 21.3588 43.2588 21.1082 43.751C20.8576 44.2431 20.2554 44.4389 19.7633 44.1883L20.6709 42.4061ZM11.7417 39.719C11.2692 39.433 11.118 38.8182 11.404 38.3457C11.69 37.8732 12.3049 37.722 12.7773 38.008L11.7417 39.719ZM5.21748 33.0604C5.66824 33.3795 5.77497 34.0036 5.45585 34.4544C5.13674 34.9051 4.51263 35.0119 4.06187 34.6927L5.21748 33.0604ZM169 29.3339C169.626 30.1137 169.626 30.1138 169.626 30.1138C169.626 30.1138 169.626 30.1139 169.626 30.1139C169.626 30.114 169.626 30.1141 169.625 30.1142C169.625 30.1144 169.625 30.1146 169.624 30.1149C169.624 30.1155 169.623 30.1163 169.622 30.1173C169.619 30.1192 169.616 30.122 169.611 30.1256C169.602 30.1328 169.589 30.1431 169.572 30.1565C169.538 30.1834 169.488 30.2226 169.423 30.2736C169.292 30.3756 169.099 30.5247 168.845 30.7159C168.339 31.0984 167.592 31.6496 166.624 32.3302L165.473 30.6942C166.422 30.0274 167.15 29.4895 167.64 29.1196C167.885 28.9347 168.071 28.7919 168.194 28.6959C168.255 28.648 168.301 28.6118 168.331 28.5879C168.346 28.576 168.358 28.5671 168.365 28.5615C168.368 28.5586 168.371 28.5566 168.372 28.5553C168.373 28.5547 168.374 28.5543 168.374 28.5541C168.374 28.5539 168.374 28.5539 168.374 28.5539C168.374 28.5539 168.374 28.5539 168.374 28.5539C168.374 28.5539 168.374 28.5539 168.374 28.5539C168.374 28.554 168.374 28.554 169 29.3339ZM160.434 36.3844C158.543 37.5421 156.392 38.7914 154.012 40.0693L153.066 38.3073C155.41 37.0487 157.528 35.8184 159.389 34.6787L160.434 36.3844ZM147.396 43.3837C145.248 44.3839 142.976 45.3689 140.594 46.3086L139.86 44.4482C142.202 43.5241 144.438 42.5551 146.552 41.5706L147.396 43.3837ZM133.623 48.8064C132.459 49.1811 131.276 49.5408 130.074 49.8828L129.526 47.9591C130.706 47.6236 131.867 47.2705 133.01 46.9026L133.623 48.8064ZM130.074 49.8828C128.763 50.2557 127.43 50.6035 126.079 50.926L125.615 48.9807C126.939 48.6646 128.244 48.324 129.526 47.9591L130.074 49.8828ZM117.982 52.527C115.284 52.9561 112.545 53.2919 109.794 53.5339L109.619 51.5416C112.324 51.3036 115.017 50.9734 117.668 50.5518L117.982 52.527ZM101.559 53.9769C98.7859 54.0314 96.0269 53.9896 93.3101 53.8505L93.4124 51.8531C96.0807 51.9898 98.7925 52.0309 101.52 51.9773L101.559 53.9769ZM85.0815 53.1098C82.2755 52.7421 79.5502 52.2596 76.9415 51.6603L77.3893 49.7111C79.9307 50.2949 82.5929 50.7666 85.3413 51.1268L85.0815 53.1098ZM68.9693 49.3182C66.217 48.3054 63.6754 47.1221 61.409 45.7627L62.4377 44.0476C64.5795 45.3323 67.0047 46.4642 69.66 47.4413L68.9693 49.3182ZM54.8441 40.4383C52.891 38.2225 51.4823 35.7144 50.7624 32.9126L52.6995 32.4149C53.3318 34.8759 54.5744 37.1077 56.3444 39.1158L54.8441 40.4383ZM50.6558 24.3691C50.9283 23.0417 51.3299 21.6757 51.8657 20.2715L53.7343 20.9845C53.2338 22.2962 52.864 23.5583 52.615 24.7713L50.6558 24.3691ZM51.8657 20.2715C52.3578 18.982 52.9127 17.7593 53.525 16.6019L55.2929 17.5372C54.7193 18.6213 54.1979 19.7697 53.7343 20.9845L51.8657 20.2715ZM58.183 10.063C60.0638 8.06365 62.171 6.38864 64.4352 5.01525L65.4724 6.72526C63.3551 8.00954 61.3907 9.57202 59.6397 11.4334L58.183 10.063ZM71.7483 1.73945C74.293 0.944467 76.9272 0.434423 79.581 0.184037L79.7689 2.17519C77.244 2.41342 74.7474 2.89784 72.3447 3.64846L71.7483 1.73945ZM87.5489 0.187953C90.2291 0.437677 92.8636 0.932263 95.38 1.64784L94.833 3.57157C92.4356 2.88986 89.9221 2.41774 87.3633 2.17933L87.5489 0.187953ZM102.803 4.58959C105.267 5.8852 107.497 7.43453 109.381 9.20871L108.01 10.6649C106.274 9.0304 104.197 7.58243 101.872 6.35984L102.803 4.58959ZM114.169 15.7798C114.732 17.0387 115.144 18.3579 115.385 19.7301L113.415 20.076C113.204 18.8727 112.842 17.7111 112.343 16.5958L114.169 15.7798ZM115.385 19.7301C115.64 21.1812 115.761 22.5928 115.753 23.9636L113.753 23.9526C113.76 22.7073 113.65 21.4153 113.415 20.076L115.385 19.7301ZM113.961 32.2686C112.817 34.8018 111.158 37.1038 109.078 39.1752L107.666 37.7579C109.598 35.8347 111.107 33.7292 112.138 31.4455L113.961 32.2686ZM102.433 44.251C100.165 45.6059 97.6615 46.8137 94.9666 47.876L94.2331 46.0153C96.8413 44.9873 99.2446 43.8257 101.407 42.534L102.433 44.251ZM87.118 50.4277C84.5436 51.1093 81.8528 51.6866 79.0708 52.1595L78.7356 50.1878C81.463 49.7242 84.0945 49.1593 86.6062 48.4943L87.118 50.4277ZM70.9297 53.2237C68.2503 53.475 65.5131 53.6393 62.7367 53.7164L62.6812 51.7171C65.4154 51.6413 68.1088 51.4795 70.743 51.2325L70.9297 53.2237ZM54.5352 53.6929C53.1737 53.6482 51.8073 53.5833 50.4379 53.4981L50.5621 51.5019C51.912 51.5859 53.259 51.6499 54.6009 51.694L54.5352 53.6929ZM50.4379 53.4981C48.8964 53.4022 47.3585 53.2384 45.8298 53.0157L46.1181 51.0366C47.596 51.2519 49.079 51.4097 50.5621 51.5019L50.4379 53.4981ZM36.8098 51.0425C33.8183 50.1815 30.9049 49.1484 28.1146 48.0153L28.8671 46.1622C31.6011 47.2725 34.4477 48.2815 37.363 49.1205L36.8098 51.0425ZM19.7633 44.1883C16.8328 42.696 14.1345 41.1673 11.7417 39.719L12.7773 38.008C15.1342 39.4346 17.7896 40.9388 20.6709 42.4061L19.7633 44.1883ZM4.06187 34.6927C2.88815 33.8618 1.96903 33.1783 1.34176 32.7012C1.0281 32.4627 0.78736 32.2757 0.624181 32.1477C0.54259 32.0837 0.480385 32.0344 0.438148 32.0008C0.417029 31.984 0.400901 31.9711 0.389838 31.9622C0.384306 31.9578 0.38004 31.9544 0.377049 31.952C0.375554 31.9508 0.374377 31.9498 0.37352 31.9491C0.373092 31.9488 0.372744 31.9485 0.372475 31.9483C0.372341 31.9482 0.372227 31.9481 0.372133 31.948C0.372086 31.948 0.37203 31.9479 0.372007 31.9479C0.371956 31.9479 0.371911 31.9478 0.999997 31.1697C1.62808 30.3915 1.62805 30.3915 1.62802 30.3915C1.62801 30.3915 1.62799 30.3915 1.62798 30.3914C1.62797 30.3914 1.62797 30.3914 1.628 30.3915C1.62805 30.3915 1.62818 30.3916 1.62839 30.3918C1.62882 30.3921 1.62956 30.3927 1.63062 30.3936C1.63273 30.3953 1.63612 30.398 1.64077 30.4017C1.65007 30.4092 1.66441 30.4206 1.68372 30.436C1.72235 30.4668 1.78086 30.5131 1.85867 30.5742C2.01429 30.6963 2.24711 30.8771 2.55246 31.1093C3.16321 31.5738 4.06393 32.2437 5.21748 33.0604L4.06187 34.6927Z" fill="url(#paint0_linear_438_5739)"/>
<defs>
<linearGradient id="paint0_linear_438_5739" x1="169" y1="27" x2="0.999998" y2="27" gradientUnits="userSpaceOnUse">
<stop stop-color="#6B55AE"/>
<stop offset="1" stop-color="#9678F5"/>
</linearGradient>
</defs>
</svg>
