<svg width="170" height="54" viewBox="0 0 170 54" fill="none" xmlns="http://www.w3.org/2000/svg">
<path d="M169.109 25.6602C169.658 25.6001 170.054 25.1063 169.994 24.5573L169.014 15.6108C168.954 15.0618 168.46 14.6654 167.911 14.7256C167.362 14.7857 166.966 15.2795 167.026 15.8285L167.897 23.7809L159.945 24.6518C159.396 24.7119 158.999 25.2057 159.059 25.7547C159.12 26.3037 159.613 26.7 160.162 26.6399L169.109 25.6602ZM52.8 33.372L53.7343 33.0155L52.8 33.372ZM129.8 5.07902L130.074 4.1172L130.074 4.1172L129.8 5.07902ZM50.5 1.5L50.5621 2.49807L50.5 1.5ZM114.4 34.097L113.415 33.924L114.4 34.097ZM166.624 21.6698C166.172 21.3521 165.548 21.4608 165.231 21.9126C164.913 22.3643 165.022 22.9881 165.473 23.3058L166.624 21.6698ZM159.389 19.3213C159.86 19.6097 160.476 19.4616 160.764 18.9906C161.053 18.5196 160.905 17.904 160.434 17.6156L159.389 19.3213ZM154.012 13.9307C153.525 13.6694 152.919 13.8521 152.658 14.3386C152.397 14.8252 152.579 15.4315 153.066 15.6927L154.012 13.9307ZM146.552 12.4294C147.053 12.6626 147.648 12.4457 147.881 11.945C148.114 11.4443 147.897 10.8495 147.396 10.6163L146.552 12.4294ZM140.594 7.69136C140.08 7.48865 139.5 7.74079 139.297 8.25453C139.094 8.76827 139.346 9.34906 139.86 9.55177L140.594 7.69136ZM133.01 7.09739C133.536 7.26663 134.099 6.97765 134.269 6.45194C134.438 5.92622 134.149 5.36285 133.623 5.19361L133.01 7.09739ZM126.079 3.07397C125.542 2.94572 125.003 3.27722 124.874 3.81441C124.746 4.3516 125.078 4.89104 125.615 5.01929L126.079 3.07397ZM117.668 3.4482C118.214 3.53491 118.726 3.16304 118.813 2.61761C118.9 2.07218 118.528 1.55972 117.982 1.473L117.668 3.4482ZM109.794 0.466071C109.244 0.417677 108.759 0.824439 108.71 1.3746C108.662 1.92476 109.069 2.40998 109.619 2.45838L109.794 0.466071ZM101.52 2.02274C102.072 2.0336 102.528 1.59478 102.539 1.0426C102.55 0.490419 102.111 0.0339869 101.559 0.0231269L101.52 2.02274ZM93.3101 0.149516C92.7585 0.177763 92.3343 0.64779 92.3625 1.19935C92.3908 1.75091 92.8608 2.17514 93.4124 2.1469L93.3101 0.149516ZM85.3413 2.87324C85.8889 2.80149 86.2747 2.2994 86.2029 1.75179C86.1312 1.20419 85.6291 0.818438 85.0815 0.890195L85.3413 2.87324ZM76.9415 2.33968C76.4032 2.46332 76.0671 2.9999 76.1908 3.53817C76.3144 4.07644 76.851 4.41256 77.3893 4.28891L76.9415 2.33968ZM69.66 6.5587C70.1783 6.36797 70.4438 5.79318 70.2531 5.27488C70.0624 4.75657 69.4876 4.49102 68.9693 4.68176L69.66 6.5587ZM61.409 8.23726C60.9354 8.52134 60.7817 9.13558 61.0658 9.6092C61.3499 10.0828 61.9641 10.2365 62.4377 9.95238L61.409 8.23726ZM56.3444 14.8842C56.7096 14.4699 56.6698 13.838 56.2555 13.4728C55.8412 13.1076 55.2093 13.1474 54.8441 13.5617L56.3444 14.8842ZM50.7624 21.0874C50.6249 21.6223 50.9471 22.1674 51.4821 22.3048C52.017 22.4423 52.562 22.1201 52.6995 21.5851L50.7624 21.0874ZM52.615 29.2287C52.5039 28.6877 51.9753 28.3392 51.4343 28.4502C50.8933 28.5613 50.5448 29.0899 50.6558 29.6309L52.615 29.2287ZM53.525 37.3981C53.7833 37.8863 54.3884 38.0727 54.8766 37.8144C55.3648 37.5561 55.5511 36.951 55.2929 36.4628L53.525 37.3981ZM59.6397 42.5666C59.2612 42.1644 58.6284 42.145 58.2261 42.5235C57.8239 42.9019 57.8045 43.5348 58.183 43.937L59.6397 42.5666ZM64.4352 48.9848C64.9074 49.2712 65.5224 49.1206 65.8088 48.6484C66.0952 48.1762 65.9446 47.5612 65.4724 47.2747L64.4352 48.9848ZM72.3447 50.3515C71.8175 50.1868 71.2567 50.4807 71.092 51.0078C70.9273 51.535 71.2211 52.0959 71.7483 52.2605L72.3447 50.3515ZM79.581 53.816C80.1309 53.8678 80.6187 53.4642 80.6706 52.9143C80.7224 52.3645 80.3187 51.8767 79.7689 51.8248L79.581 53.816ZM87.3633 51.8207C86.8134 51.8719 86.4092 52.3592 86.4604 52.9091C86.5117 53.459 86.999 53.8633 87.5489 53.812L87.3633 51.8207ZM95.38 52.3522C95.9113 52.2011 96.2194 51.648 96.0684 51.1168C95.9173 50.5856 95.3642 50.2774 94.833 50.4284L95.38 52.3522ZM101.872 47.6402C101.383 47.8972 101.195 48.5018 101.452 48.9906C101.709 49.4795 102.314 49.6674 102.803 49.4104L101.872 47.6402ZM109.381 44.7913C109.783 44.4127 109.802 43.7798 109.424 43.3777C109.045 42.9756 108.412 42.9566 108.01 43.3351L109.381 44.7913ZM112.343 37.4042C112.118 37.9084 112.344 38.4998 112.848 38.7251C113.352 38.9505 113.944 38.7244 114.169 38.2202L112.343 37.4042ZM115.753 30.0364C115.75 29.4841 115.3 29.0389 114.748 29.0419C114.195 29.045 113.75 29.4951 113.753 30.0474L115.753 30.0364ZM112.138 22.5545C112.365 23.0579 112.957 23.2817 113.461 23.0543C113.964 22.827 114.188 22.2347 113.961 21.7314L112.138 22.5545ZM109.078 14.8248C108.686 14.4351 108.053 14.4365 107.663 14.8279C107.274 15.2193 107.275 15.8525 107.666 16.2421L109.078 14.8248ZM101.407 11.466C101.881 11.7492 102.495 11.5944 102.778 11.1203C103.062 10.6462 102.907 10.0322 102.433 9.74897L101.407 11.466ZM94.9666 6.12404C94.4527 5.92152 93.872 6.17386 93.6695 6.68767C93.467 7.20149 93.7193 7.78219 94.2331 7.98472L94.9666 6.12404ZM86.6062 5.50568C87.1401 5.64703 87.6875 5.32881 87.8288 4.79492C87.9702 4.26103 87.6519 3.71364 87.118 3.57229L86.6062 5.50568ZM79.0708 1.84045C78.5263 1.74789 78.0099 2.11423 77.9173 2.65871C77.8248 3.20318 78.1911 3.7196 78.7356 3.81216L79.0708 1.84045ZM70.743 2.76752C71.2929 2.81909 71.7804 2.41513 71.832 1.86526C71.8836 1.31539 71.4796 0.827823 70.9297 0.776256L70.743 2.76752ZM62.7367 0.28365C62.1846 0.268333 61.7246 0.70346 61.7093 1.25553C61.694 1.8076 62.1291 2.26756 62.6812 2.28288L62.7367 0.28365ZM54.6009 2.30598C55.1529 2.28784 55.5856 1.82566 55.5675 1.27368C55.5493 0.721688 55.0872 0.288919 54.5352 0.307058L54.6009 2.30598ZM45.8298 0.984282C45.2833 1.0639 44.9048 1.57148 44.9844 2.118C45.064 2.66451 45.5716 3.04301 46.1181 2.96339L45.8298 0.984282ZM37.363 4.87951C37.8937 4.72677 38.2001 4.17269 38.0474 3.64195C37.8946 3.11121 37.3406 2.80478 36.8098 2.95753L37.363 4.87951ZM28.1146 5.98472C27.6029 6.19251 27.3565 6.77578 27.5643 7.28748C27.7721 7.79918 28.3554 8.04555 28.8671 7.83776L28.1146 5.98472ZM20.6709 11.5939C21.163 11.3433 21.3588 10.7412 21.1082 10.249C20.8576 9.75689 20.2554 9.56109 19.7633 9.81171L20.6709 11.5939ZM11.7417 14.281C11.2692 14.567 11.118 15.1818 11.404 15.6543C11.69 16.1268 12.3049 16.278 12.7773 15.992L11.7417 14.281ZM5.21748 20.9396C5.66824 20.6205 5.77497 19.9964 5.45585 19.5456C5.13674 19.0949 4.51263 18.9881 4.06187 19.3073L5.21748 20.9396ZM169 24.6661C169.626 23.8863 169.626 23.8862 169.626 23.8862C169.626 23.8862 169.626 23.8861 169.626 23.8861C169.626 23.886 169.626 23.8859 169.625 23.8858C169.625 23.8856 169.625 23.8854 169.624 23.8851C169.624 23.8845 169.623 23.8837 169.622 23.8827C169.619 23.8808 169.616 23.878 169.611 23.8744C169.602 23.8672 169.589 23.8569 169.572 23.8435C169.538 23.8166 169.488 23.7774 169.423 23.7264C169.292 23.6244 169.099 23.4753 168.845 23.2841C168.339 22.9016 167.592 22.3504 166.624 21.6698L165.473 23.3058C166.422 23.9726 167.15 24.5105 167.64 24.8804C167.885 25.0653 168.071 25.2081 168.194 25.3041C168.255 25.352 168.301 25.3882 168.331 25.4121C168.346 25.424 168.358 25.4329 168.365 25.4385C168.368 25.4414 168.371 25.4434 168.372 25.4447C168.373 25.4453 168.374 25.4457 168.374 25.4459C168.374 25.4461 168.374 25.4461 168.374 25.4461C168.374 25.4461 168.374 25.4461 168.374 25.4461C168.374 25.4461 168.374 25.4461 168.374 25.4461C168.374 25.446 168.374 25.446 169 24.6661ZM160.434 17.6156C158.543 16.4579 156.392 15.2086 154.012 13.9307L153.066 15.6927C155.41 16.9513 157.528 18.1816 159.389 19.3213L160.434 17.6156ZM147.396 10.6163C145.248 9.61615 142.976 8.63114 140.594 7.69136L139.86 9.55177C142.202 10.4759 144.438 11.4449 146.552 12.4294L147.396 10.6163ZM133.623 5.19361C132.459 4.8189 131.276 4.45917 130.074 4.1172L129.526 6.04085C130.706 6.37638 131.867 6.72946 133.01 7.09739L133.623 5.19361ZM130.074 4.1172C128.763 3.74426 127.43 3.39649 126.079 3.07397L125.615 5.01929C126.939 5.33542 128.244 5.676 129.526 6.04085L130.074 4.1172ZM117.982 1.473C115.284 1.04395 112.545 0.708054 109.794 0.466071L109.619 2.45838C112.324 2.69638 115.017 3.02664 117.668 3.4482L117.982 1.473ZM101.559 0.0231269C98.7859 -0.031412 96.0269 0.0103807 93.3101 0.149516L93.4124 2.1469C96.0807 2.01024 98.7925 1.9691 101.52 2.02274L101.559 0.0231269ZM85.0815 0.890195C82.2755 1.25788 79.5502 1.74044 76.9415 2.33968L77.3893 4.28891C79.9307 3.70514 82.5929 3.23339 85.3413 2.87324L85.0815 0.890195ZM68.9693 4.68176C66.217 5.69458 63.6754 6.87786 61.409 8.23726L62.4377 9.95238C64.5795 8.66772 67.0047 7.53583 69.66 6.5587L68.9693 4.68176ZM54.8441 13.5617C52.891 15.7775 51.4823 18.2856 50.7624 21.0874L52.6995 21.5851C53.3318 19.1241 54.5744 16.8923 56.3444 14.8842L54.8441 13.5617ZM50.6558 29.6309C50.9283 30.9583 51.3299 32.3243 51.8657 33.7285L53.7343 33.0155C53.2338 31.7038 52.864 30.4417 52.615 29.2287L50.6558 29.6309ZM51.8657 33.7285C52.3578 35.018 52.9127 36.2407 53.525 37.3981L55.2929 36.4628C54.7193 35.3787 54.1979 34.2303 53.7343 33.0155L51.8657 33.7285ZM58.183 43.937C60.0638 45.9364 62.171 47.6114 64.4352 48.9848L65.4724 47.2747C63.3551 45.9905 61.3907 44.428 59.6397 42.5666L58.183 43.937ZM71.7483 52.2605C74.293 53.0555 76.9272 53.5656 79.581 53.816L79.7689 51.8248C77.244 51.5866 74.7474 51.1022 72.3447 50.3515L71.7483 52.2605ZM87.5489 53.812C90.2291 53.5623 92.8636 53.0677 95.38 52.3522L94.833 50.4284C92.4356 51.1101 89.9221 51.5823 87.3633 51.8207L87.5489 53.812ZM102.803 49.4104C105.267 48.1148 107.497 46.5655 109.381 44.7913L108.01 43.3351C106.274 44.9696 104.197 46.4176 101.872 47.6402L102.803 49.4104ZM114.169 38.2202C114.732 36.9613 115.144 35.6421 115.385 34.2699L113.415 33.924C113.204 35.1273 112.842 36.2889 112.343 37.4042L114.169 38.2202ZM115.385 34.2699C115.64 32.8188 115.761 31.4072 115.753 30.0364L113.753 30.0474C113.76 31.2927 113.65 32.5847 113.415 33.924L115.385 34.2699ZM113.961 21.7314C112.817 19.1982 111.158 16.8962 109.078 14.8248L107.666 16.2421C109.598 18.1653 111.107 20.2708 112.138 22.5545L113.961 21.7314ZM102.433 9.74897C100.165 8.39413 97.6615 7.18629 94.9666 6.12404L94.2331 7.98472C96.8413 9.01274 99.2446 10.1743 101.407 11.466L102.433 9.74897ZM87.118 3.57229C84.5436 2.89071 81.8528 2.31342 79.0708 1.84045L78.7356 3.81216C81.463 4.27584 84.0945 4.84072 86.6062 5.50568L87.118 3.57229ZM70.9297 0.776256C68.2503 0.524979 65.5131 0.360678 62.7367 0.28365L62.6812 2.28288C65.4154 2.35874 68.1088 2.52048 70.743 2.76752L70.9297 0.776256ZM54.5352 0.307058C53.1737 0.351797 51.8073 0.416739 50.4379 0.501928L50.5621 2.49807C51.912 2.41409 53.259 2.35007 54.6009 2.30598L54.5352 0.307058ZM50.4379 0.501928C48.8964 0.597829 47.3585 0.761572 45.8298 0.984282L46.1181 2.96339C47.596 2.74809 49.079 2.59033 50.5621 2.49807L50.4379 0.501928ZM36.8098 2.95753C33.8183 3.81848 30.9049 4.85164 28.1146 5.98472L28.8671 7.83776C31.6011 6.72753 34.4477 5.71851 37.363 4.87951L36.8098 2.95753ZM19.7633 9.81171C16.8328 11.304 14.1345 12.8327 11.7417 14.281L12.7773 15.992C15.1342 14.5654 17.7896 13.0612 20.6709 11.5939L19.7633 9.81171ZM4.06187 19.3073C2.88815 20.1382 1.96903 20.8217 1.34176 21.2988C1.0281 21.5373 0.78736 21.7243 0.624181 21.8523C0.54259 21.9163 0.480385 21.9656 0.438148 21.9992C0.417029 22.016 0.400901 22.0289 0.389838 22.0378C0.384306 22.0422 0.38004 22.0456 0.377049 22.048C0.375554 22.0492 0.374377 22.0502 0.37352 22.0509C0.373092 22.0512 0.372744 22.0515 0.372475 22.0517C0.372341 22.0518 0.372227 22.0519 0.372133 22.052C0.372086 22.052 0.37203 22.0521 0.372007 22.0521C0.371956 22.0521 0.371911 22.0522 0.999997 22.8303C1.62808 23.6085 1.62805 23.6085 1.62802 23.6085C1.62801 23.6085 1.62799 23.6085 1.62798 23.6086C1.62797 23.6086 1.62797 23.6086 1.628 23.6085C1.62805 23.6085 1.62818 23.6084 1.62839 23.6082C1.62882 23.6079 1.62956 23.6073 1.63062 23.6064C1.63273 23.6047 1.63612 23.602 1.64077 23.5983C1.65007 23.5908 1.66441 23.5794 1.68372 23.564C1.72235 23.5332 1.78086 23.4869 1.85867 23.4258C2.01429 23.3037 2.24711 23.1229 2.55246 22.8907C3.16321 22.4262 4.06393 21.7563 5.21748 20.9396L4.06187 19.3073Z" fill="url(#paint0_linear_438_5738)"/>
<defs>
<linearGradient id="paint0_linear_438_5738" x1="169" y1="27" x2="0.999998" y2="27" gradientUnits="userSpaceOnUse">
<stop stop-color="#6B55AE"/>
<stop offset="1" stop-color="#9678F5"/>
</linearGradient>
</defs>
</svg>
