<svg width="24" height="25" viewBox="0 0 24 25" fill="none" xmlns="http://www.w3.org/2000/svg">
<path d="M23.0963 12.4767C22.8976 12.2104 18.1013 5.99292 12.0001 5.99292C5.89881 5.99292 1.10256 12.2104 0.903808 12.4767C0.804657 12.6072 0.750977 12.7665 0.750977 12.9304C0.750977 13.0943 0.804657 13.2537 0.903808 13.3842C1.10256 13.6504 5.89881 19.8679 12.0001 19.8679C18.1013 19.8679 22.8976 13.6504 23.0963 13.3842C23.1955 13.2537 23.2491 13.0943 23.2491 12.9304C23.2491 12.7665 23.1955 12.6072 23.0963 12.4767ZM12.0001 18.3679C7.53756 18.3679 3.66006 14.3104 2.47131 12.9304C3.66006 11.5467 7.52631 7.49292 12.0001 7.49292C16.4738 7.49292 20.3401 11.5504 21.5288 12.9304C20.3401 14.3142 16.4738 18.3679 12.0001 18.3679Z" fill="#607680"/>
<path d="M11.9999 9.61167C11.3435 9.61167 10.7019 9.80631 10.1561 10.171C9.61034 10.5357 9.18497 11.054 8.93378 11.6604C8.68259 12.2668 8.61687 12.9341 8.74492 13.5779C8.87298 14.2217 9.18906 14.813 9.65319 15.2771C10.1173 15.7413 10.7087 16.0573 11.3524 16.1854C11.9962 16.3135 12.6635 16.2477 13.2699 15.9965C13.8764 15.7454 14.3947 15.32 14.7593 14.7742C15.124 14.2285 15.3187 13.5868 15.3187 12.9304C15.3177 12.0505 14.9677 11.207 14.3455 10.5848C13.7233 9.96264 12.8798 9.61266 11.9999 9.61167ZM11.9999 14.7492C11.6402 14.7492 11.2886 14.6425 10.9895 14.4427C10.6904 14.2428 10.4573 13.9588 10.3196 13.6264C10.1819 13.2941 10.1459 12.9284 10.2161 12.5756C10.2863 12.2228 10.4595 11.8987 10.7139 11.6444C10.9682 11.39 11.2923 11.2168 11.6451 11.1466C11.9979 11.0764 12.3636 11.1125 12.6959 11.2501C13.0282 11.3878 13.3123 11.6209 13.5121 11.92C13.712 12.2191 13.8187 12.5707 13.8187 12.9304C13.8177 13.4125 13.6257 13.8745 13.2849 14.2154C12.944 14.5562 12.482 14.7482 11.9999 14.7492Z" fill="#607680"/>
</svg>
