<svg width="24" height="25" viewBox="0 0 24 25" fill="none" xmlns="http://www.w3.org/2000/svg">
<g clip-path="url(#clip0_482_700)">
<path fill-rule="evenodd" clip-rule="evenodd" d="M5.01798 12.9304C5.01798 12.1683 5.14725 11.4376 5.37798 10.7523L1.33943 7.73254C0.552341 9.29734 0.108887 11.0605 0.108887 12.9304C0.108887 14.7987 0.551796 16.5608 1.3378 18.1245L5.37416 15.0989C5.14561 14.4168 5.01798 13.6888 5.01798 12.9304Z" fill="#FBBC05"/>
<path fill-rule="evenodd" clip-rule="evenodd" d="M12.1088 5.99708C13.7997 5.99708 15.327 6.58375 16.527 7.54375L20.0179 4.13042C17.8906 2.31708 15.1634 1.19708 12.1088 1.19708C7.36663 1.19708 3.29099 3.85255 1.33936 7.73255L5.3779 10.7523C6.30845 7.98642 8.96099 5.99708 12.1088 5.99708Z" fill="#EA4335"/>
<path fill-rule="evenodd" clip-rule="evenodd" d="M12.1088 19.8638C8.96099 19.8638 6.30845 17.8744 5.3779 15.1086L1.33936 18.1278C3.29099 22.0083 7.36663 24.6638 12.1088 24.6638C15.0357 24.6638 17.8301 23.6462 19.9274 21.7395L16.0939 18.8376C15.0123 19.5048 13.6503 19.8638 12.1088 19.8638Z" fill="#34A853"/>
<path fill-rule="evenodd" clip-rule="evenodd" d="M23.5634 12.9304C23.5634 12.2371 23.4543 11.4904 23.2907 10.7971H12.1089V15.3304H18.5452C18.2234 16.876 17.3474 18.0643 16.094 18.8376L19.9274 21.7395C22.1305 19.7374 23.5634 16.755 23.5634 12.9304Z" fill="#4285F4"/>
</g>
<defs>
<clipPath id="clip0_482_700">
<rect width="24" height="24" fill="white" transform="translate(0 0.93042)"/>
</clipPath>
</defs>
</svg>
