<svg width="24" height="24" viewBox="0 0 24 24" fill="none" xmlns="http://www.w3.org/2000/svg">
<path d="M12.17 9L9 12.16V12C9 11.2044 9.31607 10.4413 9.87868 9.87868C10.4413 9.31607 11.2044 9 12 9H12.17ZM16.47 9.8L14.92 11.35C14.97 11.56 15 11.77 15 12C15 12.7956 14.6839 13.5587 14.1213 14.1213C13.5587 14.6839 12.7956 15 12 15C11.78 15 11.56 14.97 11.35 14.92L9.8 16.47C10.47 16.8 11.21 17 12 17C13.3261 17 14.5979 16.4732 15.5355 15.5355C16.4732 14.5979 17 13.3261 17 12C17 11.21 16.8 10.47 16.47 9.8ZM22 4.27L19.72 6.55L19.27 7C20.92 8.3 22.22 10 23 12C21.27 16.39 17 19.5 12 19.5C10.45 19.5 8.97 19.2 7.62 18.66L7.19 19.08L4.27 22L3 20.73L20.73 3M12 7C10.6739 7 9.40215 7.52678 8.46447 8.46447C7.52678 9.40215 7 10.6739 7 12C7 12.64 7.13 13.26 7.36 13.82L4.43 16.75C2.93 15.5 1.73 13.86 1 12C2.73 7.61 7 4.5 12 4.5C13.4 4.5 14.74 4.75 16 5.2L13.83 7.35C13.26 7.13 12.65 7 12 7Z" fill="#607680"/>
</svg>
