<svg width="21" height="22" viewBox="0 0 21 22" fill="none" xmlns="http://www.w3.org/2000/svg">
<path d="M6.75 3.5C6.75 2.2535 7.7535 1.25 9 1.25H18C19.2465 1.25 20.25 2.2535 20.25 3.5V18.5C20.25 19.7465 19.2465 20.75 18 20.75H9C7.7535 20.75 6.75 19.7465 6.75 18.5V3.5Z" fill="#E6DFFD"/>
<path d="M9 1.25C7.7535 1.25 6.75 2.2535 6.75 3.5C6.75 8.5 6.75 13.5 6.75 18.5C6.75 19.7465 7.7535 20.75 9 20.75H10.5C9.2535 20.75 8.24998 19.7465 8.24998 18.5C8.24998 13.5 8.24998 8.5 8.24998 3.5C8.24998 2.2535 9.2535 1.25 10.5 1.25H9Z" fill="white"/>
<path d="M12.0366 5.78662C11.6532 5.78662 11.2699 5.93374 10.9761 6.22754C10.3885 6.81514 10.3885 7.76102 10.9761 8.34863L12.1274 9.5H2.25C1.419 9.5 0.749993 10.169 0.749993 11C0.749993 11.831 1.419 12.5 2.25 12.5H12.1274L10.9761 13.6514C10.3885 14.239 10.3885 15.1848 10.9761 15.7725C11.5637 16.3601 12.5095 16.3601 13.0972 15.7725L16.8091 12.0605C17.3967 11.4729 17.3967 10.5271 16.8091 9.93945L13.0972 6.22754C12.8034 5.93373 12.42 5.78662 12.0366 5.78662Z" fill="#E6DFFD"/>
<path d="M10.9761 6.22754C10.3885 6.81514 10.3885 7.76102 10.9761 8.34863L12.1274 9.5L13.6274 9.5L12.4761 8.34863C11.8885 7.76102 11.8885 6.81514 12.4761 6.22754C12.5705 6.13303 12.6765 6.05876 12.7866 5.99461C12.5545 5.85937 12.2967 5.78661 12.0366 5.78662C11.6532 5.78662 11.2699 5.93374 10.9761 6.22754Z" fill="white"/>
<path d="M2.25 9.5C1.419 9.5 0.749993 10.169 0.749993 11C0.749993 11.831 1.419 12.5 2.25 12.5H3.74998C2.91901 12.5 2.25 11.831 2.25 11C2.25 10.169 2.91901 9.5 3.74998 9.5L2.25 9.5Z" fill="white"/>
<path d="M12.1274 12.5L10.9761 13.6514C10.3885 14.239 10.3885 15.1848 10.9761 15.7725C11.4692 16.2656 12.2124 16.3399 12.7866 16.0054C12.6766 15.9413 12.5706 15.867 12.4761 15.7725C11.8885 15.1849 11.8885 14.239 12.4761 13.6514L13.6274 12.5L12.1274 12.5Z" fill="white"/>
<path d="M16.5 1.25C17.7465 1.25 18.75 2.2535 18.75 3.5V18.5C18.75 19.7465 17.7465 20.75 16.5 20.75H18C19.2465 20.75 20.25 19.7465 20.25 18.5V3.5C20.25 2.2535 19.2465 1.25 18 1.25H16.5Z" fill="#9678F5"/>
<path d="M11.2871 5.99462C11.3971 6.05877 11.5031 6.13301 11.5976 6.22754L15.3096 9.93946C15.8972 10.5271 15.8972 11.4729 15.3096 12.0606L11.5976 15.7725C11.5033 15.867 11.3972 15.9413 11.2871 16.0054C11.8614 16.3399 12.6041 16.2656 13.0972 15.7725L16.8091 12.0605C17.3967 11.4729 17.3967 10.5271 16.8091 9.93945L13.0972 6.22754C12.8034 5.93373 12.42 5.78662 12.0366 5.78662C11.7764 5.78661 11.5192 5.85938 11.2871 5.99462Z" fill="#E6DFFD"/>
<path d="M9.00293 0.5C7.3246 0.499861 6.00146 1.85244 6.00146 3.50146V8.75H2.24707C1.01354 8.75 0 9.74596 0 10.9971C0 12.2482 1.01354 13.2515 2.24707 13.2515H6V18.5C6 20.1754 7.3539 21.5 9.00293 21.5H17.9985C19.6476 21.5 21 20.1739 21 18.5V3.50146C21 1.85244 19.6724 0.501602 17.9985 0.501466L9.00293 0.5ZM17.9985 2.00147C18.8249 2.00153 19.5 2.65749 19.5 3.50146V18.5C19.5 19.344 18.8218 20 17.9985 20H9.00293C8.15895 20 7.5 19.3264 7.5 18.5V13.2515H10.3359C9.56581 14.1304 9.6159 15.464 10.4531 16.3013C11.3253 17.1735 12.7465 17.1895 13.6289 16.3072L17.3467 12.5924C18.2188 11.7202 18.2188 10.2814 17.3467 9.40925L13.6318 5.69882C13.1959 5.2629 12.6177 5.03525 12.0425 5.03525C11.4672 5.03525 10.889 5.2629 10.4531 5.69882C9.6159 6.53604 9.56581 7.87123 10.3359 8.75009H7.50293V3.50156C7.50293 2.65759 8.17653 2.00003 9.00293 2.00005L17.9985 2.00147ZM12.5742 6.75634L16.2832 10.4712C16.5745 10.7625 16.5862 11.2258 16.2832 11.5288L12.5859 15.229C12.2829 15.5321 11.8196 15.5467 11.5166 15.2437C11.2179 14.9451 11.2139 14.4822 11.5166 14.1788L12.6621 13.0304C13.1305 12.5592 12.8006 11.7569 12.1362 11.7515H2.24707C1.8186 11.7515 1.5 11.3993 1.5 10.9972C1.5 10.595 1.8186 10.2501 2.24707 10.2501H12.1362C12.8006 10.2447 13.1305 9.44238 12.6621 8.97127L11.5107 7.81991C11.2077 7.51686 11.2253 7.0419 11.5107 6.75643C11.6624 6.60472 11.8509 6.53525 12.0425 6.5352C12.2341 6.53516 12.4225 6.60466 12.5742 6.75634Z" fill="#2F2352"/>
</svg>
