<svg width="78" height="78" viewBox="0 0 78 78" fill="none" xmlns="http://www.w3.org/2000/svg">
<path d="M40.2161 45.1589L42.546 73.7265C42.72 75.8617 44.592 77.4499 46.7263 77.2761C48.8605 77.1021 50.4501 75.2312 50.2762 73.0962L47.6007 40.292V30.5316L55.6905 46.0272C56.1383 46.8848 57.0122 47.3758 57.9169 47.3758C58.3081 47.3758 58.7053 47.2839 59.0759 47.0903C60.3044 46.449 60.7804 44.9331 60.139 43.7049L47.8899 20.2424C47.4299 19.3615 46.5199 18.8704 45.5891 18.898C45.4548 18.8749 45.3176 18.8604 45.1767 18.8604H33.0593C32.9184 18.8604 32.7812 18.8749 32.6469 18.898C31.7159 18.8703 30.8063 19.3614 30.3463 20.2422L18.0969 43.7049C17.4555 44.9331 17.9315 46.449 19.16 47.0903C19.5309 47.2839 19.9278 47.3758 20.319 47.3758C21.2238 47.3758 22.0976 46.8848 22.5454 46.0272L30.6353 30.5319V40.2925L27.9599 73.0961C27.7859 75.2311 29.3756 77.1021 31.5098 77.2761C33.644 77.4499 35.516 75.8616 35.69 73.7265L38.02 45.1589L40.2161 45.1589Z" fill="white"/>
<path d="M39.118 17.0728C43.0155 17.0728 46.1749 13.9133 46.1749 10.0159C46.1749 6.11847 43.0155 2.95898 39.118 2.95898C35.2206 2.95898 32.0611 6.11847 32.0611 10.0159C32.0611 13.9133 35.2206 17.0728 39.118 17.0728Z" fill="white"/>
<path d="M20.1356 21.5325H22.4146V8.66177H26.0362L21.2751 0.711426L16.514 8.66177H20.1356V21.5325Z" fill="white"/>
<path d="M22.4146 25.4946H20.1356V27.5664H22.4146V25.4946Z" fill="white"/>
<path d="M22.4146 22.4817H20.1356V23.9406H22.4146V22.4817Z" fill="white"/>
<path d="M12.7033 48.3093H10.4243V49.7682H12.7033V48.3093Z" fill="white"/>
<path d="M12.7033 51.322H10.4243V53.3938H12.7033V51.322Z" fill="white"/>
<path d="M16.3248 34.4896L11.5637 26.5393L6.80264 34.4896H10.4243V47.3604H12.7032V34.4896H16.3248Z" fill="white"/>
<path d="M58.1005 25.4946H55.8216V27.5664H58.1005V25.4946Z" fill="white"/>
<path d="M58.1005 22.4817H55.8216V23.9406H58.1005V22.4817Z" fill="white"/>
<path d="M52.1999 8.66177H55.8216V21.5325H58.1005V8.66177H61.7221L56.961 0.711426L52.1999 8.66177Z" fill="white"/>
<path d="M67.8118 48.3093H65.5329V49.7682H67.8118V48.3093Z" fill="white"/>
<path d="M67.8118 51.322H65.5329V53.3938H67.8118V51.322Z" fill="white"/>
<path d="M71.4333 34.4896L66.6723 26.5393L61.9112 34.4896H65.5328V47.3604H67.8117V34.4896H71.4333Z" fill="white"/>
<path d="M63.2303 18.3627V18.4928C66.1093 18.7324 66.9692 19.5923 67.2089 22.4713H67.3387C67.5785 19.5923 68.4384 18.7324 71.3173 18.4928V18.3627C68.4384 18.1233 67.5785 17.2632 67.3387 14.3843H67.2089C66.9692 17.2632 66.1093 18.1233 63.2303 18.3627Z" fill="white"/>
<path d="M10.5652 20.5963C10.774 18.0895 11.5227 17.3407 14.0295 17.1321V17.0188C11.5227 16.8104 10.774 16.0615 10.5652 13.5547H10.4522C10.2435 16.0615 9.49468 16.8104 6.98795 17.0188V17.1321C9.49472 17.3407 10.2435 18.0895 10.4522 20.5963H10.5652Z" fill="white"/>
<path d="M21.5208 58.0887H21.6338C21.8426 55.5819 22.5913 54.8332 25.0981 54.6246V54.5113C22.5913 54.3028 21.8426 53.5539 21.6338 51.0471H21.5208C21.312 53.5539 20.5633 54.3028 18.0565 54.5113V54.6246C20.5633 54.8331 21.312 55.5819 21.5208 58.0887Z" fill="white"/>
<path d="M67.1432 60.0251H67.0303C66.8215 62.5319 66.0727 63.2808 63.566 63.4893V63.6026C66.0727 63.8112 66.8215 64.56 67.0303 67.0667H67.1432C67.352 64.56 68.1007 63.8112 70.6075 63.6026V63.4893C68.1007 63.2808 67.352 62.5319 67.1432 60.0251Z" fill="white"/>
<path d="M58.7986 65.9503V65.8369C56.2918 65.6285 55.543 64.8796 55.3343 62.3728H55.2213C55.0126 64.8796 54.2638 65.6285 51.757 65.8369V65.9503C54.2638 66.1588 55.0126 66.9076 55.2213 69.4144H55.3343C55.543 66.9076 56.2918 66.1589 58.7986 65.9503Z" fill="white"/>
<path d="M10.4714 66.3763H10.5844C10.7932 63.8695 11.5419 63.1207 14.0487 62.9121V62.7988C11.5419 62.5904 10.7932 61.8415 10.5844 59.3347H10.4714C10.2627 61.8415 9.51391 62.5904 7.00717 62.7988V62.9122C9.51391 63.1207 10.2627 63.8695 10.4714 66.3763Z" fill="white"/>
<path d="M20.6921 71.6238H20.8051C21.0138 69.1171 21.7626 68.3683 24.2694 68.1597V68.0464C21.7625 67.8379 21.0138 67.089 20.8051 64.5823H20.6921C20.4834 67.0891 19.7346 67.8379 17.2278 68.0464V68.1597C19.7346 68.3683 20.4834 69.1171 20.6921 71.6238Z" fill="white"/>
<path d="M62.1133 56.1443V56.031C59.6066 55.8226 58.8578 55.0737 58.6491 52.5669H58.5361C58.3274 55.0737 57.5786 55.8226 55.0718 56.031V56.1443C57.5786 56.3529 58.3274 57.1017 58.5361 59.6085H58.6491C58.8578 57.1017 59.6066 56.3529 62.1133 56.1443Z" fill="white"/>
</svg>
