<svg width="84" height="84" viewBox="0 0 84 84" fill="none" xmlns="http://www.w3.org/2000/svg">
<g clip-path="url(#clip0_99_5603)">
<path fill-rule="evenodd" clip-rule="evenodd" d="M6.74872 73.8361C6.16323 73.8361 5.67532 73.3482 5.67532 72.7139V44.9032C5.67532 44.2689 6.16323 43.781 6.74872 43.781H24.0206V73.8361H6.74872ZM25.2892 43.781H42.5123C43.1466 43.781 43.6345 44.2689 43.6345 44.9032V72.7139C43.6345 73.3482 43.1466 73.8361 42.5123 73.8361H25.2892V43.781Z" fill="white"/>
<path fill-rule="evenodd" clip-rule="evenodd" d="M24.6549 83.0576C24.411 83.0576 24.167 82.96 23.923 82.7649L19.8246 79.1056H1.47933C0.845054 79.1056 0.357147 78.6177 0.357147 78.0322V49.4896C0.357147 48.9041 0.845054 48.3674 1.47933 48.3674H4.35798V72.714C4.35798 74.0313 5.43138 75.1535 6.74873 75.1535H24.6549H42.5123C43.8784 75.1535 44.9518 74.0313 44.9518 72.714V48.3674H47.8305C48.416 48.3674 48.9039 48.9041 48.9039 49.4896V78.0322C48.9039 78.6177 48.416 79.1056 47.8305 79.1056H29.4852L25.4356 82.7649C25.1916 82.96 24.9477 83.0576 24.6549 83.0576Z" fill="white"/>
<path fill-rule="evenodd" clip-rule="evenodd" d="M52.9535 43.0492C52.0265 38.6092 50.27 37.0479 48.5623 35.4866C46.4156 33.535 44.22 31.5346 44.22 25.0454C44.22 16.2631 51.3922 9.13965 60.1745 9.13965C68.9569 9.13965 76.1291 16.2631 76.1291 25.0454C76.1291 31.5346 73.9335 33.535 71.7867 35.4866C70.079 37.0479 68.3226 38.6092 67.3955 43.0492H63.3459V29.4854L64.4193 25.7773C64.4681 25.5821 64.4193 25.3382 64.2729 25.1918L60.6624 20.8982C60.6136 20.8494 60.5649 20.8006 60.5161 20.7518H60.4673H60.4185V20.703H60.3697H60.3209H60.2721H60.2233H60.1745H60.1257C60.0769 20.703 60.0282 20.703 60.0282 20.7518H59.9794H59.9306H59.8818V20.8006C59.833 20.8006 59.7842 20.8494 59.7354 20.8982L56.1249 25.1918C56.0273 25.3382 55.9785 25.5821 56.0273 25.7773L57.0519 29.4854V43.0492H52.9535ZM60.2233 22.2643L63.102 25.7285L62.1262 29.2414C62.1262 29.2902 62.1262 29.339 62.1262 29.3878V43.0492H58.3205V29.3878C58.3205 29.339 58.3205 29.2902 58.2717 29.2414L57.2959 25.7285L60.2233 22.2643Z" fill="white"/>
<path fill-rule="evenodd" clip-rule="evenodd" d="M65.883 50.7095H54.466C53.8317 50.7095 53.3438 50.2215 53.3438 49.5873V45.4401C53.3438 44.8058 53.8317 44.3179 54.466 44.3179H65.883C66.5173 44.3179 67.0052 44.8058 67.0052 45.4401V49.5873C67.0052 50.2215 66.5173 50.7095 65.883 50.7095Z" fill="white"/>
<path fill-rule="evenodd" clip-rule="evenodd" d="M65.2 54.9055H55.1491C54.5636 54.9055 54.0757 54.4176 54.0757 53.7833V52.0269H66.2734V53.7833C66.2734 54.4176 65.7855 54.9055 65.2 54.9055Z" fill="white"/>
<path fill-rule="evenodd" clip-rule="evenodd" d="M60.1745 59.1989C58.0277 59.1989 56.4176 57.9791 56.2713 56.2227H64.0778C63.9314 57.9791 62.3213 59.1989 60.1745 59.1989Z" fill="white"/>
<path fill-rule="evenodd" clip-rule="evenodd" d="M60.1745 7.67599C59.5402 7.67599 59.0523 7.18808 59.0523 6.5538V2.06506C59.0523 1.43078 59.5402 0.942871 60.1745 0.942871C60.8088 0.942871 61.2967 1.43078 61.2967 2.06506V6.5538C61.2967 7.18808 60.8088 7.67599 60.1745 7.67599Z" fill="white"/>
<path fill-rule="evenodd" clip-rule="evenodd" d="M70.8109 10.5059C70.6157 10.5059 70.4206 10.4571 70.2742 10.3595C69.7375 10.0668 69.5423 9.38373 69.8351 8.84704L72.1282 4.94378C72.421 4.40708 73.1041 4.21192 73.6408 4.55346C74.1287 4.8462 74.3238 5.52927 74.0311 6.06597L71.7867 9.96922C71.5428 10.3108 71.2012 10.5059 70.8109 10.5059Z" fill="white"/>
<path fill-rule="evenodd" clip-rule="evenodd" d="M78.5686 18.3124C78.2271 18.3124 77.8368 18.1173 77.6416 17.7757C77.3001 17.239 77.4952 16.556 78.0319 16.2632L81.9352 13.9701C82.4719 13.6773 83.1549 13.8725 83.4477 14.3604C83.7892 14.8971 83.5941 15.5802 83.0574 15.8729L79.1541 18.1661C78.9589 18.2636 78.7638 18.3124 78.5686 18.3124Z" fill="white"/>
<path fill-rule="evenodd" clip-rule="evenodd" d="M49.5382 10.5059C49.1478 10.5059 48.8063 10.3108 48.5623 9.96922L46.318 6.06597C46.0252 5.52927 46.1716 4.8462 46.7083 4.55346C47.245 4.21192 47.9281 4.40708 48.2208 4.94378L50.514 8.84704C50.8067 9.38373 50.6116 10.0668 50.0749 10.3595C49.9285 10.4571 49.7333 10.5059 49.5382 10.5059Z" fill="white"/>
<path fill-rule="evenodd" clip-rule="evenodd" d="M41.7805 18.3124C41.5853 18.3124 41.3901 18.2636 41.195 18.1661L37.2917 15.8729C36.755 15.5802 36.5599 14.8971 36.9014 14.3604C37.1941 13.8725 37.8772 13.6773 38.4139 13.9701L42.3172 16.2632C42.8539 16.556 43.0002 17.239 42.7075 17.7757C42.5123 18.1173 42.122 18.3124 41.7805 18.3124Z" fill="white"/>
</g>
<defs>
<clipPath id="clip0_99_5603">
<rect width="83.2857" height="83.2857" fill="white" transform="translate(0.357147 0.357178)"/>
</clipPath>
</defs>
</svg>
