<svg width="78" height="78" viewBox="0 0 78 78" fill="none" xmlns="http://www.w3.org/2000/svg">
<g clip-path="url(#clip0_99_5594)">
<path fill-rule="evenodd" clip-rule="evenodd" d="M50.2174 67.7165C49.7687 67.7165 49.4696 67.5669 49.32 67.4173L47.6748 65.0243L44.833 65.3234C44.2348 65.3234 43.7861 65.0243 43.6365 64.5756L43.0383 61.7339L40.3461 60.8365C39.7478 60.6869 39.4487 60.0886 39.5983 59.64L40.1965 56.7982L38.1026 54.8539C37.6539 54.5547 37.6539 53.9565 37.953 53.5078L39.5983 51.1147L38.4017 48.5721C38.2522 48.1234 38.4017 47.5252 38.8504 47.226L41.393 45.7304V42.8886C41.393 42.4399 41.8417 41.9912 42.2904 41.8417L45.1322 41.5425L46.3287 38.9999C46.4783 38.4017 47.0765 38.2521 47.5252 38.4017L50.367 39.2991L52.4609 37.3547C52.9096 37.0556 53.5078 37.0556 53.807 37.3547L56.0504 39.2991L58.7426 38.4017C59.1913 38.2521 59.7896 38.4017 59.9391 38.9999L61.1357 41.5425L63.9774 41.8417C64.5757 41.9912 65.0244 42.4399 65.0244 42.8886V45.7304L67.4174 47.226C67.8661 47.5252 68.0157 48.1234 67.8661 48.5721L66.6696 51.1147L68.4644 53.5078C68.7635 53.9565 68.6139 54.5547 68.3148 54.8539L66.0713 56.7982L66.6696 59.64C66.8192 60.0886 66.52 60.6869 66.0713 60.8365L63.2296 61.7339L62.6313 64.5756C62.6313 65.0243 62.0331 65.3234 61.5844 65.3234L58.7426 65.0243L56.9478 67.4173C56.6487 67.7165 56.0504 67.866 55.6018 67.7165L53.2087 66.2208L50.6661 67.7165C50.5165 67.7165 50.367 67.7165 50.2174 67.7165ZM53.2087 61.5843C48.1235 61.5843 43.9357 57.546 43.9357 52.4608C43.9357 47.3756 48.1235 43.1878 53.2087 43.1878C58.2939 43.1878 62.3322 47.3756 62.3322 52.4608C62.3322 57.546 58.2939 61.5843 53.2087 61.5843ZM53.2087 45.2817C49.1704 45.2817 46.0296 48.5721 46.0296 52.4608C46.0296 56.3495 49.1704 59.4904 53.2087 59.4904C57.0974 59.4904 60.2383 56.3495 60.2383 52.4608C60.2383 48.5721 57.0974 45.2817 53.2087 45.2817Z" fill="white"/>
<path fill-rule="evenodd" clip-rule="evenodd" d="M37.8035 57.9949H10.433C9.83474 57.9949 9.38605 57.5462 9.38605 56.948V1.75838C9.38605 1.16012 9.83474 0.711426 10.433 0.711426H53.2087C53.8069 0.711426 54.2556 1.16012 54.2556 1.75838V35.261C53.2087 34.8123 52.0122 34.9619 51.1148 35.7097L50.0678 36.7567V10.2836C50.0678 9.68535 49.6191 9.23665 49.0209 9.23665C47.3756 9.23665 46.0296 7.89056 46.0296 6.24534C46.0296 5.64708 45.5809 5.19839 44.9826 5.19839H18.6591C18.2104 5.19839 17.6121 5.64708 17.6121 6.24534C17.6121 7.89056 16.4156 9.23665 14.7704 9.23665C14.1721 9.23665 13.7234 9.68535 13.7234 10.2836V52.461C13.7234 53.0593 14.1721 53.508 14.7704 53.508H35.7095C35.56 54.5549 35.8591 55.7515 36.6069 56.3497L37.953 57.5462L37.8035 57.9949ZM34.9617 43.188H19.1078C18.6591 43.188 18.0608 42.7393 18.0608 42.141C18.0608 41.5428 18.6591 41.0941 19.1078 41.0941H34.9617C35.56 41.0941 36.0087 41.5428 36.0087 42.141C36.0087 42.7393 35.56 43.188 34.9617 43.188ZM34.9617 48.2732H19.1078C18.6591 48.2732 18.0608 47.8245 18.0608 47.2262C18.0608 46.7775 18.6591 46.1793 19.1078 46.1793H34.9617C35.56 46.1793 36.0087 46.7775 36.0087 47.2262C36.0087 47.8245 35.56 48.2732 34.9617 48.2732ZM31.8208 34.3636C31.6713 34.3636 31.5217 34.3636 31.3722 34.3636L22.2487 29.7271C21.9495 29.5775 21.6504 29.1288 21.6504 28.8297V22.2488L18.5095 21.2019C18.0608 21.0523 17.7617 20.6036 17.7617 20.1549C17.7617 19.7062 18.0608 19.2575 18.5095 19.108L31.5217 14.7706C31.6713 14.621 31.9704 14.621 32.2695 14.7706L45.2817 19.108C45.5809 19.2575 45.88 19.7062 45.88 20.1549C45.88 20.6036 45.5809 21.0523 45.2817 21.2019L41.9913 22.2488V28.8297C41.9913 29.1288 41.8417 29.5775 41.5426 29.7271L32.2695 34.3636C32.12 34.3636 31.9704 34.3636 31.8208 34.3636ZM22.9965 20.454L31.8208 23.4454L40.6452 20.454L41.6922 20.1549L31.8208 16.8645L22.0991 20.1549L22.9965 20.454ZM23.7443 22.9967V28.0819L31.8208 32.2697L39.8974 28.0819V22.9967L32.2695 25.5393C32.12 25.5393 31.9704 25.5393 31.8208 25.5393C31.8208 25.5393 31.6713 25.5393 31.5217 25.5393L23.7443 22.9967ZM47.9739 36.308C46.4782 36.0088 44.9826 36.7567 44.3843 38.1028L43.7861 39.5984L41.9913 39.748C40.4956 39.8975 39.2991 41.2436 39.2991 42.8888V44.5341L37.8035 45.4315C36.4574 46.1793 35.8591 47.9741 36.4574 49.3202L37.2052 50.9654L36.7565 51.4141H15.8174V11.181C17.7617 10.7323 19.2574 9.23665 19.7061 7.2923H44.0852C44.5339 9.23665 46.0296 10.7323 47.9739 11.181V36.308Z" fill="white"/>
<path fill-rule="evenodd" clip-rule="evenodd" d="M48.8713 77.2885C48.4226 77.2885 47.9739 76.9893 47.8243 76.5407L46.0296 71.605L42.1409 75.045C41.6922 75.3441 41.2435 75.3441 40.7948 75.1946C40.4956 74.8954 40.3461 74.4467 40.3461 73.998L42.44 66.5198C43.0382 67.118 43.9356 67.5667 44.9826 67.4172L46.6278 67.2676L47.6748 68.6137C48.273 69.3615 49.1704 69.8102 50.2174 69.8102C50.6661 69.8102 51.2643 69.8102 51.713 69.5111L49.7687 76.5407C49.7687 76.9893 49.32 77.2885 48.8713 77.2885Z" fill="white"/>
<path fill-rule="evenodd" clip-rule="evenodd" d="M57.5461 77.2882C57.5461 77.2882 57.5461 77.2882 57.3966 77.2882C56.9479 77.2882 56.6487 76.9891 56.4992 76.5404L54.5548 69.5108C56.0505 70.2587 57.6957 69.81 58.7426 68.6134L59.64 67.2674L61.2852 67.4169C62.3322 67.5665 63.2296 67.1178 63.9774 66.5195L65.9218 73.9978C66.0713 74.4465 65.9218 74.8952 65.4731 75.1943C65.0244 75.3439 64.5757 75.3439 64.2766 75.0448L60.2383 71.6048L58.4435 76.5404C58.2939 76.9891 57.9948 77.2882 57.5461 77.2882Z" fill="white"/>
</g>
<defs>
<clipPath id="clip0_99_5594">
<rect width="76.5774" height="76.5774" fill="white" transform="translate(0.711243 0.711426)"/>
</clipPath>
</defs>
</svg>
