<svg width="78" height="78" viewBox="0 0 78 78" fill="none" xmlns="http://www.w3.org/2000/svg">
<g clip-path="url(#clip0_99_5458)">
<path d="M52.3822 48.5229C52.317 48.5229 52.2526 48.5209 52.1882 48.5174C51.3176 48.4667 50.5181 48.0801 49.9388 47.4288C49.359 46.7768 49.0677 45.9385 49.1184 45.0672C49.2289 43.167 49.2842 41.3641 49.2836 39.7106C49.2851 37.3641 49.1738 35.3974 48.9992 33.7549V36.2179V41.8406V64.5373H51.9453C52.601 64.5373 53.1328 64.0056 53.1328 63.3498V48.8034C53.1328 48.6783 53.1081 48.5602 53.0722 48.4469C52.8492 48.4952 52.619 48.5229 52.3822 48.5229Z" fill="white"/>
<path d="M54.3202 26.9098C54.3515 26.8456 54.3834 26.7814 54.4147 26.7201V27.2209C55.3465 30.4925 55.8083 34.6269 55.8153 39.7086C55.8144 41.499 55.7555 43.4295 55.639 45.4477C55.5825 46.4063 55.1146 47.2483 54.4147 47.8081V70.9335C54.4147 72.9611 56.0585 74.6038 58.085 74.6038C60.112 74.6038 61.7558 72.9611 61.7558 70.9335V44.135H63.1317V70.9335C63.1317 72.9611 64.7755 74.6038 66.8019 74.6038C68.829 74.6038 70.4727 72.9611 70.4727 70.9335V26.388C70.6484 26.7488 70.8258 27.1625 71.0006 27.6452C71.8373 29.9647 72.5418 33.7698 72.5383 39.7096C72.5389 41.3464 72.4861 43.145 72.3713 45.1194C72.2945 46.4291 73.2947 47.5525 74.6036 47.6284C74.6509 47.6312 74.6981 47.6326 74.7448 47.6326C75.9932 47.6328 77.0397 46.6578 77.1136 45.396C77.2325 43.3379 77.2882 41.4477 77.2888 39.7096C77.2766 30.7492 75.845 25.7899 73.8939 22.8085C72.919 21.3284 71.7785 20.3788 70.7241 19.853C69.6706 19.3218 68.7463 19.2163 68.2198 19.2183C68.03 19.2183 67.8885 19.2306 67.798 19.2424C67.7969 19.2425 67.796 19.2428 67.7948 19.2429H57.0903C57.0169 19.2332 56.9245 19.2245 56.7891 19.2235C56.456 19.2222 55.5712 19.2922 54.4742 19.8541C53.6789 20.2546 52.8133 20.9053 51.9679 21.8788C52.0705 22.02 52.1726 22.1649 52.2738 22.3184C53.1052 23.589 53.7842 25.1188 54.3202 26.9098ZM65.6814 26.8353H69.145V28.1216H65.6814V26.8353ZM61.3151 21.6724H62.4434H63.5712L64.1354 23.8989L64.0495 24.0343C63.5845 24.4218 63.0151 24.6161 62.4429 24.6167C61.8706 24.6161 61.3021 24.4223 60.8374 24.0354L60.751 23.8989L61.3151 21.6724ZM61.2476 25.2878C61.6329 25.4322 62.0376 25.5076 62.4429 25.5073H62.4434C62.4434 25.5073 62.4446 25.5073 62.4452 25.5073C62.8499 25.5073 63.2543 25.4317 63.6387 25.2875L65.2637 37.2578L62.4434 40.8202L59.6232 37.2578L61.2476 25.2878Z" fill="white"/>
<path d="M62.4434 17.5511C66.1324 17.5511 69.1229 14.5606 69.1229 10.8716C69.1229 7.18264 66.1324 4.19214 62.4434 4.19214C58.7545 4.19214 55.7639 7.18264 55.7639 10.8716C55.7639 14.5606 58.7545 17.5511 62.4434 17.5511Z" fill="white"/>
<path d="M31.1601 32.3625C30.5924 35.1396 30.1503 39.0196 30.1564 44.3659C30.1564 45.2687 29.7876 46.1153 29.1472 46.7254H29.5812C30.1819 46.7254 30.7217 46.9836 31.1015 47.3924C31.1206 47.3828 31.1409 47.3747 31.1601 47.3647V32.3625Z" fill="white"/>
<path d="M8.45448 63.3498V48.8034C8.45448 48.1476 7.92277 47.6159 7.26702 47.6159H5.86935V46.3573C6.52019 45.9337 6.9516 45.2012 6.9516 44.3666C6.94085 34.6104 8.38169 29.36 9.73644 26.7201V70.9335C9.73644 72.9611 11.3802 74.6038 13.4067 74.6038C15.4337 74.6038 17.0775 72.9611 17.0775 70.9335V44.135H18.4534V70.9335C18.4534 72.9611 20.0972 74.6038 22.1236 74.6038C24.1507 74.6038 25.7944 72.9611 25.7944 70.9335V65.4277H24.213C23.0676 65.4277 22.1352 64.4954 22.1352 63.3498V48.8032C22.1352 47.6577 23.0676 46.7255 24.213 46.7255H24.6339C23.9944 46.1161 23.6254 45.2702 23.6254 44.3666C23.628 37.0906 24.3405 31.4369 25.7944 27.1328V26.388C25.8437 26.4889 25.893 26.595 25.9423 26.7044C26.0255 26.4709 26.1096 26.2387 26.1974 26.0133C26.8886 24.2313 27.6812 22.8737 28.4859 21.8318C27.6962 20.8973 26.8462 20.2522 26.0458 19.853C24.9923 19.3218 24.068 19.2163 23.5416 19.2183C23.3517 19.2183 23.2102 19.2306 23.1197 19.2424C23.1186 19.2425 23.1177 19.2428 23.1166 19.2429H12.412C12.3386 19.2332 12.2462 19.2245 12.1108 19.2235C11.7777 19.2222 10.8929 19.2922 9.79587 19.8541C8.13209 20.6919 6.15926 22.6078 4.71264 26.3368C3.25295 30.0788 2.20492 35.6755 2.20175 44.3666C2.20175 45.2065 2.63862 45.9429 3.29644 46.3651V47.6159H1.89877C1.24302 47.6159 0.711304 48.1476 0.711304 48.8034V63.3498C0.711304 64.0056 1.24302 64.5373 1.89877 64.5373H7.26702C7.92277 64.5373 8.45448 64.0056 8.45448 63.3498ZM21.0031 26.8353H24.4667V28.1216H21.0031V26.8353ZM16.6368 21.6724H17.7651H18.8929L19.4571 23.8989L19.3712 24.0343C18.9062 24.4218 18.3368 24.6161 17.7646 24.6167C17.1923 24.6161 16.6238 24.4223 16.1591 24.0354L16.0727 23.8989L16.6368 21.6724ZM16.5693 25.2878C16.9546 25.4322 17.3593 25.5076 17.7646 25.5073H17.7651C17.7651 25.5073 17.7663 25.5073 17.7669 25.5073C18.1716 25.5073 18.576 25.4317 18.9604 25.2875L20.5854 37.2578L17.7651 40.8202L14.9449 37.2578L16.5693 25.2878Z" fill="white"/>
<path d="M17.7651 17.5511C21.4541 17.5511 24.4446 14.5606 24.4446 10.8716C24.4446 7.18264 21.4541 4.19214 17.7651 4.19214C14.0761 4.19214 11.0856 7.18264 11.0856 10.8716C11.0856 14.5606 14.0761 17.5511 17.7651 17.5511Z" fill="white"/>
<path d="M27.0268 26.3368C25.5672 30.0788 24.5191 35.6755 24.516 44.3666C24.516 45.2065 24.9528 45.9429 25.6106 46.3651V47.6159H24.213C23.5572 47.6159 23.0255 48.1476 23.0255 48.8034V63.3498C23.0255 64.0056 23.5572 64.5373 24.213 64.5373H29.5812C30.237 64.5373 30.7687 64.0056 30.7687 63.3498V48.8034C30.7687 48.1476 30.237 47.6159 29.5812 47.6159H28.1836V46.3573C28.8344 45.9337 29.2658 45.2012 29.2658 44.3666C29.2551 34.6104 30.6959 29.36 32.0506 26.7201V70.9335C32.0506 72.9611 33.6944 74.6038 35.7209 74.6038C37.7479 74.6038 39.3917 72.9611 39.3917 70.9335V44.135H40.7676V70.9335C40.7676 72.9611 42.4114 74.6038 44.4378 74.6038C46.4649 74.6038 48.1086 72.9611 48.1086 70.9335V26.388C48.2843 26.7488 48.4618 27.1625 48.6366 27.6452C49.4732 29.9647 50.1777 33.7698 50.1742 39.7096C50.1748 41.3464 50.1221 43.145 50.0073 45.1194C49.9304 46.4291 50.9306 47.5525 52.2396 47.6284C52.2868 47.6312 52.3341 47.6326 52.3807 47.6326C53.6291 47.6328 54.6756 46.6578 54.7496 45.396C54.8684 43.3379 54.9241 41.4477 54.9247 39.7096C54.9125 30.7492 53.4809 25.7899 51.5298 22.8085C50.5549 21.3284 49.4144 20.3788 48.36 19.853C47.3065 19.3218 46.3823 19.2163 45.8558 19.2183C45.6659 19.2183 45.5244 19.2306 45.434 19.2424C45.4328 19.2425 45.4319 19.2428 45.4308 19.2429H34.7262C34.6529 19.2332 34.5604 19.2245 34.425 19.2235C34.0919 19.2222 33.2071 19.2922 32.1101 19.8541C30.4463 20.6919 28.4735 22.6078 27.0268 26.3368ZM43.3174 26.8353H46.7809V28.1216H43.3174V26.8353ZM38.9511 21.6724H40.0794H41.2071L41.7713 23.8989L41.6855 24.0343C41.2204 24.4218 40.6511 24.6161 40.0788 24.6167C39.5065 24.6161 38.938 24.4223 38.4733 24.0354L38.3869 23.8989L38.9511 21.6724ZM38.8835 25.2878C39.2688 25.4322 39.6735 25.5076 40.0788 25.5073H40.0794H40.0811C40.4858 25.5073 40.8902 25.4317 41.2747 25.2875L42.8996 37.2578L40.0794 40.8202L37.2591 37.2578L38.8835 25.2878Z" fill="white"/>
<path d="M40.0794 17.5511C43.7683 17.5511 46.7588 14.5606 46.7588 10.8716C46.7588 7.18264 43.7683 4.19214 40.0794 4.19214C36.3904 4.19214 33.3999 7.18264 33.3999 10.8716C33.3999 14.5606 36.3904 17.5511 40.0794 17.5511Z" fill="white"/>
</g>
<defs>
<clipPath id="clip0_99_5458">
<rect width="76.5774" height="76.5774" fill="white" transform="translate(0.711304 0.711182)"/>
</clipPath>
</defs>
</svg>
