<svg width="24" height="25" viewBox="0 0 24 25" fill="none" xmlns="http://www.w3.org/2000/svg">
<g clip-path="url(#clip0_144_2518)">
<path d="M18.1952 9.58477H17.8043V6.73438C17.8044 3.53408 15.2005 0.93042 11.9999 0.93042C8.79935 0.93042 6.19546 3.53408 6.19546 6.73438V9.58477H5.80432C4.66409 9.58477 3.73633 10.5125 3.73633 11.6528V22.8623C3.73633 24.0025 4.66409 24.9303 5.80432 24.9303H18.1952C19.3355 24.9303 20.2632 24.0025 20.2632 22.8623V11.6528C20.2632 10.5125 19.3356 9.58477 18.1952 9.58477ZM7.96802 6.73438C7.96802 4.51147 9.77674 2.70298 11.9999 2.70298C14.223 2.70298 16.0318 4.51147 16.0318 6.73438V9.58477H7.96802V6.73438ZM18.4907 22.8624C18.4907 23.0226 18.3553 23.1579 18.1952 23.1579H5.80432C5.64419 23.1579 5.50889 23.0226 5.50889 22.8624V11.6528C5.50889 11.4926 5.64419 11.3573 5.80432 11.3573H7.08174H16.918H18.1952C18.3553 11.3573 18.4907 11.4926 18.4907 11.6528V22.8624Z" fill="#607680"/>
<path d="M11.9996 14.6747C11.5101 14.6747 11.1133 15.0714 11.1133 15.561V18.9543C11.1133 19.4439 11.5101 19.8406 11.9996 19.8406C12.489 19.8406 12.8858 19.4439 12.8858 18.9543V15.561C12.8858 15.0714 12.489 14.6747 11.9996 14.6747Z" fill="#607680"/>
</g>
<defs>
<clipPath id="clip0_144_2518">
<rect width="24" height="24" fill="white" transform="translate(0 0.93042)"/>
</clipPath>
</defs>
</svg>
