<svg width="21" height="22" viewBox="0 0 21 22" fill="none" xmlns="http://www.w3.org/2000/svg">
<path fill-rule="evenodd" clip-rule="evenodd" d="M10.236 17.3479C6.732 17.3479 3.888 14.5039 3.888 10.9999C3.888 7.49592 6.732 4.65192 10.236 4.65192C13.74 4.65192 16.584 7.49592 16.584 10.9999C16.584 14.5039 13.74 17.3479 10.236 17.3479Z" fill="#E6DFFD"/>
<path fill-rule="evenodd" clip-rule="evenodd" d="M11.688 21.2359H8.784C8.64 21.2359 8.52 21.1519 8.484 21.0079L7.728 18.5239C7.38 18.4039 7.02 18.2599 6.684 18.0919L4.404 19.3159C4.272 19.3879 4.116 19.3639 4.02 19.2679L1.968 17.2159C1.872 17.1199 1.848 16.9639 1.92 16.8319L3.144 14.5519C2.976 14.2159 2.832 13.8559 2.712 13.5079L0.228 12.7519C0.084 12.7159 0 12.5959 0 12.4519V9.54792C0 9.40392 0.084 9.28392 0.228 9.24792L2.712 8.49192C2.832 8.14392 2.976 7.78392 3.144 7.44792L1.92 5.16792C1.848 5.03592 1.872 4.87992 1.968 4.78392L4.02 2.73192C4.116 2.63592 4.272 2.61192 4.404 2.68392L6.684 3.90792C7.02 3.73992 7.38 3.59592 7.728 3.47592L8.484 0.991916C8.52 0.847916 8.64 0.763916 8.784 0.763916H11.688C11.832 0.763916 11.952 0.847916 11.988 0.991916L12.744 3.47592C13.092 3.59592 13.452 3.73992 13.788 3.90792L16.068 2.68392C16.2 2.61192 16.356 2.63592 16.452 2.73192L18.504 4.78392C18.6 4.87992 18.624 5.03592 18.552 5.16792L17.328 7.44792C17.496 7.78392 17.64 8.14392 17.76 8.49192L20.244 9.24792C20.388 9.28392 20.472 9.40392 20.472 9.54792V12.4519C20.472 12.5959 20.388 12.7159 20.244 12.7519L17.76 13.5079C17.64 13.8559 17.496 14.2159 17.328 14.5519L18.552 16.8319C18.624 16.9639 18.6 17.1199 18.504 17.2159L16.452 19.2679C16.356 19.3639 16.2 19.3879 16.068 19.3279L13.788 18.0919C13.452 18.2599 13.092 18.4039 12.744 18.5239L11.988 21.0079C11.952 21.1519 11.832 21.2359 11.688 21.2359ZM9.024 20.5999H11.448L12.18 18.1759C12.204 18.0799 12.288 17.9959 12.384 17.9719C12.816 17.8279 13.236 17.6599 13.644 17.4439C13.728 17.3959 13.848 17.3959 13.944 17.4439L16.164 18.6439L17.88 16.9279L16.68 14.7079C16.632 14.6119 16.632 14.5039 16.68 14.4079C16.896 13.9999 17.064 13.5799 17.196 13.1479C17.232 13.0519 17.316 12.9679 17.412 12.9439L19.836 12.2119V9.78792L17.412 9.05592C17.316 9.03192 17.232 8.94792 17.196 8.85192C17.064 8.41992 16.896 7.99992 16.68 7.59192C16.632 7.49592 16.632 7.38792 16.68 7.29192L17.88 5.07192L16.164 3.35592L13.944 4.55592C13.848 4.60392 13.728 4.60392 13.644 4.55592C13.236 4.33992 12.816 4.17192 12.384 4.02792C12.288 4.00392 12.204 3.91992 12.18 3.82392L11.448 1.39992H9.024L8.292 3.82392C8.268 3.91992 8.184 4.00392 8.088 4.02792C7.656 4.17192 7.236 4.33992 6.828 4.55592C6.732 4.60392 6.624 4.60392 6.528 4.55592L4.308 3.35592L2.592 5.07192L3.792 7.29192C3.84 7.38792 3.84 7.49592 3.792 7.59192C3.576 7.99992 3.408 8.41992 3.264 8.85192C3.24 8.94792 3.156 9.03192 3.06 9.05592L0.636 9.78792V12.2119L3.06 12.9439C3.156 12.9679 3.24 13.0519 3.264 13.1479C3.408 13.5799 3.576 13.9999 3.792 14.4079C3.84 14.5039 3.84 14.6119 3.792 14.7079L2.592 16.9279L4.308 18.6439L6.528 17.4439C6.624 17.3959 6.732 17.3959 6.828 17.4439C7.236 17.6599 7.656 17.8279 8.088 17.9719C8.184 17.9959 8.268 18.0799 8.292 18.1759L9.024 20.5999Z" fill="#2F2352"/>
<path fill-rule="evenodd" clip-rule="evenodd" d="M10.236 16.1959C7.368 16.1959 5.04 13.8679 5.04 10.9999C5.04 8.13192 7.368 5.80392 10.236 5.80392C13.104 5.80392 15.432 8.13192 15.432 10.9999C15.432 13.8679 13.104 16.1959 10.236 16.1959ZM10.236 6.43992C7.728 6.43992 5.676 8.49192 5.676 10.9999C5.676 13.5079 7.728 15.5599 10.236 15.5599C12.744 15.5599 14.796 13.5079 14.796 10.9999C14.796 8.49192 12.744 6.43992 10.236 6.43992Z" fill="#2F2352"/>
<path fill-rule="evenodd" clip-rule="evenodd" d="M10.236 7.79592C10.056 7.79592 9.912 7.65192 9.912 7.47192V6.12792C9.912 5.94792 10.056 5.80392 10.236 5.80392C10.416 5.80392 10.56 5.94792 10.56 6.12792V7.47192C10.56 7.65192 10.416 7.79592 10.236 7.79592Z" fill="#2F2352"/>
<path fill-rule="evenodd" clip-rule="evenodd" d="M12.732 8.82792C12.648 8.82792 12.564 8.79192 12.504 8.73192C12.384 8.61192 12.384 8.40792 12.504 8.27592L13.452 7.32792C13.584 7.19592 13.788 7.19592 13.908 7.32792C14.028 7.44792 14.028 7.65192 13.908 7.78392L12.96 8.73192C12.888 8.79192 12.816 8.82792 12.732 8.82792Z" fill="#2F2352"/>
<path fill-rule="evenodd" clip-rule="evenodd" d="M15.108 11.3239H13.764C13.584 11.3239 13.44 11.1799 13.44 10.9999C13.44 10.8199 13.584 10.6759 13.764 10.6759H15.108C15.288 10.6759 15.432 10.8199 15.432 10.9999C15.432 11.1799 15.288 11.3239 15.108 11.3239Z" fill="#2F2352"/>
<path fill-rule="evenodd" clip-rule="evenodd" d="M13.68 14.7679C13.596 14.7679 13.524 14.7319 13.452 14.6719L12.504 13.7239C12.384 13.5919 12.384 13.3879 12.504 13.2679C12.624 13.1479 12.828 13.1479 12.96 13.2679L13.908 14.2159C14.028 14.3479 14.028 14.5519 13.908 14.6719C13.848 14.7319 13.764 14.7679 13.68 14.7679Z" fill="#2F2352"/>
<path fill-rule="evenodd" clip-rule="evenodd" d="M10.236 16.1959C10.056 16.1959 9.912 16.0519 9.912 15.8719V14.5279C9.912 14.3479 10.056 14.2039 10.236 14.2039C10.416 14.2039 10.56 14.3479 10.56 14.5279V15.8719C10.56 16.0519 10.416 16.1959 10.236 16.1959Z" fill="#2F2352"/>
<path fill-rule="evenodd" clip-rule="evenodd" d="M6.792 14.7679C6.708 14.7679 6.624 14.7319 6.564 14.6719C6.432 14.5519 6.432 14.3479 6.564 14.2159L7.512 13.2679C7.644 13.1479 7.848 13.1479 7.968 13.2679C8.088 13.3879 8.088 13.5919 7.968 13.7239L7.02 14.6719C6.948 14.7319 6.876 14.7679 6.792 14.7679Z" fill="#2F2352"/>
<path fill-rule="evenodd" clip-rule="evenodd" d="M6.708 11.3239H5.364C5.184 11.3239 5.04 11.1799 5.04 10.9999C5.04 10.8199 5.184 10.6759 5.364 10.6759H6.708C6.888 10.6759 7.032 10.8199 7.032 10.9999C7.032 11.1799 6.888 11.3239 6.708 11.3239Z" fill="#2F2352"/>
<path fill-rule="evenodd" clip-rule="evenodd" d="M7.74 8.82792C7.656 8.82792 7.584 8.79192 7.512 8.73192L6.564 7.78392C6.432 7.65192 6.432 7.44792 6.564 7.32792C6.684 7.19592 6.888 7.19592 7.02 7.32792L7.968 8.27592C8.088 8.40792 8.088 8.61192 7.968 8.73192C7.908 8.79192 7.824 8.82792 7.74 8.82792Z" fill="#2F2352"/>
<path fill-rule="evenodd" clip-rule="evenodd" d="M9.924 11.0479C9.852 11.0479 9.78 11.0239 9.72 10.9759L8.88 10.2679C8.748 10.1599 8.724 9.95592 8.844 9.82392C8.952 9.67992 9.156 9.66792 9.288 9.77592L10.128 10.4839C10.14 10.4959 10.14 10.4959 10.152 10.5079L11.076 8.26392C11.136 8.10792 11.328 8.02392 11.484 8.09592C11.652 8.15592 11.724 8.34792 11.664 8.51592L10.74 10.7599C10.668 10.9279 10.488 10.9999 10.32 10.9399C10.284 10.9159 10.248 10.8919 10.212 10.8679C10.2 10.8919 10.188 10.9159 10.164 10.9399C10.104 11.0119 10.008 11.0479 9.924 11.0479Z" fill="#2F2352"/>
<path fill-rule="evenodd" clip-rule="evenodd" d="M10.236 11.7319C9.828 11.7319 9.504 11.4079 9.504 10.9999C9.504 10.5919 9.828 10.2679 10.236 10.2679C10.644 10.2679 10.968 10.5919 10.968 10.9999C10.968 11.4079 10.644 11.7319 10.236 11.7319ZM10.236 10.9039C10.188 10.9039 10.14 10.9519 10.14 10.9999C10.14 11.0479 10.188 11.0959 10.236 11.0959C10.284 11.0959 10.332 11.0479 10.332 10.9999C10.332 10.9519 10.284 10.9039 10.236 10.9039Z" fill="#2F2352"/>
</svg>
