<svg width="18" height="24" viewBox="0 0 18 24" fill="none" xmlns="http://www.w3.org/2000/svg">
<path d="M0.375 12.375V10.875C0.375 10.5257 0.456328 10.1812 0.612539 9.86878C0.76875 9.55636 0.995559 9.28458 1.275 9.075C1.66447 8.78292 2.13816 8.625 2.625 8.625H3.75V12.375H0.375Z" fill="#E6DFFD"/>
<path d="M0.375 12.375H17.625V21.6562C17.625 21.9795 17.4966 22.2895 17.268 22.518C17.0395 22.7466 16.7295 22.875 16.4062 22.875H1.59375C1.4337 22.875 1.27522 22.8435 1.12735 22.7822C0.979491 22.721 0.845137 22.6312 0.731962 22.518C0.503405 22.2895 0.375 21.9795 0.375 21.6562V12.375Z" fill="#E6DFFD"/>
<path d="M15.375 15.75H2.625L0.375 12.375H17.625L15.375 15.75Z" fill="#2F2352"/>
<path d="M10.125 15H7.875V17.25H10.125V15Z" fill="#9678F5"/>
<path d="M13.5 1.125H3V15.75H13.5V1.125Z" fill="white"/>
<path d="M8.25 8.625C9.90684 8.625 11.25 7.28184 11.25 5.625C11.25 3.96815 9.90684 2.625 8.25 2.625C6.59316 2.625 5.25 3.96815 5.25 5.625C5.25 7.28184 6.59316 8.625 8.25 8.625Z" fill="#E6DFFD"/>
<path d="M10.125 7.875V7.96734C9.59278 8.39306 8.93152 8.625 8.25 8.625C7.56848 8.625 6.90722 8.39306 6.375 7.96734V7.875L6.53625 7.39125C6.59845 7.2045 6.71784 7.04208 6.87755 6.92695C7.03725 6.81187 7.22911 6.74995 7.42594 6.75H9.07406C9.27089 6.74995 9.46275 6.81187 9.62245 6.92695C9.78216 7.04208 9.90155 7.2045 9.96375 7.39125L10.125 7.875Z" fill="#2CBFF4"/>
<path d="M9 4.875C9 4.46078 8.66423 4.125 8.25 4.125C7.83577 4.125 7.5 4.46078 7.5 4.875V6C7.5 6.41423 7.83577 6.75 8.25 6.75C8.66423 6.75 9 6.41423 9 6V4.875Z" fill="#F6BB92"/>
<path d="M9 4.875L8.23073 5.13141C7.99509 5.20997 7.74839 5.25 7.5 5.25V4.875C7.5 4.67609 7.57903 4.48532 7.71966 4.34467C7.86033 4.20402 8.05111 4.125 8.25 4.125C8.44889 4.125 8.63967 4.20402 8.78034 4.34467C8.92097 4.48532 9 4.67609 9 4.875Z" fill="#533222"/>
<path d="M10.125 7.875V7.96734C9.59278 8.39306 8.93152 8.625 8.25 8.625C7.56848 8.625 6.90722 8.39306 6.375 7.96734V7.875L6.53625 7.39125C6.59845 7.2045 6.71784 7.04208 6.87755 6.92695C7.03725 6.81187 7.22911 6.74995 7.42594 6.75H9.07406C9.27089 6.74995 9.46275 6.81187 9.62245 6.92695C9.78216 7.04208 9.90155 7.2045 9.96375 7.39125L10.125 7.875Z" fill="#9678F5"/>
<path d="M9.375 10.5H7.125C7.02553 10.5 6.93014 10.4605 6.85983 10.3902C6.78952 10.3199 6.75 10.2245 6.75 10.125C6.75 10.0255 6.78952 9.93014 6.85983 9.85983C6.93014 9.78952 7.02553 9.75 7.125 9.75H9.375C9.47447 9.75 9.56986 9.78952 9.64017 9.85983C9.71049 9.93014 9.75 10.0255 9.75 10.125C9.75 10.2245 9.71049 10.3199 9.64017 10.3902C9.56986 10.4605 9.47447 10.5 9.375 10.5Z" fill="#A8A8A8"/>
<path d="M6.375 12H4.875C4.77553 12 4.68014 11.9605 4.60983 11.8902C4.53952 11.8199 4.5 11.7245 4.5 11.625C4.5 11.5255 4.53952 11.4301 4.60983 11.3598C4.68014 11.2895 4.77553 11.25 4.875 11.25H6.375C6.47447 11.25 6.56986 11.2895 6.64017 11.3598C6.71048 11.4301 6.75 11.5255 6.75 11.625C6.75 11.7245 6.71048 11.8199 6.64017 11.8902C6.56986 11.9605 6.47447 12 6.375 12Z" fill="#A8A8A8"/>
<path d="M6.375 13.5H4.875C4.77553 13.5 4.68014 13.4605 4.60983 13.3902C4.53952 13.3199 4.5 13.2245 4.5 13.125C4.5 13.0255 4.53952 12.9301 4.60983 12.8598C4.68014 12.7895 4.77553 12.75 4.875 12.75H6.375C6.47447 12.75 6.56986 12.7895 6.64017 12.8598C6.71048 12.9301 6.75 13.0255 6.75 13.125C6.75 13.2245 6.71048 13.3199 6.64017 13.3902C6.56986 13.4605 6.47447 13.5 6.375 13.5Z" fill="#A8A8A8"/>
<path d="M12 12H9C8.90053 12 8.80514 11.9605 8.73483 11.8902C8.66452 11.8199 8.625 11.7245 8.625 11.625C8.625 11.5255 8.66452 11.4301 8.73483 11.3598C8.80514 11.2895 8.90053 11.25 9 11.25H12C12.0995 11.25 12.1949 11.2895 12.2652 11.3598C12.3355 11.4301 12.375 11.5255 12.375 11.625C12.375 11.7245 12.3355 11.8199 12.2652 11.8902C12.1949 11.9605 12.0995 12 12 12Z" fill="#A8A8A8"/>
<path d="M12 13.5H9C8.90053 13.5 8.80514 13.4605 8.73483 13.3902C8.66452 13.3199 8.625 13.2245 8.625 13.125C8.625 13.0255 8.66452 12.9301 8.73483 12.8598C8.80514 12.7895 8.90053 12.75 9 12.75H12C12.0995 12.75 12.1949 12.7895 12.2652 12.8598C12.3355 12.9301 12.375 13.0255 12.375 13.125C12.375 13.2245 12.3355 13.3199 12.2652 13.3902C12.1949 13.4605 12.0995 13.5 12 13.5Z" fill="#A8A8A8"/>
<path d="M17.625 12.375V10.875C17.625 10.5257 17.5437 10.1812 17.3874 9.86878C17.2313 9.55636 17.0044 9.28458 16.725 9.075C16.3355 8.78292 15.8618 8.625 15.375 8.625H14.25V12.375H17.625Z" fill="#E6DFFD"/>
<path d="M15 2.25H13.5V15.75H15V2.25Z" fill="#E6DFFD"/>
<path d="M3 21.75H2.625C2.52553 21.75 2.43014 21.7105 2.35983 21.6402C2.28952 21.5699 2.25 21.4745 2.25 21.375C2.25 21.2755 2.28952 21.1801 2.35983 21.1098C2.43014 21.0395 2.52553 21 2.625 21H3C3.09947 21 3.19486 21.0395 3.26517 21.1098C3.33548 21.1801 3.375 21.2755 3.375 21.375C3.375 21.4745 3.33548 21.5699 3.26517 21.6402C3.19486 21.7105 3.09947 21.75 3 21.75Z" fill="#C38325"/>
<path d="M6 21.75H4.5C4.40053 21.75 4.30514 21.7105 4.23483 21.6402C4.16452 21.5699 4.125 21.4745 4.125 21.375C4.125 21.2755 4.16452 21.1801 4.23483 21.1098C4.30514 21.0395 4.40053 21 4.5 21H6C6.09947 21 6.19486 21.0395 6.26517 21.1098C6.33548 21.1801 6.375 21.2755 6.375 21.375C6.375 21.4745 6.33548 21.5699 6.26517 21.6402C6.19486 21.7105 6.09947 21.75 6 21.75Z" fill="#C38325"/>
<path d="M1.59375 23.25H16.4062C16.8288 23.2495 17.2339 23.0815 17.5327 22.7827C17.8315 22.4839 17.9995 22.0788 18 21.6562V10.875C18 10.1788 17.7234 9.51112 17.2312 9.01884C16.7389 8.52656 16.0712 8.25 15.375 8.25V2.25C15.375 2.15055 15.3355 2.05516 15.2652 1.98483C15.1949 1.91451 15.0995 1.875 15 1.875H13.875V1.125C13.875 1.02555 13.8355 0.930159 13.7652 0.859833C13.6949 0.789511 13.5995 0.75 13.5 0.75H3C2.90053 0.75 2.80514 0.789511 2.73483 0.859833C2.66452 0.930159 2.625 1.02555 2.625 1.125V8.25C1.92881 8.25 1.26113 8.52656 0.768844 9.01884C0.276563 9.51112 0 10.1788 0 10.875V21.6562C0.000473437 22.0788 0.168534 22.4839 0.46732 22.7827C0.766101 23.0815 1.1712 23.2495 1.59375 23.25ZM15.375 9C15.8723 9 16.3492 9.19753 16.7008 9.54919C17.0525 9.9008 17.25 10.3777 17.25 10.875V12H15.375V9ZM15.375 12.75H16.9243L15.375 15.074V12.75ZM13.875 2.625H14.625V15.375H13.875V2.625ZM3.375 1.5H13.125V15.375H3.375V1.5ZM9.75 16.125V16.875H8.25V16.125H9.75ZM0.75 10.875C0.75 10.3777 0.947545 9.9008 1.29917 9.54919C1.65081 9.19753 2.1277 9 2.625 9V12H0.75V10.875ZM2.625 12.75V15.074L1.07569 12.75H2.625ZM0.75 13.6135L2.313 15.958C2.34727 16.0094 2.39363 16.0515 2.44805 16.0806C2.50252 16.1098 2.56327 16.125 2.625 16.125H7.5V17.25C7.5 17.3495 7.53952 17.4449 7.60983 17.5152C7.68014 17.5855 7.77553 17.625 7.875 17.625H10.125C10.2245 17.625 10.3199 17.5855 10.3902 17.5152C10.4605 17.4449 10.5 17.3495 10.5 17.25V16.125H15.375C15.4367 16.125 15.4975 16.1098 15.552 16.0806C15.6064 16.0515 15.6527 16.0094 15.687 15.958L17.25 13.6135V21.6562C17.2497 21.8799 17.1607 22.0944 17.0026 22.2526C16.8444 22.4107 16.6299 22.4997 16.4062 22.5H1.59375C1.37005 22.4997 1.1556 22.4107 0.997416 22.2526C0.839241 22.0944 0.750262 21.8799 0.75 21.6562V13.6135Z" fill="#2F2352"/>
<path d="M8.25 9C8.9175 9 9.57005 8.80205 10.125 8.43122C10.68 8.06034 11.1127 7.53328 11.3681 6.91655C11.6235 6.29986 11.6904 5.62125 11.5602 4.96659C11.4299 4.31189 11.1085 3.71052 10.6365 3.23851C10.1645 2.76652 9.56311 2.44507 8.90845 2.31485C8.25375 2.18463 7.57514 2.25146 6.95845 2.50691C6.34177 2.76235 5.81466 3.19493 5.44378 3.74995C5.07295 4.30497 4.875 4.9575 4.875 5.625C4.87598 6.5198 5.23191 7.37766 5.86462 8.01038C6.49734 8.64309 7.3552 8.99902 8.25 9ZM8.25 8.25C7.73109 8.25056 7.22377 8.09639 6.79289 7.80722L6.89203 7.50966C6.9293 7.39758 7.00087 7.30013 7.09669 7.23108C7.1925 7.16198 7.30762 7.12491 7.4257 7.125H9.0743C9.19238 7.12491 9.3075 7.16198 9.40331 7.23103C9.49908 7.30008 9.5707 7.39753 9.60792 7.50961L9.70711 7.80722C9.27623 8.09639 8.76891 8.25056 8.25 8.25ZM8.34937 5.48719L8.625 5.39531V6C8.625 6.09947 8.58548 6.19486 8.51517 6.26517C8.44486 6.33548 8.34947 6.375 8.25 6.375C8.15053 6.375 8.05514 6.33548 7.98483 6.26517C7.91452 6.19486 7.875 6.09947 7.875 6V5.59819C8.03616 5.57564 8.19492 5.53852 8.34937 5.48719ZM7.87687 4.83802C7.8773 4.83361 7.87819 4.82887 7.87875 4.82452C7.87983 4.81678 7.88077 4.809 7.88231 4.80141C7.8833 4.79634 7.88475 4.79142 7.88597 4.78641C7.88761 4.77975 7.88911 4.773 7.89108 4.76648C7.89267 4.76133 7.89459 4.75636 7.89637 4.7513C7.89853 4.74511 7.90064 4.73892 7.90308 4.73292C7.90519 4.72786 7.90777 4.72298 7.90987 4.71802C7.9125 4.7123 7.91513 4.70653 7.91808 4.70095C7.92066 4.69627 7.92347 4.69134 7.92623 4.68656C7.929 4.68178 7.93256 4.67583 7.93594 4.67062C7.93931 4.66542 7.94217 4.66158 7.94531 4.65708C7.94845 4.65258 7.95258 4.64709 7.95642 4.64227C7.96027 4.63744 7.96341 4.63373 7.96702 4.62961C7.97062 4.62548 7.97522 4.62023 7.97944 4.61592C7.98366 4.61161 7.98717 4.60809 7.99111 4.6043C7.99505 4.6005 8.0002 4.59586 8.00484 4.59178C8.00948 4.5877 8.01314 4.5847 8.01741 4.58133C8.02167 4.57795 8.02739 4.57369 8.03245 4.57003C8.03752 4.56638 8.04127 4.5638 8.04581 4.56066C8.05111 4.55719 8.05659 4.55395 8.06208 4.55077C8.06677 4.54805 8.07145 4.54533 8.07614 4.5428C8.08191 4.5398 8.08781 4.53708 8.09367 4.53436C8.09836 4.53216 8.10305 4.52967 8.10816 4.52784C8.11434 4.52531 8.12076 4.52316 8.12714 4.52091C8.13183 4.51922 8.13675 4.51739 8.14167 4.51589C8.14852 4.51383 8.15573 4.51219 8.16253 4.51055C8.16722 4.50937 8.17191 4.50806 8.17659 4.50712C8.18447 4.50553 8.19258 4.5045 8.20064 4.50342C8.20467 4.50291 8.20866 4.50211 8.21273 4.50169C8.22497 4.50047 8.23734 4.49981 8.24991 4.49981C8.26345 4.49985 8.277 4.50061 8.29045 4.50211C8.29486 4.50258 8.29908 4.50347 8.30344 4.50408C8.3123 4.50534 8.32116 4.5067 8.32983 4.50877C8.33484 4.50989 8.33972 4.5113 8.34464 4.51261C8.35242 4.51462 8.36016 4.51673 8.3677 4.51922C8.37281 4.52091 8.37773 4.52287 8.3827 4.52475C8.38992 4.52747 8.39705 4.53033 8.40398 4.53352C8.40867 4.53572 8.41373 4.5382 8.41852 4.5405C8.42527 4.54391 8.43187 4.54752 8.43839 4.55133C8.44308 4.55405 8.44777 4.55677 8.45208 4.55967C8.45845 4.5638 8.46469 4.56816 8.47083 4.57261C8.47505 4.5757 8.47931 4.57875 8.48339 4.58198C8.48948 4.58667 8.4953 4.59206 8.50111 4.59731C8.50477 4.60059 8.50856 4.60383 8.51208 4.6073C8.51827 4.6133 8.52403 4.61972 8.52975 4.62605C8.53214 4.62867 8.53444 4.63116 8.53692 4.63387L8.11214 4.77548C8.03513 4.80122 7.95652 4.82212 7.87687 4.83802ZM8.25 3C8.74284 2.9996 9.22584 3.13807 9.64364 3.39953C10.0614 3.661 10.3971 4.03489 10.6121 4.47835C10.8272 4.92183 10.9129 5.41687 10.8596 5.90686C10.8062 6.3968 10.6159 6.8618 10.3104 7.24856C10.233 7.02989 10.099 6.83569 9.92203 6.68578C9.74503 6.53592 9.53142 6.4357 9.303 6.39544C9.35067 6.26906 9.37505 6.13509 9.375 6V4.875C9.375 4.57663 9.25645 4.29048 9.04552 4.07951C8.83453 3.86853 8.54836 3.75 8.25 3.75C7.95164 3.75 7.66547 3.86853 7.45448 4.07951C7.24355 4.29048 7.125 4.57663 7.125 4.875V6C7.12491 6.13514 7.14933 6.26916 7.197 6.39558C6.96858 6.43584 6.75497 6.53606 6.57797 6.68597C6.40097 6.83583 6.26691 7.03003 6.18956 7.2487C5.88403 6.86194 5.69367 6.39694 5.64028 5.90695C5.58689 5.41697 5.67263 4.92183 5.88773 4.47836C6.1028 4.03488 6.43847 3.66097 6.85627 3.3995C7.27411 3.13802 7.75711 2.99957 8.25 3Z" fill="#2F2352"/>
<path d="M9.75 10.125C9.75 10.0255 9.71049 9.93014 9.64017 9.85983C9.56986 9.78952 9.47447 9.75 9.375 9.75H7.125C7.02553 9.75 6.93014 9.78952 6.85983 9.85983C6.78952 9.93014 6.75 10.0255 6.75 10.125C6.75 10.2245 6.78952 10.3199 6.85983 10.3902C6.93014 10.4605 7.02553 10.5 7.125 10.5H9.375C9.47447 10.5 9.56986 10.4605 9.64017 10.3902C9.71049 10.3199 9.75 10.2245 9.75 10.125Z" fill="#2F2352"/>
<path d="M6.375 11.25H4.875C4.77553 11.25 4.68014 11.2895 4.60983 11.3598C4.53952 11.4301 4.5 11.5255 4.5 11.625C4.5 11.7245 4.53952 11.8199 4.60983 11.8902C4.68014 11.9605 4.77553 12 4.875 12H6.375C6.47447 12 6.56986 11.9605 6.64017 11.8902C6.71048 11.8199 6.75 11.7245 6.75 11.625C6.75 11.5255 6.71048 11.4301 6.64017 11.3598C6.56986 11.2895 6.47447 11.25 6.375 11.25Z" fill="#2F2352"/>
<path d="M6.375 12.75H4.875C4.77553 12.75 4.68014 12.7895 4.60983 12.8598C4.53952 12.9301 4.5 13.0255 4.5 13.125C4.5 13.2245 4.53952 13.3199 4.60983 13.3902C4.68014 13.4605 4.77553 13.5 4.875 13.5H6.375C6.47447 13.5 6.56986 13.4605 6.64017 13.3902C6.71048 13.3199 6.75 13.2245 6.75 13.125C6.75 13.0255 6.71048 12.9301 6.64017 12.8598C6.56986 12.7895 6.47447 12.75 6.375 12.75Z" fill="#2F2352"/>
<path d="M12 11.25H9C8.90053 11.25 8.80514 11.2895 8.73483 11.3598C8.66452 11.4301 8.625 11.5255 8.625 11.625C8.625 11.7245 8.66452 11.8199 8.73483 11.8902C8.80514 11.9605 8.90053 12 9 12H12C12.0995 12 12.1949 11.9605 12.2652 11.8902C12.3355 11.8199 12.375 11.7245 12.375 11.625C12.375 11.5255 12.3355 11.4301 12.2652 11.3598C12.1949 11.2895 12.0995 11.25 12 11.25Z" fill="#2F2352"/>
<path d="M12 12.75H9C8.90053 12.75 8.80514 12.7895 8.73483 12.8598C8.66452 12.9301 8.625 13.0255 8.625 13.125C8.625 13.2245 8.66452 13.3199 8.73483 13.3902C8.80514 13.4605 8.90053 13.5 9 13.5H12C12.0995 13.5 12.1949 13.4605 12.2652 13.3902C12.3355 13.3199 12.375 13.2245 12.375 13.125C12.375 13.0255 12.3355 12.9301 12.2652 12.8598C12.1949 12.7895 12.0995 12.75 12 12.75Z" fill="#2F2352"/>
<path d="M2.625 21.75H3C3.09947 21.75 3.19486 21.7105 3.26517 21.6402C3.33548 21.5699 3.375 21.4745 3.375 21.375C3.375 21.2755 3.33548 21.1801 3.26517 21.1098C3.19486 21.0395 3.09947 21 3 21H2.625C2.52553 21 2.43014 21.0395 2.35983 21.1098C2.28952 21.1801 2.25 21.2755 2.25 21.375C2.25 21.4745 2.28952 21.5699 2.35983 21.6402C2.43014 21.7105 2.52553 21.75 2.625 21.75Z" fill="#2F2352"/>
<path d="M4.5 21.75H6C6.09947 21.75 6.19486 21.7105 6.26517 21.6402C6.33548 21.5699 6.375 21.4745 6.375 21.375C6.375 21.2755 6.33548 21.1801 6.26517 21.1098C6.19486 21.0395 6.09947 21 6 21H4.5C4.40053 21 4.30514 21.0395 4.23483 21.1098C4.16452 21.1801 4.125 21.2755 4.125 21.375C4.125 21.4745 4.16452 21.5699 4.23483 21.6402C4.30514 21.7105 4.40053 21.75 4.5 21.75Z" fill="#2F2352"/>
</svg>
