<svg width="25" height="24" viewBox="0 0 25 24" fill="none" xmlns="http://www.w3.org/2000/svg">
<path fill-rule="evenodd" clip-rule="evenodd" d="M18 22.6492H2.8125C2.625 22.6492 2.4375 22.4617 2.4375 22.2742V19.2273H0.328125C0.140625 19.2273 0 19.0398 0 18.8523V0.80542C0 0.61792 0.140625 0.43042 0.328125 0.43042H13.1719C13.3594 0.43042 13.5 0.61792 13.5 0.80542V2.86792H14.3906C14.5312 2.86792 14.6719 2.96167 14.7188 3.10229L18.1875 6.52417C18.3281 6.61792 18.3281 6.75854 18.3281 6.89917V10.8835C19.4531 12.7585 19.2656 15.196 17.8125 16.8367L18.4688 17.4929L18.7031 17.2117C19.0312 16.8835 19.5938 16.8835 19.9219 17.2117L23.7656 21.0554C24.0938 21.4304 24.0938 21.946 23.7656 22.2742L22.7344 23.3054C22.3594 23.6804 21.8438 23.6335 21.5156 23.3054L18.3281 20.1179V22.321C18.3281 22.4617 18.1875 22.6492 18 22.6492ZM10.5 13.6023C10.1719 12.9929 10.5938 12.3835 10.875 12.3367C11.2969 12.0554 11.8594 12.2429 12.1406 12.6648L12.6094 13.5085L16.125 11.4929C16.5469 11.2117 17.1094 11.3523 17.3906 11.821C17.625 12.2429 17.4844 12.8054 17.0625 13.0867L12.5156 15.6648C12.2344 15.8054 11.5781 15.4773 11.4375 15.196L10.5 13.6023ZM16.6875 12.4773C16.9688 12.2898 16.7344 11.8679 16.4531 12.0554L12.6562 14.2585C12.4688 14.3523 12.2812 14.3054 12.1875 14.1179L11.4844 12.9929C11.3438 12.7117 10.9219 12.946 11.1094 13.2273C11.25 13.4617 12.0469 14.9148 12.1406 14.9617C12.1406 14.9617 12.2812 15.0554 12.375 14.9617L16.6875 12.4773ZM12.5156 7.32104H4.875C4.40625 7.32104 4.40625 6.61792 4.875 6.61792H12.5156C12.9844 6.61792 12.9844 7.32104 12.5156 7.32104ZM8.0625 9.94604H4.875C4.40625 9.94604 4.40625 9.24292 4.875 9.24292H8.0625C8.53125 9.24292 8.48438 9.94604 8.0625 9.94604ZM8.0625 12.571H4.875C4.40625 12.571 4.40625 11.8679 4.875 11.8679H8.0625C8.53125 11.8679 8.48438 12.571 8.0625 12.571ZM8.0625 15.1492H4.875C4.40625 15.1492 4.40625 14.446 4.875 14.446H8.0625C8.53125 14.446 8.48438 15.1492 8.0625 15.1492ZM8.0625 17.7273H4.875C4.40625 17.7273 4.40625 17.0242 4.875 17.0242H8.0625C8.53125 17.0242 8.48438 17.7273 8.0625 17.7273ZM14.3906 20.3523H4.875C4.40625 20.3523 4.40625 19.6492 4.875 19.6492H14.3906C14.8594 19.6492 14.8594 20.3523 14.3906 20.3523ZM17.2969 17.3523C14.1094 20.2117 8.8125 17.9617 8.8125 13.5085C8.8125 12.1023 9.32812 10.8367 10.3125 9.85229C12.3281 7.83667 15.6562 7.88354 17.625 9.94604V7.13354H14.3906C14.2031 7.13354 14.0625 6.99292 14.0625 6.80542V3.57104H3.14062V18.7585C3.1875 18.8992 3.1875 18.8054 3.14062 18.946V21.9929H17.625V19.4148C17.625 19.4148 17.1562 18.8054 17.6719 18.2898L17.9531 18.0085L17.2969 17.3523ZM18.1875 18.9929L22.0312 22.8367C22.0781 22.8835 22.1719 22.8835 22.2656 22.8367L23.2969 21.8054C23.3438 21.7585 23.3438 21.6179 23.2969 21.571L19.4531 17.7273C19.2188 17.5398 18 18.8054 18.1875 18.9929ZM17.0625 10.3679C15.3281 8.63354 12.5156 8.63354 10.7812 10.3679C9.04688 12.1023 9.04688 14.9148 10.7812 16.6492C12.5625 18.3835 15.3281 18.3835 17.0625 16.6492C18.7969 14.9148 18.7969 12.0554 17.0625 10.3679ZM2.4375 18.5242V3.24292C2.4375 3.05542 2.625 2.86792 2.8125 2.86792H12.7969V1.13354H0.703125V18.5242H2.4375ZM14.7656 6.47729H17.1562L14.7656 4.03979V6.47729Z" fill="#2F2352"/>
<path fill-rule="evenodd" clip-rule="evenodd" d="M12.6094 13.5085L16.125 11.4929C16.5469 11.2117 17.1094 11.3523 17.3906 11.821C17.625 12.2429 17.4844 12.8054 17.0625 13.0867L12.5156 15.6648C12.2344 15.8054 11.5781 15.4773 11.4375 15.196L10.5 13.6023C10.1719 12.9929 10.5938 12.3835 10.875 12.3367C11.2969 12.0554 11.8594 12.2429 12.1406 12.6648L12.6094 13.5085ZM10.7812 16.6492C12.5625 18.3835 15.3281 18.3835 17.0625 16.6492C18.7969 14.9148 18.7969 12.0554 17.0625 10.3679C15.3281 8.63354 12.5156 8.63354 10.7812 10.3679C9.04688 12.1023 9.04688 14.9148 10.7812 16.6492Z" fill="white"/>
<path fill-rule="evenodd" clip-rule="evenodd" d="M16.4531 12.0554L12.6562 14.2585C12.4688 14.3523 12.2812 14.3054 12.1875 14.1179L11.4844 12.9929C11.3438 12.7117 10.9219 12.946 11.1094 13.2273C11.25 13.4617 12.0469 14.9148 12.1406 14.9617C12.1406 14.9617 12.2812 15.0554 12.375 14.9617L16.6875 12.4773C16.9688 12.2898 16.7344 11.8679 16.4531 12.0554Z" fill="#9678F5"/>
<path fill-rule="evenodd" clip-rule="evenodd" d="M14.7656 6.47729H17.1562L14.7656 4.03979V6.47729Z" fill="#BDAAF9"/>
<path fill-rule="evenodd" clip-rule="evenodd" d="M14.0625 6.80542V3.57104H3.14062V18.7585C3.1875 18.8992 3.1875 18.8054 3.14062 18.946V21.9929H17.625V19.4148C17.625 19.4148 17.1562 18.8054 17.6719 18.2898L17.9531 18.0085L17.2969 17.3523C14.1094 20.2117 8.8125 17.9617 8.8125 13.5085C8.8125 12.1023 9.32812 10.8367 10.3125 9.85229C12.3281 7.83667 15.6562 7.88354 17.625 9.94604V7.13354H14.3906C14.2031 7.13354 14.0625 6.99292 14.0625 6.80542ZM4.875 6.61792H12.5156C12.9844 6.61792 12.9844 7.32104 12.5156 7.32104H4.875C4.40625 7.32104 4.40625 6.61792 4.875 6.61792ZM4.875 9.24292H8.0625C8.53125 9.24292 8.48438 9.94604 8.0625 9.94604H4.875C4.40625 9.94604 4.40625 9.24292 4.875 9.24292ZM4.875 11.8679H8.0625C8.53125 11.8679 8.48438 12.571 8.0625 12.571H4.875C4.40625 12.571 4.40625 11.8679 4.875 11.8679ZM4.875 14.446H8.0625C8.53125 14.446 8.48438 15.1492 8.0625 15.1492H4.875C4.40625 15.1492 4.40625 14.446 4.875 14.446ZM4.875 17.0242H8.0625C8.53125 17.0242 8.48438 17.7273 8.0625 17.7273H4.875C4.40625 17.7273 4.40625 17.0242 4.875 17.0242ZM4.875 19.6492H14.3906C14.8594 19.6492 14.8594 20.3523 14.3906 20.3523H4.875C4.40625 20.3523 4.40625 19.6492 4.875 19.6492Z" fill="white"/>
<path fill-rule="evenodd" clip-rule="evenodd" d="M2.8125 2.86792H12.7969V1.13354H0.703125V18.5242H2.4375V3.24292C2.4375 3.05542 2.625 2.86792 2.8125 2.86792Z" fill="#BDAAF9"/>
<path fill-rule="evenodd" clip-rule="evenodd" d="M19.4531 17.7273C19.2188 17.5398 18 18.8054 18.1875 18.9929L22.0312 22.8367C22.0781 22.8835 22.1719 22.8835 22.2656 22.8367L23.2969 21.8054C23.3438 21.7585 23.3438 21.6179 23.2969 21.571L19.4531 17.7273Z" fill="#9678F5"/>
</svg>
