<svg width="32" height="32" viewBox="0 0 32 32" fill="none" xmlns="http://www.w3.org/2000/svg">
<rect width="32" height="32" rx="16" fill="#56448C"/>
<path d="M20.705 15.108C20.543 12.121 18.911 10.411 16.171 10.394C14.519 10.384 13.138 11.084 12.292 12.367L13.8 13.4C14.434 12.439 15.435 12.24 16.16 12.247C17.063 12.253 17.743 12.515 18.184 13.027C18.504 13.399 18.719 13.914 18.826 14.563C18.0247 14.427 17.1613 14.3853 16.236 14.438C13.63 14.588 11.956 16.108 12.068 18.219C12.125 19.29 12.658 20.212 13.57 20.814C14.34 21.323 15.334 21.571 16.365 21.515C17.728 21.44 18.797 20.921 19.543 19.97C20.109 19.248 20.467 18.312 20.625 17.134C21.275 17.526 21.755 18.041 22.022 18.661C22.474 19.715 22.5 21.447 21.087 22.859C19.849 24.095 18.361 24.631 16.112 24.647C13.617 24.629 11.73 23.828 10.504 22.269C9.354 20.809 8.761 18.699 8.739 16C8.761 13.3 9.355 11.191 10.504 9.73C11.73 8.171 13.617 7.371 16.112 7.353C18.625 7.372 20.544 8.175 21.818 9.743C22.443 10.511 22.913 11.477 23.224 12.603L24.99 12.133C24.613 10.746 24.021 9.551 23.216 8.56C21.583 6.55 19.183 5.521 16.106 5.5C13.035 5.521 10.674 6.555 9.087 8.571C7.676 10.366 6.947 12.877 6.923 16.007C6.947 19.137 7.676 21.634 9.087 23.429C10.674 25.445 13.047 26.479 16.117 26.5C18.848 26.481 20.772 25.766 22.357 24.183C24.432 22.11 24.369 19.513 23.686 17.919C23.161 16.694 22.116 15.713 20.706 15.109M16.268 19.666C15.126 19.73 13.94 19.218 13.881 18.12C13.838 17.306 14.461 16.398 16.338 16.29C17.1863 16.2332 18.0384 16.2917 18.871 16.464C18.655 19.166 17.386 19.604 16.268 19.666Z" fill="white"/>
</svg>
