<svg width="24" height="25" viewBox="0 0 24 25" fill="none" xmlns="http://www.w3.org/2000/svg">
<g clip-path="url(#clip0_144_2494)">
<path d="M11.834 12.9304C13.0207 12.9304 14.1807 12.5785 15.1674 11.9192C16.1541 11.26 16.9231 10.3229 17.3773 9.22652C17.8314 8.13017 17.9502 6.92377 17.7187 5.75988C17.4872 4.59599 16.9157 3.5269 16.0766 2.68778C15.2375 1.84867 14.1684 1.27722 13.0045 1.04571C11.8406 0.8142 10.6342 0.93302 9.53788 1.38715C8.44153 1.84127 7.50445 2.61031 6.84517 3.597C6.18588 4.5837 5.83398 5.74373 5.83398 6.93042C5.83398 8.52172 6.46613 10.0478 7.59134 11.1731C8.71656 12.2983 10.2427 12.9304 11.834 12.9304ZM11.834 2.64471C12.6816 2.64471 13.5102 2.89606 14.215 3.36698C14.9198 3.8379 15.4691 4.50724 15.7935 5.29035C16.1178 6.07346 16.2027 6.93518 16.0373 7.76652C15.872 8.59787 15.4638 9.36151 14.8644 9.96088C14.2651 10.5602 13.5014 10.9684 12.6701 11.1338C11.8387 11.2992 10.977 11.2143 10.1939 10.8899C9.4108 10.5655 8.74146 10.0162 8.27054 9.31144C7.79962 8.60666 7.54827 7.77806 7.54827 6.93042C7.54827 5.79378 7.9998 4.70369 8.80353 3.89996C9.60725 3.09624 10.6973 2.64471 11.834 2.64471Z" fill="#607680"/>
<path d="M12.6912 14.6447H10.9769C8.4763 14.6447 6.0781 15.6381 4.3099 17.4063C2.5417 19.1745 1.54834 21.5727 1.54834 24.0733C1.54834 24.3006 1.63865 24.5186 1.79939 24.6794C1.96014 24.8401 2.17815 24.9304 2.40548 24.9304H21.2626C21.49 24.9304 21.708 24.8401 21.8687 24.6794C22.0295 24.5186 22.1198 24.3006 22.1198 24.0733C22.1198 21.5727 21.1264 19.1745 19.3582 17.4063C17.59 15.6381 15.1918 14.6447 12.6912 14.6447ZM3.31405 23.2162C3.52482 21.331 4.42278 19.5896 5.83635 18.3246C7.24992 17.0597 9.08 16.3599 10.9769 16.359H12.6912C14.5881 16.3599 16.4182 17.0597 17.8318 18.3246C19.2453 19.5896 20.1433 21.331 20.3541 23.2162H3.31405Z" fill="#607680"/>
</g>
<defs>
<clipPath id="clip0_144_2494">
<rect width="24" height="24" fill="white" transform="translate(0 0.93042)"/>
</clipPath>
</defs>
</svg>
