<svg width="32" height="32" viewBox="0 0 32 32" fill="none" xmlns="http://www.w3.org/2000/svg">
<rect width="32" height="32" rx="16" fill="#56448C"/>
<path d="M20.82 24.768L7.753 7.968C7.68413 7.87931 7.64152 7.77307 7.63004 7.66137C7.61855 7.54967 7.63864 7.43698 7.68803 7.33613C7.73741 7.23528 7.8141 7.15032 7.90938 7.09089C8.00466 7.03147 8.11471 6.99998 8.227 7H10.707C10.7983 7.00014 10.8884 7.0211 10.9703 7.06131C11.0523 7.10151 11.124 7.15989 11.18 7.232L24.247 24.032C24.3159 24.1207 24.3585 24.2269 24.37 24.3386C24.3814 24.4503 24.3614 24.563 24.312 24.6639C24.2626 24.7647 24.1859 24.8497 24.0906 24.9091C23.9953 24.9685 23.8853 25 23.773 25H21.293C21.2017 24.9999 21.1116 24.9789 21.0297 24.9387C20.9477 24.8985 20.876 24.8401 20.82 24.768Z" stroke="white" stroke-width="1.5"/>
<path d="M24 7L8 25" stroke="white" stroke-width="1.5" stroke-linecap="round"/>
</svg>
